<svg xmlns="http://www.w3.org/2000/svg" xmlns:xlink="http://www.w3.org/1999/xlink" width="2380" zoomAndPan="magnify" viewBox="0 0 1784.88 1784.99993" height="2380" preserveAspectRatio="xMidYMid meet" version="1.0"><defs><g/><clipPath id="4f9fb5b516"><path d="M 0.109375 0.175781 L 1635.601562 0.175781 L 1635.601562 1677.183594 L 0.109375 1677.183594 Z M 0.109375 0.175781 " clip-rule="nonzero"/></clipPath><clipPath id="9cdb4c0dff"><path d="M 341.839844 606.480469 L 372.121094 606.480469 L 372.121094 636.761719 L 341.839844 636.761719 Z M 341.839844 606.480469 " clip-rule="nonzero"/></clipPath><clipPath id="7c81a665a7"><path d="M 356.980469 606.480469 C 348.617188 606.480469 341.839844 613.257812 341.839844 621.621094 C 341.839844 629.980469 348.617188 636.761719 356.980469 636.761719 C 365.339844 636.761719 372.121094 629.980469 372.121094 621.621094 C 372.121094 613.257812 365.339844 606.480469 356.980469 606.480469 Z M 356.980469 606.480469 " clip-rule="nonzero"/></clipPath><clipPath id="af56bb4cda"><path d="M 0.839844 0.480469 L 31.121094 0.480469 L 31.121094 30.761719 L 0.839844 30.761719 Z M 0.839844 0.480469 " clip-rule="nonzero"/></clipPath><clipPath id="7de011d240"><path d="M 15.980469 0.480469 C 7.617188 0.480469 0.839844 7.257812 0.839844 15.621094 C 0.839844 23.980469 7.617188 30.761719 15.980469 30.761719 C 24.339844 30.761719 31.121094 23.980469 31.121094 15.621094 C 31.121094 7.257812 24.339844 0.480469 15.980469 0.480469 Z M 15.980469 0.480469 " clip-rule="nonzero"/></clipPath><clipPath id="a8d7aedb86"><rect x="0" width="32" y="0" height="31"/></clipPath><clipPath id="60c790d3b8"><path d="M 258.113281 610.8125 L 279.722656 610.8125 L 279.722656 632.425781 L 258.113281 632.425781 Z M 258.113281 610.8125 " clip-rule="nonzero"/></clipPath><clipPath id="f536b72da1"><path d="M 268.917969 610.8125 C 262.949219 610.8125 258.113281 615.652344 258.113281 621.621094 C 258.113281 627.585938 262.949219 632.425781 268.917969 632.425781 C 274.886719 632.425781 279.722656 627.585938 279.722656 621.621094 C 279.722656 615.652344 274.886719 610.8125 268.917969 610.8125 Z M 268.917969 610.8125 " clip-rule="nonzero"/></clipPath><clipPath id="ac96efe5f9"><path d="M 0.113281 0.8125 L 21.722656 0.8125 L 21.722656 22.425781 L 0.113281 22.425781 Z M 0.113281 0.8125 " clip-rule="nonzero"/></clipPath><clipPath id="2175ec37ab"><path d="M 10.917969 0.8125 C 4.949219 0.8125 0.113281 5.652344 0.113281 11.621094 C 0.113281 17.585938 4.949219 22.425781 10.917969 22.425781 C 16.886719 22.425781 21.722656 17.585938 21.722656 11.621094 C 21.722656 5.652344 16.886719 0.8125 10.917969 0.8125 Z M 10.917969 0.8125 " clip-rule="nonzero"/></clipPath><clipPath id="84b3862723"><rect x="0" width="22" y="0" height="23"/></clipPath><clipPath id="db5cd38afa"><path d="M 299.003906 609.84375 L 322.558594 609.84375 L 322.558594 633.394531 L 299.003906 633.394531 Z M 299.003906 609.84375 " clip-rule="nonzero"/></clipPath><clipPath id="5c1fffb3f9"><path d="M 310.78125 609.84375 C 304.277344 609.84375 299.003906 615.117188 299.003906 621.621094 C 299.003906 628.125 304.277344 633.394531 310.78125 633.394531 C 317.285156 633.394531 322.558594 628.125 322.558594 621.621094 C 322.558594 615.117188 317.285156 609.84375 310.78125 609.84375 Z M 310.78125 609.84375 " clip-rule="nonzero"/></clipPath><clipPath id="6fa85fe023"><path d="M 0.00390625 0.84375 L 23.558594 0.84375 L 23.558594 24.394531 L 0.00390625 24.394531 Z M 0.00390625 0.84375 " clip-rule="nonzero"/></clipPath><clipPath id="f4b4eb8c74"><path d="M 11.78125 0.84375 C 5.277344 0.84375 0.00390625 6.117188 0.00390625 12.621094 C 0.00390625 19.125 5.277344 24.394531 11.78125 24.394531 C 18.285156 24.394531 23.558594 19.125 23.558594 12.621094 C 23.558594 6.117188 18.285156 0.84375 11.78125 0.84375 Z M 11.78125 0.84375 " clip-rule="nonzero"/></clipPath><clipPath id="6ad5d363e4"><rect x="0" width="24" y="0" height="25"/></clipPath><clipPath id="1a79632807"><path d="M 1201.246094 614.175781 L 1216.136719 614.175781 L 1216.136719 629.0625 L 1201.246094 629.0625 Z M 1201.246094 614.175781 " clip-rule="nonzero"/></clipPath><clipPath id="3081ba0d99"><path d="M 1208.691406 614.175781 C 1204.578125 614.175781 1201.246094 617.507812 1201.246094 621.621094 C 1201.246094 625.730469 1204.578125 629.0625 1208.691406 629.0625 C 1212.800781 629.0625 1216.136719 625.730469 1216.136719 621.621094 C 1216.136719 617.507812 1212.800781 614.175781 1208.691406 614.175781 Z M 1208.691406 614.175781 " clip-rule="nonzero"/></clipPath><clipPath id="958427c4ce"><path d="M 0.246094 0.175781 L 15.136719 0.175781 L 15.136719 15.0625 L 0.246094 15.0625 Z M 0.246094 0.175781 " clip-rule="nonzero"/></clipPath><clipPath id="e779a9ed64"><path d="M 7.691406 0.175781 C 3.578125 0.175781 0.246094 3.507812 0.246094 7.621094 C 0.246094 11.730469 3.578125 15.0625 7.691406 15.0625 C 11.800781 15.0625 15.136719 11.730469 15.136719 7.621094 C 15.136719 3.507812 11.800781 0.175781 7.691406 0.175781 Z M 7.691406 0.175781 " clip-rule="nonzero"/></clipPath><clipPath id="c7394cbfe9"><rect x="0" width="16" y="0" height="16"/></clipPath><clipPath id="326f76f966"><path d="M 1055.375 606.480469 L 1085.65625 606.480469 L 1085.65625 636.761719 L 1055.375 636.761719 Z M 1055.375 606.480469 " clip-rule="nonzero"/></clipPath><clipPath id="e871e50031"><path d="M 1070.515625 606.480469 C 1062.152344 606.480469 1055.375 613.257812 1055.375 621.621094 C 1055.375 629.980469 1062.152344 636.761719 1070.515625 636.761719 C 1078.878906 636.761719 1085.65625 629.980469 1085.65625 621.621094 C 1085.65625 613.257812 1078.878906 606.480469 1070.515625 606.480469 Z M 1070.515625 606.480469 " clip-rule="nonzero"/></clipPath><clipPath id="1c9410e6d3"><path d="M 0.375 0.480469 L 30.65625 0.480469 L 30.65625 30.761719 L 0.375 30.761719 Z M 0.375 0.480469 " clip-rule="nonzero"/></clipPath><clipPath id="e26f4cbdd9"><path d="M 15.515625 0.480469 C 7.152344 0.480469 0.375 7.257812 0.375 15.621094 C 0.375 23.980469 7.152344 30.761719 15.515625 30.761719 C 23.878906 30.761719 30.65625 23.980469 30.65625 15.621094 C 30.65625 7.257812 23.878906 0.480469 15.515625 0.480469 Z M 15.515625 0.480469 " clip-rule="nonzero"/></clipPath><clipPath id="10a79c3bb3"><rect x="0" width="31" y="0" height="31"/></clipPath><clipPath id="ee0a28c91d"><path d="M 1108.808594 609.359375 L 1133.332031 609.359375 L 1133.332031 633.882812 L 1108.808594 633.882812 Z M 1108.808594 609.359375 " clip-rule="nonzero"/></clipPath><clipPath id="612d83c84f"><path d="M 1121.070312 609.359375 C 1114.296875 609.359375 1108.808594 614.847656 1108.808594 621.621094 C 1108.808594 628.390625 1114.296875 633.882812 1121.070312 633.882812 C 1127.839844 633.882812 1133.332031 628.390625 1133.332031 621.621094 C 1133.332031 614.847656 1127.839844 609.359375 1121.070312 609.359375 Z M 1121.070312 609.359375 " clip-rule="nonzero"/></clipPath><clipPath id="25990758c2"><path d="M 0.808594 0.359375 L 25.332031 0.359375 L 25.332031 24.882812 L 0.808594 24.882812 Z M 0.808594 0.359375 " clip-rule="nonzero"/></clipPath><clipPath id="80b47e8d6e"><path d="M 13.070312 0.359375 C 6.296875 0.359375 0.808594 5.847656 0.808594 12.621094 C 0.808594 19.390625 6.296875 24.882812 13.070312 24.882812 C 19.839844 24.882812 25.332031 19.390625 25.332031 12.621094 C 25.332031 5.847656 19.839844 0.359375 13.070312 0.359375 Z M 13.070312 0.359375 " clip-rule="nonzero"/></clipPath><clipPath id="b5ebe2d1b7"><rect x="0" width="26" y="0" height="25"/></clipPath><clipPath id="748a2c4fbb"><path d="M 1156.484375 610.8125 L 1178.09375 610.8125 L 1178.09375 632.425781 L 1156.484375 632.425781 Z M 1156.484375 610.8125 " clip-rule="nonzero"/></clipPath><clipPath id="8ae25e59c0"><path d="M 1167.289062 610.8125 C 1161.320312 610.8125 1156.484375 615.652344 1156.484375 621.621094 C 1156.484375 627.585938 1161.320312 632.425781 1167.289062 632.425781 C 1173.257812 632.425781 1178.09375 627.585938 1178.09375 621.621094 C 1178.09375 615.652344 1173.257812 610.8125 1167.289062 610.8125 Z M 1167.289062 610.8125 " clip-rule="nonzero"/></clipPath><clipPath id="b17cd95f60"><path d="M 0.484375 0.8125 L 22.09375 0.8125 L 22.09375 22.425781 L 0.484375 22.425781 Z M 0.484375 0.8125 " clip-rule="nonzero"/></clipPath><clipPath id="a51bf2cfa6"><path d="M 11.289062 0.8125 C 5.320312 0.8125 0.484375 5.652344 0.484375 11.621094 C 0.484375 17.585938 5.320312 22.425781 11.289062 22.425781 C 17.257812 22.425781 22.09375 17.585938 22.09375 11.621094 C 22.09375 5.652344 17.257812 0.8125 11.289062 0.8125 Z M 11.289062 0.8125 " clip-rule="nonzero"/></clipPath><clipPath id="0ca124c7f3"><rect x="0" width="23" y="0" height="23"/></clipPath><clipPath id="019e4f1701"><rect x="0" width="1636" y="0" height="1678"/></clipPath><clipPath id="95368e990a"><rect x="0" width="1636" y="0" height="1678"/></clipPath></defs><g transform="matrix(1, 0, 0, 1, 141, 51)"><g clip-path="url(#95368e990a)"><g clip-path="url(#4f9fb5b516)"><g transform="matrix(1, 0, 0, 1, 0, -0.000000000000099476)"><g clip-path="url(#019e4f1701)"><path fill="#caa63e" d="M 711.871094 43.132812 C 757.664062 40.632812 803.589844 43.125 848.839844 50.5625 C 998.113281 74.414062 1131.765625 156.707031 1220.296875 279.273438 C 1308.628906 402.523438 1347.183594 553.480469 1322.144531 703.628906 C 1307.90625 789.007812 1273.464844 873.726562 1221.523438 943.15625 C 1214.402344 952.675781 1204.628906 967.875 1194.714844 974.375 C 1190.082031 977.414062 1186.074219 978.652344 1180.707031 977.640625 C 1179.660156 974.1875 1179.851562 973.121094 1181.71875 969.898438 C 1186.84375 961.058594 1195.355469 952.347656 1201.738281 944.199219 C 1212.15625 930.808594 1221.890625 916.894531 1230.90625 902.519531 C 1247.707031 875.539062 1262.261719 847.222656 1274.421875 817.863281 C 1329.550781 682.523438 1327.832031 530.671875 1269.625 396.621094 C 1211.757812 260.507812 1102.070312 153.054688 964.820312 98.011719 C 821.859375 41.253906 662.273438 43.289062 520.808594 103.671875 C 383.144531 162.769531 275.234375 275.066406 221.644531 415.003906 C 169.472656 549.738281 172.722656 699.644531 230.679688 831.992188 C 288.699219 964.429688 396.523438 1068.683594 530.816406 1122.1875 C 523.757812 1107.46875 516.332031 1093.222656 511.476562 1077.566406 C 493.792969 1020.570312 517.054688 972.449219 552.726562 929.222656 C 571.921875 905.964844 588.921875 883.925781 592.296875 852.679688 C 597.324219 806.183594 572.660156 741.710938 543.113281 705.488281 C 533.324219 742.402344 520.566406 778.464844 511.777344 815.65625 C 504.929688 844.621094 503.40625 876.027344 492.898438 903.957031 C 480.011719 938.230469 459.5 969.472656 442.5625 1001.839844 C 435.753906 1014.851562 427.453125 1038.304688 415.359375 1046.828125 L 412.0625 1046.027344 C 407.308594 1033.890625 436.140625 986.433594 443.164062 974.027344 C 456.578125 950.335938 471.484375 927.117188 480.578125 901.300781 C 490.960938 871.839844 492.367188 838.878906 499.40625 808.40625 C 510.125 762.023438 528.417969 716.546875 533.230469 669.023438 C 581.480469 723.6875 628.25 824.335938 592.589844 895.199219 C 584.453125 911.375 573.085938 923.65625 561.605469 937.359375 C 536.367188 967.488281 518.0625 1000.636719 516.796875 1040.800781 C 521.597656 1076.046875 532.949219 1100.960938 551.054688 1131.050781 C 643.507812 1162.769531 736.96875 1172.59375 833.933594 1158.523438 C 854.097656 1155.597656 877.871094 1152.710938 896.691406 1144.699219 C 843.042969 1140.171875 789.5 1134.488281 736.09375 1127.644531 C 706.230469 1123.839844 675.546875 1117.378906 645.519531 1116.554688 C 634.457031 1123.890625 622.460938 1131.488281 608.496094 1128.53125 C 601.761719 1127.105469 596.21875 1122.9375 592.753906 1117.019531 C 588.453125 1109.667969 587.710938 1100.621094 590.109375 1092.523438 C 592.148438 1085.636719 596.664062 1079.398438 603.140625 1076.09375 C 622.808594 1066.054688 642.515625 1092.25 663.15625 1098.96875 C 678.074219 1103.925781 693.316406 1107.851562 708.769531 1110.730469 C 745.296875 1117.199219 902.121094 1136.40625 934.03125 1130.777344 C 969.761719 1124.472656 1005.574219 1103.085938 1037.6875 1086.925781 C 1033.050781 1084.578125 1028.351562 1082.347656 1023.597656 1080.242188 C 953.320312 1049.578125 814.105469 1030.46875 740.425781 1053.121094 C 717.039062 1060.3125 698.859375 1078.242188 676.285156 1086.738281 L 674.746094 1087.300781 C 667.070312 1084.976562 658.945312 1082.425781 652.957031 1076.808594 C 630.515625 1055.761719 667.53125 1027.785156 665.226562 1004.613281 C 664.003906 992.320312 653.492188 978.34375 643.648438 971.433594 C 639.941406 968.832031 638.65625 968.84375 634.394531 969.800781 C 632.101562 977.734375 640.972656 990.195312 644.640625 997.292969 C 648.535156 1004.832031 650.152344 1013.359375 647.324219 1021.601562 C 643.808594 1031.859375 630.546875 1066.574219 621.34375 1071.019531 C 621.039062 1070.695312 620.683594 1070.410156 620.425781 1070.042969 C 615.578125 1063.0625 620.328125 1046.109375 621.46875 1038.074219 C 621.007812 1036.949219 620.515625 1035.863281 620.019531 1034.753906 C 609.277344 1010.628906 577.394531 988.125 582.339844 958.75 C 583.488281 951.925781 587.4375 944.648438 593.355469 940.84375 C 606.398438 932.449219 636.417969 947.8125 652.375 950.816406 C 656.425781 954.351562 660.085938 958.367188 663.535156 962.480469 C 674.5625 975.640625 682.839844 993.824219 681.007812 1011.335938 C 679.375 1026.945312 670.800781 1034.570312 659.128906 1043.933594 C 665.25 1042.019531 671.34375 1040.015625 677.402344 1037.921875 C 689.359375 1033.703125 700.199219 1024.871094 705.570312 1013.25 C 709.464844 1004.816406 709.886719 996.21875 706.507812 987.476562 C 701.867188 975.476562 696.589844 973.910156 686.140625 968.558594 C 682.035156 966.453125 681.523438 965.101562 680.144531 961.035156 C 681.105469 958.570312 681.390625 957.328125 683.371094 955.59375 C 686.710938 952.667969 692.433594 950.253906 696.960938 950.964844 C 707.910156 952.6875 721.535156 966.074219 727.042969 975.203125 C 733.765625 986.351562 736.898438 1001.382812 733.21875 1014.074219 C 727.648438 1033.300781 705.832031 1045.511719 687.632812 1050.039062 C 679.109375 1052.160156 667.621094 1052.546875 660.050781 1057.226562 C 657.105469 1059.050781 656.996094 1059.65625 656.1875 1062.957031 C 657.089844 1064.988281 657.839844 1066.230469 659.542969 1067.722656 C 664.183594 1071.785156 670.355469 1075.101562 676.71875 1073.765625 C 687.800781 1071.4375 702.730469 1057.84375 712.71875 1052.085938 C 741.136719 1035.695312 770.953125 1033.171875 802.839844 1030.90625 C 804.125 982.585938 818.691406 925.050781 828.679688 877.617188 C 837.132812 837.484375 844.222656 797.121094 854.425781 757.367188 C 860.652344 733.105469 886.507812 685.839844 884.753906 664.496094 C 882.714844 639.667969 860.355469 622.078125 855.066406 598.046875 C 853.179688 589.476562 854.179688 582.160156 858.957031 574.644531 L 860.582031 575.136719 C 868.113281 586.050781 868.597656 601.679688 874.113281 613.800781 C 879.65625 625.976562 889.589844 636 895.40625 648.332031 C 910.050781 679.394531 888.414062 698.992188 878.210938 727.671875 C 885.253906 755.246094 899.503906 779.371094 911.339844 804.949219 C 921.671875 827.273438 930.722656 850.921875 943.679688 871.875 C 978.5625 928.273438 1041.558594 966.417969 1091.402344 1008.445312 C 1100.566406 1016.171875 1114.300781 1028.199219 1114.683594 1041.261719 C 1114.839844 1046.683594 1111.722656 1051.519531 1108.296875 1055.46875 C 1095.570312 1070.109375 1074.542969 1081.585938 1058.015625 1091.496094 C 976.222656 1141.398438 883.679688 1170.992188 788.121094 1177.8125 C 634.234375 1189.007812 482.167969 1138.882812 365.085938 1038.367188 C 250.585938 940.222656 180.484375 800.035156 170.644531 649.519531 C 160.910156 500.953125 209.890625 354.503906 307.042969 241.710938 C 410.710938 122.195312 554.925781 54.253906 711.871094 43.132812 Z M 817.238281 1030.058594 C 897.164062 1029.503906 978.675781 1041.117188 1050.742188 1077.5625 C 1063.976562 1073.980469 1093.9375 1050.347656 1104.140625 1039.660156 C 1087.21875 1013.476562 1047.554688 989.460938 1022.871094 970.160156 C 995.398438 948.675781 967.039062 924.691406 945.113281 897.402344 C 927.027344 874.898438 918.222656 848.816406 906.734375 822.839844 C 895.835938 798.207031 884.34375 772.632812 871.820312 748.800781 C 869.480469 752.742188 867.417969 756.699219 866.171875 761.136719 C 858.28125 789.234375 854.671875 820.1875 849.246094 848.914062 C 837.84375 909.292969 826.203125 969.226562 817.238281 1030.058594 Z M 622.289062 1118.058594 C 630.847656 1114.265625 634.773438 1104.296875 631.101562 1095.683594 C 627.433594 1087.070312 617.523438 1083 608.859375 1086.546875 C 603.144531 1088.886719 599.132812 1094.125 598.359375 1100.253906 C 597.585938 1106.382812 600.171875 1112.457031 605.128906 1116.144531 C 610.082031 1119.832031 616.640625 1120.5625 622.289062 1118.058594 Z M 607.910156 972.855469 C 610.871094 967.953125 612.933594 964.574219 612.953125 958.613281 C 611.308594 954.835938 610.480469 952.488281 606.40625 950.691406 C 603.769531 949.523438 599.953125 949.195312 597.097656 949 C 594.179688 954.226562 591.890625 958.945312 593.589844 965.117188 C 594.632812 968.921875 596.222656 969.929688 599.066406 972.484375 C 602.535156 973.429688 604.363281 973.457031 607.910156 972.855469 Z M 607.910156 972.855469 " fill-opacity="1" fill-rule="nonzero"/><path fill="#caa63e" d="M 733.972656 97.203125 C 756.3125 92.976562 785.015625 100.265625 805.464844 108.671875 C 849.8125 126.898438 886.054688 175.128906 882.710938 224.402344 C 881.675781 239.625 874.226562 253.957031 876.136719 269.460938 C 877.722656 282.316406 886.65625 293.023438 891.324219 304.867188 C 893.28125 309.824219 895.171875 317.359375 892.582031 322.335938 C 887.035156 333 873.65625 325.859375 864.832031 329.324219 C 864.644531 333.527344 869.9375 339.117188 871.039062 344.027344 C 869.691406 354.675781 863.421875 352.210938 856.710938 358.0625 L 859.890625 367.234375 C 857.5 373.039062 851.453125 372.808594 848.832031 378.316406 C 844.785156 386.828125 848.53125 396.425781 839.691406 402.957031 C 820.109375 417.429688 798.804688 398.683594 779.117188 396.394531 C 776.152344 396.050781 771.566406 396.40625 769.136719 398.328125 C 763.289062 402.957031 760.738281 410.96875 760.0625 418.203125 C 753.730469 485.679688 863.246094 452.515625 901.097656 498.792969 C 933.492188 538.398438 946.910156 629.074219 961.074219 679.9375 C 970.269531 712.957031 981.140625 744.480469 997.03125 774.910156 C 1036.636719 850.765625 1120.796875 947.949219 1178.820312 1013.925781 C 1195.832031 1033.269531 1214.621094 1051.789062 1230.695312 1071.828125 C 1243.757812 1088.128906 1255.300781 1110.515625 1252.734375 1132.050781 C 1251.972656 1138.566406 1250.65625 1144.023438 1245.328125 1148.277344 C 1241.617188 1148.976562 1241 1149.726562 1237.765625 1147.523438 C 1236.367188 1142.160156 1241 1120.996094 1241.023438 1111.941406 L 1236.136719 1109.710938 L 1236.578125 1108.613281 C 1232.59375 1117.148438 1233.300781 1133.367188 1226.945312 1138.824219 L 1223.359375 1137.628906 C 1220.21875 1122.851562 1229.6875 1106.832031 1224.140625 1091.882812 C 1216.550781 1098.53125 1220.035156 1118.636719 1212.136719 1125.453125 L 1209.582031 1124.609375 C 1204.804688 1112.886719 1209.882812 1098.730469 1206.878906 1086.398438 C 1204.792969 1077.828125 1201.398438 1077.035156 1194.875 1072.597656 C 1185.375 1066.132812 1187.054688 1060.617188 1184.796875 1050.796875 C 1183.351562 1044.519531 1178.597656 1037.972656 1174.75 1032.964844 C 1164.167969 1019.199219 1151.988281 1006.304688 1140.917969 992.871094 C 1083.832031 923.601562 1022.699219 853.753906 982.269531 773.011719 C 967.773438 744.066406 957.074219 713.753906 948.105469 682.683594 C 934.769531 636.480469 919.875 543.230469 891.410156 508.851562 C 861.265625 472.445312 801.824219 490.554688 765.351562 465.90625 C 755.121094 458.988281 749.078125 448.503906 746.769531 436.472656 C 744.128906 422.6875 746.980469 404.34375 755.265625 392.773438 C 774.039062 366.566406 801.0625 399.964844 823.066406 394.644531 C 833.894531 392.023438 831.460938 383.03125 836.519531 375.441406 C 839.683594 370.6875 844.230469 367.28125 847.386719 362.214844 C 838.164062 344.851562 855.777344 350.789062 858.1875 340.109375 C 855.488281 335.933594 852.542969 332.515625 852.914062 327.320312 C 860.363281 316.699219 870.257812 323.035156 879.773438 317.855469 C 882.125 316.574219 881.671875 315.84375 882.34375 313.410156 C 879.082031 297.722656 867.339844 284.882812 864.835938 268.945312 C 857.878906 224.722656 886.375 221.109375 852.46875 170.128906 C 842.277344 187.996094 831.304688 204.457031 818.089844 220.242188 C 808.117188 231.355469 795.640625 241.339844 783.125 249.398438 C 743.1875 275.113281 684.363281 282.796875 638.054688 272.171875 C 631.835938 270.742188 624.59375 269.042969 621.007812 263.335938 C 621.507812 261.230469 621.65625 259.265625 624.28125 258.757812 C 635.617188 256.570312 658.875 262.078125 671.335938 262.769531 C 710.484375 264.949219 749.476562 257.945312 781.886719 234.675781 C 810.042969 214.464844 834.984375 183.011719 840.859375 148.085938 C 832.054688 139.652344 822.453125 133.085938 811.433594 127.835938 C 777.765625 111.792969 735.765625 110 700.792969 122.875 C 655.375 139.59375 633.191406 176.316406 614.207031 218.171875 C 602.886719 217.0625 587.808594 211.636719 577.667969 218.566406 C 569.101562 224.425781 564.765625 235.125 562.726562 244.9375 C 558.875 263.480469 560.800781 287.402344 571.585938 303.492188 C 576.523438 310.859375 583.570312 316.542969 592.511719 318.070312 C 606.21875 320.414062 616.710938 313.804688 627.554688 306.546875 C 625.945312 300.136719 623.222656 291.320312 625.542969 284.960938 C 627.871094 285.496094 628.277344 285.824219 629.992188 287.371094 C 649.640625 305.109375 660.710938 312.703125 688.484375 314.507812 C 694.886719 314.925781 701.117188 314 707.519531 314.832031 C 707.980469 318.371094 707.894531 321.152344 707.359375 324.671875 C 697.628906 330.605469 653.234375 320.804688 639.84375 318.386719 C 642.828125 336.707031 641.96875 354.648438 637.109375 372.59375 C 623.007812 424.699219 589.429688 459.152344 539.5625 477.90625 C 519.761719 485.355469 498.699219 491.359375 480.429688 502.175781 C 460.394531 514.03125 450.308594 529.386719 443.957031 551.539062 C 424.78125 618.441406 432.851562 709.242188 419.53125 780.257812 C 412.226562 819.207031 395.253906 853.417969 381.773438 890.289062 C 370.832031 920.214844 362.863281 951.308594 355.136719 982.175781 C 352.386719 984.644531 350.5 983.953125 346.890625 984.015625 C 345.097656 982.214844 344.863281 982.160156 344.707031 979.578125 C 342.316406 940.378906 391.871094 839.953125 403.101562 794.226562 C 420.503906 723.363281 403.457031 567.941406 443.074219 515.140625 C 476.988281 469.941406 548.84375 474.824219 590.671875 427.964844 C 614.90625 400.820312 625.109375 364.941406 623.289062 329.042969 C 611.039062 333.003906 598.804688 335.238281 586.097656 331.914062 C 572.230469 328.285156 561.785156 318.683594 554.773438 306.4375 C 542.78125 285.496094 539.859375 258.269531 546.480469 235.136719 C 550.175781 222.226562 557.304688 209.011719 569.679688 202.636719 C 582.652344 195.953125 593.765625 199.535156 606.75 203.820312 C 614.695312 183.480469 625.804688 164.523438 639.667969 147.648438 C 664.058594 118.109375 695.929688 100.910156 733.972656 97.203125 Z M 733.972656 97.203125 " fill-opacity="1" fill-rule="nonzero"/><path fill="#caa63e" d="M 704.320312 503.230469 C 708.519531 503.332031 712.714844 503.640625 716.882812 504.15625 C 732.953125 506.296875 746.367188 519.191406 755.703125 531.582031 C 779.207031 562.773438 806.574219 615.015625 811.605469 654.046875 C 814.140625 673.726562 812.808594 693.519531 814.707031 713.1875 C 816.777344 734.617188 822.089844 756.1875 818.792969 777.730469 C 817.523438 786.023438 815.402344 798.796875 808.242188 803.964844 C 799.039062 803.742188 787.367188 789.714844 780.722656 783.445312 L 769.886719 794.679688 C 775.945312 800.019531 790.527344 810.457031 791.121094 818.644531 C 790.664062 818.65625 790.207031 818.722656 789.753906 818.671875 C 780.960938 817.679688 771.523438 806.191406 765.523438 800.148438 C 760.21875 802.761719 754.804688 805.558594 749.183594 807.40625 C 728.738281 814.136719 707.417969 811.691406 688.527344 801.726562 C 654.835938 783.953125 616.875 744.460938 605.714844 707.945312 C 615.738281 721.429688 627.214844 734.117188 638.6875 746.371094 C 659.714844 768.820312 687.4375 798.363281 720.371094 799.152344 C 736.648438 799.539062 755.738281 791.828125 767.269531 780.320312 C 770.855469 776.742188 774.171875 772.28125 774.214844 767.0625 C 767.273438 766.265625 755.6875 773.8125 747.230469 774.855469 C 712.402344 779.144531 678.589844 757.015625 652.472656 736.316406 C 626.367188 715.628906 606.863281 696.742188 602.9375 662.296875 C 606.519531 668.988281 609.910156 675.796875 614.019531 682.1875 C 636.644531 717.371094 683.492188 755.058594 725.105469 763.847656 C 738.480469 766.675781 751.734375 765.855469 763.261719 757.917969 C 772.03125 751.882812 789.78125 733.632812 791.636719 723.179688 C 787.582031 722.992188 781.3125 727.695312 777.273438 729.269531 C 747.375 740.90625 711.132812 730.835938 683.273438 717.902344 C 651.476562 703.136719 619.910156 679.066406 607.617188 645.28125 L 632.921875 671.027344 C 652.269531 688.644531 673.40625 702.15625 697.730469 711.851562 C 721.257812 721.234375 750.230469 728.828125 774.554688 717.945312 C 784 713.714844 793.144531 705.878906 796.859375 696 C 798.984375 690.355469 801.847656 681.167969 799.234375 675.4375 C 793.25 676.304688 779.09375 690.53125 768.890625 693.882812 C 739.59375 703.503906 706.21875 689.640625 680.164062 676.320312 C 662.558594 667.324219 614.050781 636.65625 609.550781 617.285156 C 608.605469 613.210938 609.347656 611.621094 611.484375 608.234375 C 620.957031 613.789062 630.046875 626.957031 637.859375 635.183594 C 655.574219 653.839844 679.671875 666.023438 703.460938 675.269531 C 725.574219 683.859375 751.316406 691.199219 774.082031 680.785156 C 782.789062 676.800781 794.277344 668.183594 797.34375 658.769531 C 798.691406 654.628906 797.878906 651.578125 796.085938 647.773438 C 790.6875 647.050781 779.953125 653.339844 774.074219 654.808594 C 753.402344 659.972656 728.601562 657.839844 708.304688 652.011719 C 670.703125 641.203125 635.160156 614.160156 616.089844 579.882812 L 620.683594 564.414062 C 622.222656 570.203125 623.972656 575.832031 627.035156 581.023438 C 645.347656 612.042969 678.800781 633.855469 713.257812 642.582031 C 744.128906 650.402344 767.367188 646.015625 794.261719 630.179688 C 791.84375 623.324219 788.585938 616.777344 785.527344 610.191406 C 775.320312 616.96875 766.921875 620.722656 754.65625 622.1875 C 720.46875 626.269531 689.816406 613.804688 663.472656 592.816406 C 647.988281 580.480469 622.292969 555.855469 619.90625 535.171875 L 621.585938 534.003906 C 624.410156 535.460938 627.253906 536.882812 630.117188 538.261719 C 631.847656 534.195312 632.039062 531.972656 631.078125 527.660156 C 628.058594 523.964844 626.785156 523.207031 621.828125 522.289062 C 596.753906 517.640625 550.746094 530.746094 521.714844 524.253906 C 517.730469 523.367188 511.816406 521.859375 509.613281 518.289062 L 511.222656 516.128906 C 531.359375 507.496094 671.101562 505.011719 704.320312 503.230469 Z M 635.601562 546.300781 C 651.582031 576.230469 681.363281 600.058594 713.914062 609.808594 C 731.015625 614.933594 753.34375 616.679688 769.640625 607.890625 C 769.910156 607.746094 770.167969 607.585938 770.433594 607.4375 C 774.75 605.15625 777.371094 604.6875 779.375 599.953125 C 778.21875 593.324219 772.011719 587.019531 767.902344 581.757812 C 756.023438 589.957031 744.296875 592.949219 729.929688 590.335938 C 696.738281 584.296875 666.609375 553.800781 648.453125 526.921875 L 647.730469 525.847656 C 644.96875 533.707031 640.550781 539.664062 635.601562 546.300781 Z M 763.484375 572.796875 C 761.710938 560.816406 753.914062 552.746094 746.460938 543.742188 C 733.8125 548.972656 722.839844 550.949219 709.796875 545.417969 C 696.570312 539.800781 684.730469 527.78125 673.730469 518.539062 C 667.253906 518.539062 660.742188 518.410156 654.269531 518.597656 C 669.492188 545.65625 696.125 570.171875 726.65625 578.507812 C 737.140625 581.371094 748.175781 581.734375 757.945312 576.390625 C 759.882812 575.332031 761.699219 574.082031 763.484375 572.796875 Z M 725.632812 541.429688 C 730.488281 539.171875 733.492188 538.425781 736.535156 533.875 C 736.21875 529.4375 736.136719 527.832031 732.609375 524.632812 C 724.84375 517.605469 713.386719 516.550781 703.460938 517.605469 L 693.378906 517.777344 L 691.421875 519.816406 C 694.332031 528.210938 706.429688 534.410156 713.941406 538.136719 C 717.558594 539.929688 721.644531 540.917969 725.632812 541.429688 Z M 807.148438 760.285156 L 809.15625 759.554688 C 810.472656 751.019531 808.085938 737.40625 803.914062 729.8125 C 801.089844 736.550781 796.347656 744.96875 797.09375 752.355469 C 799.730469 757.507812 802.089844 757.871094 807.148438 760.285156 Z M 807.148438 760.285156 " fill-opacity="1" fill-rule="nonzero"/><path fill="#caa63e" d="M 503.867188 529.632812 C 506.15625 529.625 508.457031 529.640625 510.738281 529.867188 C 518.210938 530.601562 526.230469 534.632812 530.699219 540.757812 C 537.433594 549.980469 536.90625 558.917969 535.183594 569.566406 C 529.328125 574.914062 521.183594 579.515625 516.445312 585.859375 C 503.503906 603.164062 473.90625 769.335938 472.945312 796.019531 C 472.433594 810.136719 477.777344 823.257812 479.5625 837.140625 L 478.203125 837.484375 C 473.535156 832.507812 468.75 827.648438 463.84375 822.90625 C 460.445312 821.191406 456.664062 819.03125 452.925781 818.246094 C 442.058594 815.96875 428.839844 826.953125 420.226562 832.5 C 429.539062 817.902344 441.675781 803.15625 448.121094 787.125 C 459.554688 758.671875 486.1875 619.835938 486.84375 588.074219 C 487.117188 574.863281 474.09375 556.652344 480.503906 544.597656 C 485.296875 535.589844 494.644531 532.148438 503.867188 529.632812 Z M 503.867188 529.632812 " fill-opacity="1" fill-rule="nonzero"/><path fill="#caa63e" d="M 552.386719 533.222656 C 559.085938 532.890625 565.789062 532.648438 572.496094 532.496094 C 580.179688 532.394531 590.609375 533.0625 596.082031 539.183594 C 599.890625 543.4375 600.519531 554.15625 600.789062 559.679688 C 601.59375 576.363281 598.546875 593.421875 597.960938 610.113281 C 597.464844 624.21875 600.085938 642.082031 597.253906 655.75 C 596.308594 660.3125 592.292969 662.269531 588.835938 664.847656 C 587.4375 664.578125 586.921875 664.535156 585.671875 664.121094 C 579.742188 662.160156 574.121094 655.902344 570.167969 651.246094 C 535.910156 610.875 554.210938 558.710938 542.847656 538.503906 C 542.527344 537.9375 542.191406 537.382812 541.867188 536.828125 C 544.75 534.167969 548.597656 534.03125 552.386719 533.222656 Z M 586.105469 569 C 588.652344 563.941406 591.253906 559.847656 590.78125 553.996094 C 588.601562 550.027344 587.789062 548.507812 583.113281 547.148438 C 576.574219 545.253906 567.726562 546.824219 561.03125 547.441406 C 561.433594 557.296875 560.796875 565.8125 567.972656 573.429688 C 572.398438 574.894531 574.613281 575.496094 579.238281 573.667969 C 581.585938 572.742188 584.132812 570.507812 586.105469 569 Z M 586.105469 569 " fill-opacity="1" fill-rule="nonzero"/><path fill="#caa63e" d="M 438.554688 833.539062 C 440.839844 833.589844 443.117188 833.835938 445.363281 834.269531 C 450.730469 835.308594 455.609375 838.363281 458.460938 843.113281 C 461.3125 847.851562 462.050781 854.503906 460.484375 859.792969 C 456.636719 872.761719 444.269531 883.714844 439.164062 896.566406 C 422.101562 939.5 411.433594 986.039062 400.015625 1030.6875 L 396.621094 1033.414062 C 392.152344 1033.886719 389.683594 1034.21875 385.730469 1031.898438 C 382.144531 1024.582031 387.503906 1007.410156 389.589844 999.269531 C 399.148438 961.957031 416.742188 926.277344 424.667969 888.742188 C 427.476562 875.453125 423.191406 861.285156 425.878906 848.097656 C 427.371094 840.789062 432.855469 837.464844 438.554688 833.539062 Z M 438.554688 833.539062 " fill-opacity="1" fill-rule="nonzero"/><path fill="#caa63e" d="M 677.71875 884.390625 C 683.402344 884.390625 687.898438 884.589844 693.066406 887.164062 C 697.792969 889.515625 699.203125 891.980469 700.746094 896.652344 C 700.417969 900.609375 699.539062 903.328125 697.027344 906.476562 C 689.023438 916.511719 678.972656 916.757812 667.1875 918.0625 C 672.933594 920.414062 679.964844 923.519531 683.792969 928.632812 C 687.96875 934.214844 687.242188 939.605469 686.058594 945.964844 C 681.03125 948.417969 673.476562 950.277344 667.894531 950.039062 C 662.640625 949.816406 658.367188 948.066406 654.976562 944.03125 C 652.839844 941.496094 652.574219 937.070312 652.964844 933.9375 C 653.949219 926.140625 656.1875 922.746094 662.1875 918.039062 C 664.371094 916.328125 664.394531 914.773438 665.226562 912.207031 C 664.257812 908.832031 662.207031 903.480469 662.941406 900.007812 C 664.300781 893.585938 672.753906 888.050781 677.71875 884.390625 Z M 677.71875 884.390625 " fill-opacity="1" fill-rule="nonzero"/><path fill="#caa63e" d="M 614.75 749.785156 C 644.53125 781.832031 674.441406 827.101562 722.871094 828.851562 C 729.148438 829.082031 749.007812 823.832031 751.757812 825.464844 C 750.703125 829.9375 749.164062 832.652344 744.917969 834.96875 C 731.390625 842.335938 707.539062 836.625 694.023438 831.785156 C 688.984375 829.980469 684.078125 827.800781 679.210938 825.589844 L 671.699219 821.644531 C 647.292969 803.796875 625.40625 778.15625 614.75 749.785156 Z M 614.75 749.785156 " fill-opacity="1" fill-rule="nonzero"/><path fill="#caa63e" d="M 581.738281 1032.875 C 586.625 1032.277344 590.070312 1031.753906 594.742188 1033.890625 C 598.703125 1037.769531 600.972656 1042.691406 601.867188 1048.152344 C 604.820312 1066.167969 581.296875 1067.96875 573.101562 1079.675781 C 559.152344 1099.609375 586.5625 1105.441406 589.003906 1119.984375 C 579.59375 1119.277344 571.734375 1115.691406 565.664062 1108.417969 C 560.277344 1101.964844 557.71875 1093.796875 558.898438 1085.429688 C 561.65625 1065.832031 577.410156 1066.824219 589.167969 1056.144531 C 592.34375 1053.253906 592.53125 1050.894531 593.027344 1046.9375 C 591.285156 1041.019531 586.054688 1037.0625 581.738281 1032.875 Z M 581.738281 1032.875 " fill-opacity="1" fill-rule="nonzero"/><path fill="#caa63e" d="M 1124.078125 1018.804688 C 1125.675781 1019.128906 1127.132812 1019.429688 1128.644531 1020.066406 C 1140.863281 1025.191406 1172.832031 1083.167969 1179.167969 1097.378906 C 1175.394531 1097.054688 1170.890625 1096.910156 1167.367188 1095.453125 C 1151.683594 1088.96875 1130.640625 1035.097656 1124.078125 1018.804688 Z M 1124.078125 1018.804688 " fill-opacity="1" fill-rule="nonzero"/><path fill="#caa63e" d="M 675.191406 852.925781 C 679.242188 852.507812 683.925781 851.996094 687.886719 853.175781 C 690.820312 854.042969 692.597656 855.867188 694.042969 858.476562 C 695.574219 861.25 695.765625 864.425781 694.789062 867.476562 C 692.277344 875.296875 686.351562 878.753906 679.414062 881.949219 C 677.566406 881.871094 675.71875 881.78125 673.878906 881.570312 C 668.296875 880.929688 664.996094 879.109375 661.546875 874.734375 C 661.105469 872.804688 660.179688 870.519531 660.636719 868.59375 C 662.660156 860.085938 668.210938 857.089844 675.191406 852.925781 Z M 675.191406 852.925781 " fill-opacity="1" fill-rule="nonzero"/><path fill="#caa63e" d="M 666.425781 824.300781 C 670.023438 825.25 673.125 827.535156 675.097656 830.6875 C 678.839844 836.652344 677.8125 844.433594 672.652344 849.226562 C 667.496094 854.015625 659.660156 854.460938 653.988281 850.285156 C 648.320312 846.113281 646.417969 838.496094 649.457031 832.144531 C 652.5 825.792969 659.621094 822.5 666.425781 824.300781 Z M 666.425781 824.300781 " fill-opacity="1" fill-rule="nonzero"/><path fill="#caa63e" d="M 655.085938 429.351562 C 663.335938 428.929688 670.886719 429.847656 677.386719 435.601562 C 680.542969 438.390625 680.902344 440.363281 681.382812 444.371094 C 679.785156 448.925781 677.757812 450.539062 673.792969 453.152344 C 667.433594 451.691406 660.964844 450.132812 655.035156 447.34375 C 650.582031 445.25 649.273438 443.378906 647.671875 438.9375 C 649.335938 433.941406 651.222656 432.71875 655.085938 429.351562 Z M 655.085938 429.351562 " fill-opacity="1" fill-rule="nonzero"/><path fill="#caa63e" d="M 648.960938 454.625 C 656.070312 455.480469 663.132812 457.121094 669.734375 459.925781 C 674.71875 462.046875 677.457031 463.933594 679.503906 469.015625 C 677.226562 473.1875 675.632812 473.523438 671.539062 475.734375 C 663.507812 475.101562 652.378906 473.390625 645.324219 469.277344 C 641.589844 467.101562 640.835938 466.253906 639.769531 462.15625 C 642.222656 457.796875 644.78125 456.976562 648.960938 454.625 Z M 648.960938 454.625 " fill-opacity="1" fill-rule="nonzero"/><path fill="#caa63e" d="M 657.054688 403.558594 C 664.695312 403.078125 671.371094 405.011719 678.308594 408.105469 C 682.492188 409.96875 688.070312 413.132812 689.507812 417.820312 C 690.335938 420.523438 688.75 422.222656 687.574219 424.65625 C 681.96875 425.523438 676.792969 425.65625 671.230469 424.5625 C 664.414062 423.222656 659.898438 421.332031 655.875 415.429688 C 654.441406 410.714844 655.335938 408.074219 657.054688 403.558594 Z M 657.054688 403.558594 " fill-opacity="1" fill-rule="nonzero"/><path fill="#caa63e" d="M 638.121094 478.441406 C 647.578125 479.753906 662.035156 482.976562 668.171875 491.007812 C 669.882812 493.246094 669.34375 493.871094 669 496.644531 L 665.296875 499 C 658.917969 498.835938 652.597656 498.699219 646.375 497.128906 C 640.019531 495.523438 636.539062 493.792969 633.136719 488.125 C 633.820312 483.1875 635.054688 482.226562 638.121094 478.441406 Z M 638.121094 478.441406 " fill-opacity="1" fill-rule="nonzero"/><path fill="#caa63e" d="M 672.015625 381.566406 C 678.960938 381.414062 685.652344 382.585938 691.320312 386.910156 C 694.785156 389.550781 695.371094 390.605469 695.933594 394.828125 C 693.253906 398.515625 691.429688 398.84375 687.3125 400.605469 C 682.089844 400.429688 676.917969 399.476562 671.972656 397.78125 C 667.382812 396.222656 665.660156 394.632812 663.628906 390.425781 C 665.640625 385.527344 667.808594 384.546875 672.015625 381.566406 Z M 672.015625 381.566406 " fill-opacity="1" fill-rule="nonzero"/><path fill="#caa63e" d="M 680.390625 356.738281 C 682.066406 356.773438 683.714844 356.769531 685.347656 357.21875 C 692.113281 359.101562 699.421875 364.679688 702.996094 370.601562 C 703.488281 375.378906 702.789062 375.351562 699.960938 378.976562 C 690.851562 376.617188 680.179688 375.652344 674.972656 367.132812 C 675.703125 361.96875 677.035156 360.851562 680.390625 356.738281 Z M 680.390625 356.738281 " fill-opacity="1" fill-rule="nonzero"/><path fill="#caa63e" d="M 354.816406 613.199219 C 359.941406 609.878906 366.769531 611.199219 370.289062 616.183594 C 373.8125 621.167969 372.773438 628.042969 367.9375 631.769531 C 364.628906 634.316406 360.191406 634.84375 356.375 633.144531 C 352.5625 631.449219 349.984375 627.800781 349.660156 623.636719 C 349.335938 619.472656 351.3125 615.46875 354.816406 613.199219 Z M 354.816406 613.199219 " fill-opacity="1" fill-rule="nonzero"/><path fill="#caa63e" d="M 637.511719 920.722656 C 643.152344 918.910156 649.210938 921.9375 651.144531 927.539062 C 653.078125 933.140625 650.183594 939.265625 644.625 941.320312 C 640.921875 942.6875 636.769531 941.945312 633.769531 939.382812 C 630.765625 936.816406 629.390625 932.824219 630.167969 928.953125 C 630.945312 925.082031 633.753906 921.933594 637.511719 920.722656 Z M 637.511719 920.722656 " fill-opacity="1" fill-rule="nonzero"/><path fill="#caa63e" d="M 1064.527344 613.019531 C 1069.542969 609.816406 1076.210938 611.289062 1079.414062 616.308594 C 1082.617188 621.328125 1081.148438 627.996094 1076.128906 631.203125 C 1071.109375 634.410156 1064.441406 632.9375 1061.238281 627.917969 C 1058.03125 622.894531 1059.503906 616.226562 1064.527344 613.019531 Z M 1064.527344 613.019531 " fill-opacity="1" fill-rule="nonzero"/><path fill="#caa63e" d="M 1115.253906 613.0625 C 1120.101562 609.992188 1126.515625 611.367188 1129.683594 616.152344 C 1132.851562 620.9375 1131.613281 627.378906 1126.890625 630.648438 C 1123.753906 632.820312 1119.683594 633.128906 1116.253906 631.445312 C 1112.824219 629.765625 1110.570312 626.363281 1110.363281 622.546875 C 1110.15625 618.734375 1112.027344 615.105469 1115.253906 613.0625 Z M 1115.253906 613.0625 " fill-opacity="1" fill-rule="nonzero"/><path fill="#caa63e" d="M 306.695312 614.816406 C 309.546875 612.804688 313.257812 612.484375 316.410156 613.972656 C 319.566406 615.464844 321.671875 618.535156 321.929688 622.015625 C 322.1875 625.492188 320.550781 628.84375 317.652344 630.78125 C 313.246094 633.726562 307.292969 632.578125 304.292969 628.207031 C 301.296875 623.839844 302.367188 617.871094 306.695312 614.816406 Z M 306.695312 614.816406 " fill-opacity="1" fill-rule="nonzero"/><path fill="#caa63e" d="M 648.855469 893.519531 L 655.917969 894.6875 C 659.230469 897.476562 659.320312 897.601562 660.074219 901.859375 C 658.585938 907.09375 656.070312 910.179688 652.644531 914.214844 C 652.335938 914.09375 652.019531 913.996094 651.722656 913.84375 C 647.476562 911.726562 644.652344 908.613281 643.121094 904.195312 C 643.945312 898.574219 645 897.816406 648.855469 893.519531 Z M 648.855469 893.519531 " fill-opacity="1" fill-rule="nonzero"/><path fill="#caa63e" d="M 1163.394531 615.011719 C 1167.140625 611.980469 1172.628906 612.53125 1175.699219 616.246094 C 1178.765625 619.960938 1178.269531 625.457031 1174.582031 628.558594 C 1170.847656 631.707031 1165.265625 631.203125 1162.152344 627.4375 C 1159.042969 623.667969 1159.601562 618.089844 1163.394531 615.011719 Z M 1163.394531 615.011719 " fill-opacity="1" fill-rule="nonzero"/><path fill="#caa63e" d="M 264.242188 616.410156 C 268.160156 614.9375 272.546875 616.769531 274.253906 620.589844 C 275.964844 624.410156 274.402344 628.90625 270.691406 630.839844 C 268.082031 632.203125 264.933594 632.003906 262.515625 630.324219 C 260.097656 628.648438 258.8125 625.765625 259.175781 622.847656 C 259.535156 619.921875 261.488281 617.445312 264.242188 616.410156 Z M 264.242188 616.410156 " fill-opacity="1" fill-rule="nonzero"/><path fill="#caa63e" d="M 638.226562 803.125 C 641.121094 800.703125 645.410156 800.996094 647.945312 803.796875 C 650.476562 806.59375 650.347656 810.890625 647.648438 813.53125 C 645.808594 815.332031 643.132812 815.984375 640.671875 815.226562 C 638.214844 814.46875 636.363281 812.425781 635.855469 809.902344 C 635.34375 807.378906 636.253906 804.777344 638.226562 803.125 Z M 638.226562 803.125 " fill-opacity="1" fill-rule="nonzero"/><path fill="#caa63e" d="M 1206.441406 614.703125 C 1209.480469 613.507812 1212.9375 614.765625 1214.496094 617.636719 C 1216.058594 620.507812 1215.234375 624.09375 1212.578125 625.996094 C 1210.539062 627.453125 1207.84375 627.609375 1205.65625 626.390625 C 1203.46875 625.167969 1202.179688 622.796875 1202.347656 620.296875 C 1202.515625 617.796875 1204.109375 615.617188 1206.441406 614.703125 Z M 1206.441406 614.703125 " fill-opacity="1" fill-rule="nonzero"/><path fill="#fdfaf9" d="M 671.699219 821.644531 L 679.210938 825.589844 L 675.097656 830.6875 C 673.125 827.535156 670.023438 825.25 666.425781 824.300781 Z M 671.699219 821.644531 " fill-opacity="0.024" fill-rule="nonzero"/><g clip-path="url(#9cdb4c0dff)"><g clip-path="url(#7c81a665a7)"><g transform="matrix(1, 0, 0, 1, 341, 606)"><g clip-path="url(#a8d7aedb86)"><g clip-path="url(#af56bb4cda)"><g clip-path="url(#7de011d240)"><path fill="#caa63e" d="M 0.839844 0.480469 L 31.121094 0.480469 L 31.121094 30.761719 L 0.839844 30.761719 Z M 0.839844 0.480469 " fill-opacity="1" fill-rule="nonzero"/></g></g></g></g></g></g><g fill="#caa63e" fill-opacity="1"><g transform="translate(1.356829, 1656.917191)"><g><path d="M 11.578125 0 L 11.578125 -62.671875 L 43.5625 -62.671875 L 43.5625 -59 L 15.78125 -59 L 15.78125 -35.9375 L 41.203125 -35.9375 L 41.203125 -32.34375 L 15.78125 -32.34375 L 15.78125 0 Z M 11.578125 0 "/></g></g></g><g fill="#caa63e" fill-opacity="1"><g transform="translate(59.119347, 1656.917191)"><g><path d="M 16.609375 -8.328125 C 10.796875 -14.578125 7.890625 -22.257812 7.890625 -31.375 C 7.890625 -40.5 10.796875 -48.171875 16.609375 -54.390625 C 22.421875 -60.609375 29.769531 -63.71875 38.65625 -63.71875 C 47.539062 -63.71875 54.90625 -60.609375 60.75 -54.390625 C 66.59375 -48.171875 69.515625 -40.5 69.515625 -31.375 C 69.515625 -22.257812 66.59375 -14.578125 60.75 -8.328125 C 54.90625 -2.078125 47.539062 1.046875 38.65625 1.046875 C 29.769531 1.046875 22.421875 -2.078125 16.609375 -8.328125 Z M 19.71875 -51.671875 C 14.875 -46.210938 12.453125 -39.445312 12.453125 -31.375 C 12.453125 -23.3125 14.890625 -16.535156 19.765625 -11.046875 C 24.640625 -5.554688 30.945312 -2.8125 38.6875 -2.8125 C 46.4375 -2.8125 52.75 -5.554688 57.625 -11.046875 C 62.507812 -16.535156 64.953125 -23.3125 64.953125 -31.375 C 64.953125 -39.445312 62.507812 -46.210938 57.625 -51.671875 C 52.75 -57.140625 46.425781 -59.875 38.65625 -59.875 C 30.882812 -59.875 24.570312 -57.140625 19.71875 -51.671875 Z M 19.71875 -51.671875 "/></g></g></g><g fill="#caa63e" fill-opacity="1"><g transform="translate(146.683471, 1656.917191)"><g><path d="M 11.578125 0 L 11.578125 -62.40625 C 17.117188 -62.820312 21.765625 -63.03125 25.515625 -63.03125 C 31.472656 -63.03125 36.378906 -61.492188 40.234375 -58.421875 C 44.085938 -55.359375 46.015625 -51.019531 46.015625 -45.40625 C 46.015625 -41.601562 44.90625 -38.066406 42.6875 -34.796875 C 40.46875 -31.523438 37.984375 -28.925781 35.234375 -27 C 37.398438 -24.019531 40.070312 -20.46875 43.25 -16.34375 C 46.4375 -12.226562 48.5 -9.644531 49.4375 -8.59375 C 53 -4.789062 57.03125 -2.628906 61.53125 -2.109375 L 61.453125 0.703125 C 57.878906 0.640625 54.984375 0.0976562 52.765625 -0.921875 C 50.546875 -1.941406 48.425781 -3.503906 46.40625 -5.609375 C 44.394531 -7.710938 39.382812 -14.257812 31.375 -25.25 C 25.65625 -25.25 20.457031 -25.421875 15.78125 -25.765625 L 15.78125 0 Z M 28.84375 -28.75 C 31.414062 -28.75 34.160156 -30.441406 37.078125 -33.828125 C 40.003906 -37.222656 41.46875 -41.15625 41.46875 -45.625 C 41.46875 -50.09375 39.960938 -53.476562 36.953125 -55.78125 C 33.941406 -58.09375 29.953125 -59.25 24.984375 -59.25 C 22.347656 -59.25 19.28125 -59.132812 15.78125 -58.90625 L 15.78125 -29.1875 C 20.457031 -28.894531 24.8125 -28.75 28.84375 -28.75 Z M 28.84375 -28.75 "/></g></g></g><g fill="#caa63e" fill-opacity="1"><g transform="translate(214.525942, 1656.917191)"><g><path d="M 41.203125 -3.25 L 38.828125 -3.25 L 20.515625 -47.59375 C 19.460938 -50.050781 18.613281 -52.210938 17.96875 -54.078125 L 17.09375 -47.421875 L 9.90625 0 L 5.609375 0 L 15.953125 -63.203125 L 18.40625 -63.203125 L 37.953125 -16.75 C 38.953125 -14.582031 39.742188 -12.535156 40.328125 -10.609375 C 40.492188 -11.253906 41.398438 -13.269531 43.046875 -16.65625 L 64.859375 -63.203125 L 67.234375 -63.203125 L 76.78125 0 L 72.40625 0 L 65.5625 -47.59375 C 65.09375 -50.570312 64.859375 -52.820312 64.859375 -54.34375 C 64.804688 -54.289062 64.675781 -54.015625 64.46875 -53.515625 C 64.269531 -53.015625 63.921875 -52.191406 63.421875 -51.046875 C 62.921875 -49.910156 62.410156 -48.734375 61.890625 -47.515625 Z M 41.203125 -3.25 "/></g></g></g><g fill="#caa63e" fill-opacity="1"><g transform="translate(307.08622, 1656.917191)"><g><path d="M 14.90625 -21.734375 L 5.875 0 L 1.40625 0 L 27.78125 -63.109375 L 30.234375 -63.109375 L 56.71875 0 L 51.984375 0 L 42.953125 -21.734375 Z M 28.75 -56.09375 C 28.6875 -56.039062 28.570312 -55.691406 28.40625 -55.046875 C 27.582031 -52.535156 26.789062 -50.40625 26.03125 -48.65625 L 16.390625 -25.328125 L 41.46875 -25.328125 L 31.8125 -48.5625 C 29.769531 -53 28.75 -55.507812 28.75 -56.09375 Z M 28.75 -56.09375 "/></g></g></g><g fill="#caa63e" fill-opacity="1"><g transform="translate(374.490422, 1656.917191)"><g><path d="M 41.203125 1.046875 C 32.085938 1.046875 24.253906 -2.0625 17.703125 -8.28125 C 11.160156 -14.507812 7.890625 -22.195312 7.890625 -31.34375 C 7.890625 -40.488281 10.75 -48.171875 16.46875 -54.390625 C 22.195312 -60.609375 29.535156 -63.71875 38.484375 -63.71875 C 45.492188 -63.71875 52.59375 -62.550781 59.78125 -60.21875 L 58.640625 -56.71875 C 51.628906 -58.820312 44.910156 -59.875 38.484375 -59.875 C 30.828125 -59.875 24.570312 -57.125 19.71875 -51.625 C 14.875 -46.132812 12.453125 -39.414062 12.453125 -31.46875 C 12.453125 -23.519531 15.269531 -16.753906 20.90625 -11.171875 C 26.539062 -5.597656 33.304688 -2.8125 41.203125 -2.8125 C 48.097656 -2.8125 54.054688 -3.859375 59.078125 -5.953125 L 60.390625 -2.984375 C 58.171875 -1.691406 55.265625 -0.695312 51.671875 0 C 48.078125 0.695312 44.585938 1.046875 41.203125 1.046875 Z M 41.203125 1.046875 "/></g></g></g><g fill="#caa63e" fill-opacity="1"><g transform="translate(449.958593, 1656.917191)"><g><path d="M 11.578125 0 L 11.578125 -62.671875 L 15.78125 -62.671875 L 15.78125 0 Z M 11.578125 0 "/></g></g></g><g fill="#caa63e" fill-opacity="1"><g transform="translate(487.47353, 1656.917191)"><g><path d="M 16.609375 -8.328125 C 10.796875 -14.578125 7.890625 -22.257812 7.890625 -31.375 C 7.890625 -40.5 10.796875 -48.171875 16.609375 -54.390625 C 22.421875 -60.609375 29.769531 -63.71875 38.65625 -63.71875 C 47.539062 -63.71875 54.90625 -60.609375 60.75 -54.390625 C 66.59375 -48.171875 69.515625 -40.5 69.515625 -31.375 C 69.515625 -22.257812 66.59375 -14.578125 60.75 -8.328125 C 54.90625 -2.078125 47.539062 1.046875 38.65625 1.046875 C 29.769531 1.046875 22.421875 -2.078125 16.609375 -8.328125 Z M 19.71875 -51.671875 C 14.875 -46.210938 12.453125 -39.445312 12.453125 -31.375 C 12.453125 -23.3125 14.890625 -16.535156 19.765625 -11.046875 C 24.640625 -5.554688 30.945312 -2.8125 38.6875 -2.8125 C 46.4375 -2.8125 52.75 -5.554688 57.625 -11.046875 C 62.507812 -16.535156 64.953125 -23.3125 64.953125 -31.375 C 64.953125 -39.445312 62.507812 -46.210938 57.625 -51.671875 C 52.75 -57.140625 46.425781 -59.875 38.65625 -59.875 C 30.882812 -59.875 24.570312 -57.140625 19.71875 -51.671875 Z M 49.875 -71 L 37.078125 -66.359375 L 34.09375 -67.234375 L 49.34375 -75.640625 Z M 49.875 -71 "/></g></g></g><g fill="#caa63e" fill-opacity="1"><g transform="translate(575.037696, 1656.917191)"><g><path d="M 15.609375 -52.6875 L 15.78125 -45.234375 L 15.78125 0 L 11.578125 0 L 11.578125 -63.203125 L 13.5 -63.203125 L 54.78125 -15.609375 C 57.59375 -12.273438 59.753906 -9.613281 61.265625 -7.625 C 61.035156 -10.425781 60.921875 -13.640625 60.921875 -17.265625 L 60.921875 -62.671875 L 65.125 -62.671875 L 65.125 0.53125 L 63.203125 0.53125 L 21.125 -47.953125 C 18.207031 -51.273438 16.335938 -53.492188 15.515625 -54.609375 Z M 15.609375 -52.6875 "/></g></g></g><g fill="#caa63e" fill-opacity="1"><g transform="translate(661.900585, 1656.917191)"><g/></g></g><g fill="#caa63e" fill-opacity="1"><g transform="translate(703.622839, 1656.917191)"><g><path d="M 11.578125 0 L 11.578125 -62.328125 C 16.421875 -62.796875 21.125 -63.03125 25.6875 -63.03125 C 31.820312 -63.03125 36.742188 -61.597656 40.453125 -58.734375 C 44.160156 -55.867188 46.015625 -51.554688 46.015625 -45.796875 C 46.015625 -40.046875 43.488281 -35.3125 38.4375 -31.59375 C 33.382812 -27.882812 27.351562 -26.03125 20.34375 -26.03125 C 20.039062 -26.03125 19.71875 -26.03125 19.375 -26.03125 L 19.375 -28.921875 C 19.601562 -28.921875 19.804688 -28.921875 19.984375 -28.921875 C 25.765625 -28.921875 30.789062 -30.441406 35.0625 -33.484375 C 39.332031 -36.523438 41.46875 -40.484375 41.46875 -45.359375 C 41.46875 -50.242188 39.972656 -53.78125 36.984375 -55.96875 C 34.003906 -58.15625 30.003906 -59.25 24.984375 -59.25 C 22.347656 -59.25 19.28125 -59.132812 15.78125 -58.90625 L 15.78125 0 Z M 11.578125 0 "/></g></g></g><g fill="#caa63e" fill-opacity="1"><g transform="translate(760.596492, 1656.917191)"><g><path d="M 14.90625 -21.734375 L 5.875 0 L 1.40625 0 L 27.78125 -63.109375 L 30.234375 -63.109375 L 56.71875 0 L 51.984375 0 L 42.953125 -21.734375 Z M 28.75 -56.09375 C 28.6875 -56.039062 28.570312 -55.691406 28.40625 -55.046875 C 27.582031 -52.535156 26.789062 -50.40625 26.03125 -48.65625 L 16.390625 -25.328125 L 41.46875 -25.328125 L 31.8125 -48.5625 C 29.769531 -53 28.75 -55.507812 28.75 -56.09375 Z M 28.75 -56.09375 "/></g></g></g><g fill="#caa63e" fill-opacity="1"><g transform="translate(828.877205, 1656.917191)"><g><path d="M 11.578125 0 L 11.578125 -62.40625 C 17.117188 -62.820312 21.765625 -63.03125 25.515625 -63.03125 C 31.472656 -63.03125 36.378906 -61.492188 40.234375 -58.421875 C 44.085938 -55.359375 46.015625 -51.019531 46.015625 -45.40625 C 46.015625 -41.601562 44.90625 -38.066406 42.6875 -34.796875 C 40.46875 -31.523438 37.984375 -28.925781 35.234375 -27 C 37.398438 -24.019531 40.070312 -20.46875 43.25 -16.34375 C 46.4375 -12.226562 48.5 -9.644531 49.4375 -8.59375 C 53 -4.789062 57.03125 -2.628906 61.53125 -2.109375 L 61.453125 0.703125 C 57.878906 0.640625 54.984375 0.0976562 52.765625 -0.921875 C 50.546875 -1.941406 48.425781 -3.503906 46.40625 -5.609375 C 44.394531 -7.710938 39.382812 -14.257812 31.375 -25.25 C 25.65625 -25.25 20.457031 -25.421875 15.78125 -25.765625 L 15.78125 0 Z M 28.84375 -28.75 C 31.414062 -28.75 34.160156 -30.441406 37.078125 -33.828125 C 40.003906 -37.222656 41.46875 -41.15625 41.46875 -45.625 C 41.46875 -50.09375 39.960938 -53.476562 36.953125 -55.78125 C 33.941406 -58.09375 29.953125 -59.25 24.984375 -59.25 C 22.347656 -59.25 19.28125 -59.132812 15.78125 -58.90625 L 15.78125 -29.1875 C 20.457031 -28.894531 24.8125 -28.75 28.84375 -28.75 Z M 28.84375 -28.75 "/></g></g></g><g fill="#caa63e" fill-opacity="1"><g transform="translate(896.719676, 1656.917191)"><g><path d="M 14.90625 -21.734375 L 5.875 0 L 1.40625 0 L 27.78125 -63.109375 L 30.234375 -63.109375 L 56.71875 0 L 51.984375 0 L 42.953125 -21.734375 Z M 28.75 -56.09375 C 28.6875 -56.039062 28.570312 -55.691406 28.40625 -55.046875 C 27.582031 -52.535156 26.789062 -50.40625 26.03125 -48.65625 L 16.390625 -25.328125 L 41.46875 -25.328125 L 31.8125 -48.5625 C 29.769531 -53 28.75 -55.507812 28.75 -56.09375 Z M 28.75 -56.09375 "/></g></g></g><g fill="#caa63e" fill-opacity="1"><g transform="translate(965.000389, 1656.917191)"><g><path d="M 38.65625 -57.15625 C 34.382812 -58.96875 30.148438 -59.875 25.953125 -59.875 C 17.421875 -59.875 13.15625 -56.71875 13.15625 -50.40625 C 13.15625 -47.65625 14.117188 -45.097656 16.046875 -42.734375 C 17.972656 -40.367188 20.304688 -38.265625 23.046875 -36.421875 C 25.796875 -34.578125 28.539062 -32.691406 31.28125 -30.765625 C 34.03125 -28.835938 36.367188 -26.53125 38.296875 -23.84375 C 40.234375 -21.15625 41.203125 -18.234375 41.203125 -15.078125 C 41.203125 -9.753906 39.414062 -5.734375 35.84375 -3.015625 C 32.28125 -0.304688 27.359375 1.046875 21.078125 1.046875 C 14.796875 1.046875 9.4375 -0.554688 5 -3.765625 L 7.09375 -6.921875 C 11.300781 -4.179688 15.914062 -2.8125 20.9375 -2.8125 C 25.96875 -2.8125 29.828125 -3.816406 32.515625 -5.828125 C 35.203125 -7.847656 36.546875 -10.753906 36.546875 -14.546875 C 36.546875 -17.179688 35.582031 -19.679688 33.65625 -22.046875 C 31.726562 -24.410156 29.390625 -26.539062 26.640625 -28.4375 C 23.898438 -30.34375 21.15625 -32.285156 18.40625 -34.265625 C 15.65625 -36.253906 13.316406 -38.625 11.390625 -41.375 C 9.460938 -44.125 8.5 -47.078125 8.5 -50.234375 C 8.5 -54.378906 10.03125 -57.660156 13.09375 -60.078125 C 16.164062 -62.503906 20.316406 -63.71875 25.546875 -63.71875 C 30.773438 -63.71875 35.640625 -62.671875 40.140625 -60.578125 Z M 38.65625 -57.15625 "/></g></g></g><g fill="#caa63e" fill-opacity="1"><g transform="translate(1023.113502, 1656.917191)"><g><path d="M 14.90625 -21.734375 L 5.875 0 L 1.40625 0 L 27.78125 -63.109375 L 30.234375 -63.109375 L 56.71875 0 L 51.984375 0 L 42.953125 -21.734375 Z M 28.75 -56.09375 C 28.6875 -56.039062 28.570312 -55.691406 28.40625 -55.046875 C 27.582031 -52.535156 26.789062 -50.40625 26.03125 -48.65625 L 16.390625 -25.328125 L 41.46875 -25.328125 L 31.8125 -48.5625 C 29.769531 -53 28.75 -55.507812 28.75 -56.09375 Z M 28.75 -56.09375 "/></g></g></g><g fill="#caa63e" fill-opacity="1"><g transform="translate(1091.394215, 1656.917191)"><g><path d="M 15.609375 -52.6875 L 15.78125 -45.234375 L 15.78125 0 L 11.578125 0 L 11.578125 -63.203125 L 13.5 -63.203125 L 54.78125 -15.609375 C 57.59375 -12.273438 59.753906 -9.613281 61.265625 -7.625 C 61.035156 -10.425781 60.921875 -13.640625 60.921875 -17.265625 L 60.921875 -62.671875 L 65.125 -62.671875 L 65.125 0.53125 L 63.203125 0.53125 L 21.125 -47.953125 C 18.207031 -51.273438 16.335938 -53.492188 15.515625 -54.609375 Z M 15.609375 -52.6875 "/></g></g></g><g fill="#caa63e" fill-opacity="1"><g transform="translate(1178.257161, 1656.917191)"><g><path d="M 11.578125 0 L 11.578125 -62.671875 L 15.78125 -62.671875 L 15.78125 0 Z M 11.578125 0 "/></g></g></g><g fill="#caa63e" fill-opacity="1"><g transform="translate(1215.772154, 1656.917191)"><g><path d="M 23.140625 -59 L 1.921875 -59 L 1.921875 -62.671875 L 48.5625 -62.671875 L 48.5625 -59 L 27.34375 -59 L 27.34375 0 L 23.140625 0 Z M 23.140625 -59 "/></g></g></g><g fill="#caa63e" fill-opacity="1"><g transform="translate(1269.765553, 1656.917191)"><g><path d="M 14.90625 -21.734375 L 5.875 0 L 1.40625 0 L 27.78125 -63.109375 L 30.234375 -63.109375 L 56.71875 0 L 51.984375 0 L 42.953125 -21.734375 Z M 28.75 -56.09375 C 28.6875 -56.039062 28.570312 -55.691406 28.40625 -55.046875 C 27.582031 -52.535156 26.789062 -50.40625 26.03125 -48.65625 L 16.390625 -25.328125 L 41.46875 -25.328125 L 31.8125 -48.5625 C 29.769531 -53 28.75 -55.507812 28.75 -56.09375 Z M 28.75 -56.09375 "/></g></g></g><g fill="#caa63e" fill-opacity="1"><g transform="translate(1338.046266, 1656.917191)"><g><path d="M 11.578125 0 L 11.578125 -62.40625 C 17.117188 -62.820312 21.765625 -63.03125 25.515625 -63.03125 C 31.472656 -63.03125 36.378906 -61.492188 40.234375 -58.421875 C 44.085938 -55.359375 46.015625 -51.019531 46.015625 -45.40625 C 46.015625 -41.601562 44.90625 -38.066406 42.6875 -34.796875 C 40.46875 -31.523438 37.984375 -28.925781 35.234375 -27 C 37.398438 -24.019531 40.070312 -20.46875 43.25 -16.34375 C 46.4375 -12.226562 48.5 -9.644531 49.4375 -8.59375 C 53 -4.789062 57.03125 -2.628906 61.53125 -2.109375 L 61.453125 0.703125 C 57.878906 0.640625 54.984375 0.0976562 52.765625 -0.921875 C 50.546875 -1.941406 48.425781 -3.503906 46.40625 -5.609375 C 44.394531 -7.710938 39.382812 -14.257812 31.375 -25.25 C 25.65625 -25.25 20.457031 -25.421875 15.78125 -25.765625 L 15.78125 0 Z M 28.84375 -28.75 C 31.414062 -28.75 34.160156 -30.441406 37.078125 -33.828125 C 40.003906 -37.222656 41.46875 -41.15625 41.46875 -45.625 C 41.46875 -50.09375 39.960938 -53.476562 36.953125 -55.78125 C 33.941406 -58.09375 29.953125 -59.25 24.984375 -59.25 C 22.347656 -59.25 19.28125 -59.132812 15.78125 -58.90625 L 15.78125 -29.1875 C 20.457031 -28.894531 24.8125 -28.75 28.84375 -28.75 Z M 28.84375 -28.75 "/></g></g></g><g fill="#caa63e" fill-opacity="1"><g transform="translate(1405.888738, 1656.917191)"><g><path d="M 11.578125 0 L 11.578125 -62.671875 L 15.78125 -62.671875 L 15.78125 0 Z M 11.578125 0 "/></g></g></g><g fill="#caa63e" fill-opacity="1"><g transform="translate(1443.403731, 1656.917191)"><g><path d="M 14.90625 -21.734375 L 5.875 0 L 1.40625 0 L 27.78125 -63.109375 L 30.234375 -63.109375 L 56.71875 0 L 51.984375 0 L 42.953125 -21.734375 Z M 28.75 -56.09375 C 28.6875 -56.039062 28.570312 -55.691406 28.40625 -55.046875 C 27.582031 -52.535156 26.789062 -50.40625 26.03125 -48.65625 L 16.390625 -25.328125 L 41.46875 -25.328125 L 31.8125 -48.5625 C 29.769531 -53 28.75 -55.507812 28.75 -56.09375 Z M 28.75 -56.09375 "/></g></g></g><g fill="#caa63e" fill-opacity="1"><g transform="translate(0.177827, 1533.323779)"><g><path d="M 10.953125 0 L 10.953125 -2.890625 L 14.703125 -2.890625 C 30.460938 -2.890625 38.34375 -9.804688 38.34375 -23.640625 L 38.34375 -183.390625 C 38.34375 -196.460938 30.460938 -203 14.703125 -203 L 10.953125 -203 L 10.953125 -205.875 L 156 -205.875 L 157.71875 -155.421875 L 154.84375 -155.421875 L 154.265625 -164.9375 C 153.304688 -179.351562 149.941406 -189.300781 144.171875 -194.78125 C 138.398438 -200.257812 128.210938 -203 113.609375 -203 L 67.46875 -203 L 67.46875 -109.28125 L 139.84375 -109.28125 L 139.84375 -106.40625 L 67.46875 -106.40625 L 67.46875 -2.890625 L 120.8125 -2.890625 C 131.195312 -2.890625 139.414062 -4.039062 145.46875 -6.34375 C 151.519531 -8.644531 155.988281 -12.582031 158.875 -18.15625 C 161.757812 -23.738281 163.488281 -31.332031 164.0625 -40.9375 L 164.640625 -50.453125 L 167.53125 -50.453125 L 165.515625 0 Z M 10.953125 0 "/></g></g></g><g fill="#caa63e" fill-opacity="1"><g transform="translate(306.682051, 1533.323779)"><g><path d="M 90.546875 0 L 24.515625 -187.421875 C 22.398438 -193.378906 19.898438 -197.460938 17.015625 -199.671875 C 14.128906 -201.890625 9.707031 -203 3.75 -203 L 0 -203 L 0 -205.875 L 79.296875 -205.875 L 79.296875 -203 L 72.375 -203 C 66.21875 -203 61.695312 -202.179688 58.8125 -200.546875 C 55.9375 -198.910156 54.5 -196.070312 54.5 -192.03125 C 54.5 -188.1875 55.457031 -183.671875 57.375 -178.484375 L 93.140625 -75.546875 C 99.867188 -56.515625 105.054688 -39.789062 108.703125 -25.375 C 110.816406 -32.675781 113.316406 -40.796875 116.203125 -49.734375 C 119.085938 -58.671875 121.875 -67.273438 124.5625 -75.546875 L 157.4375 -176.171875 C 158.394531 -179.253906 159.160156 -181.945312 159.734375 -184.25 C 160.316406 -186.5625 160.609375 -188.675781 160.609375 -190.59375 C 160.609375 -195.207031 159.019531 -198.425781 155.84375 -200.25 C 152.675781 -202.082031 147.820312 -203 141.28125 -203 L 124.28125 -203 L 124.28125 -205.875 L 194.625 -205.875 L 194.625 -203 L 184.25 -203 C 178.675781 -203 174.347656 -201.363281 171.265625 -198.09375 C 168.191406 -194.820312 165.3125 -189.054688 162.625 -180.796875 L 102.9375 0 Z M 90.546875 0 "/></g></g></g><g fill="#caa63e" fill-opacity="1"><g transform="translate(610.879544, 1533.323779)"><g><path d="M 0 0 L 0 -2.890625 L 8.359375 -2.890625 C 14.515625 -2.890625 19.367188 -4.519531 22.921875 -7.78125 C 26.472656 -11.050781 29.691406 -16.914062 32.578125 -25.375 L 95.4375 -205.875 L 110.140625 -205.875 L 182.515625 -18.171875 C 184.628906 -12.398438 186.9375 -8.410156 189.4375 -6.203125 C 191.9375 -3.992188 195.300781 -2.890625 199.53125 -2.890625 L 203.28125 -2.890625 L 203.28125 0 L 123.984375 0 L 123.984375 -2.890625 L 130.625 -2.890625 C 137.925781 -2.890625 143.207031 -3.753906 146.46875 -5.484375 C 149.738281 -7.210938 151.375 -10.285156 151.375 -14.703125 C 151.375 -16.242188 151.179688 -18.117188 150.796875 -20.328125 C 150.421875 -22.535156 149.75 -24.890625 148.78125 -27.390625 L 131.203125 -74.6875 L 53.0625 -74.6875 L 37.203125 -29.40625 C 35.460938 -24.414062 34.59375 -20.285156 34.59375 -17.015625 C 34.59375 -11.828125 36.898438 -8.175781 41.515625 -6.0625 C 46.128906 -3.945312 53.53125 -2.890625 63.71875 -2.890625 L 70.359375 -2.890625 L 70.359375 0 Z M 53.921875 -77.5625 L 130.046875 -77.5625 L 109 -133.796875 C 101.5 -153.210938 95.535156 -170.507812 91.109375 -185.6875 C 89.191406 -179.925781 87.507812 -174.832031 86.0625 -170.40625 C 84.625 -165.988281 83.085938 -161.328125 81.453125 -156.421875 C 79.816406 -151.523438 77.75 -145.613281 75.25 -138.6875 Z M 53.921875 -77.5625 "/></g></g></g><g fill="#caa63e" fill-opacity="1"><g transform="translate(946.794169, 1533.323779)"><g><path d="M 10.953125 0 L 10.953125 -2.890625 L 19.3125 -2.890625 C 35.082031 -2.890625 42.96875 -9.804688 42.96875 -23.640625 L 42.96875 -183.390625 C 42.96875 -196.460938 35.082031 -203 19.3125 -203 L 10.953125 -203 L 10.953125 -205.875 L 67.1875 -205.875 L 177.046875 -41.234375 L 177.046875 -182.234375 C 177.046875 -196.078125 169.164062 -203 153.40625 -203 L 145.328125 -203 L 145.328125 -205.875 L 211.9375 -205.875 L 211.9375 -203 L 203.578125 -203 C 187.804688 -203 179.921875 -196.078125 179.921875 -182.234375 L 179.921875 0 L 171.28125 0 L 45.84375 -188 L 45.84375 -23.640625 C 45.84375 -9.804688 53.722656 -2.890625 69.484375 -2.890625 L 77.5625 -2.890625 L 77.5625 0 Z M 10.953125 0 "/></g></g></g><g fill="#caa63e" fill-opacity="1"><g transform="translate(1299.432407, 1533.323779)"><g><path d="M 0 0 L 0 -2.890625 L 8.359375 -2.890625 C 14.515625 -2.890625 19.367188 -4.519531 22.921875 -7.78125 C 26.472656 -11.050781 29.691406 -16.914062 32.578125 -25.375 L 95.4375 -205.875 L 110.140625 -205.875 L 182.515625 -18.171875 C 184.628906 -12.398438 186.9375 -8.410156 189.4375 -6.203125 C 191.9375 -3.992188 195.300781 -2.890625 199.53125 -2.890625 L 203.28125 -2.890625 L 203.28125 0 L 123.984375 0 L 123.984375 -2.890625 L 130.625 -2.890625 C 137.925781 -2.890625 143.207031 -3.753906 146.46875 -5.484375 C 149.738281 -7.210938 151.375 -10.285156 151.375 -14.703125 C 151.375 -16.242188 151.179688 -18.117188 150.796875 -20.328125 C 150.421875 -22.535156 149.75 -24.890625 148.78125 -27.390625 L 131.203125 -74.6875 L 53.0625 -74.6875 L 37.203125 -29.40625 C 35.460938 -24.414062 34.59375 -20.285156 34.59375 -17.015625 C 34.59375 -11.828125 36.898438 -8.175781 41.515625 -6.0625 C 46.128906 -3.945312 53.53125 -2.890625 63.71875 -2.890625 L 70.359375 -2.890625 L 70.359375 0 Z M 53.921875 -77.5625 L 130.046875 -77.5625 L 109 -133.796875 C 101.5 -153.210938 95.535156 -170.507812 91.109375 -185.6875 C 89.191406 -179.925781 87.507812 -174.832031 86.0625 -170.40625 C 84.625 -165.988281 83.085938 -161.328125 81.453125 -156.421875 C 79.816406 -151.523438 77.75 -145.613281 75.25 -138.6875 Z M 53.921875 -77.5625 "/></g></g></g><g clip-path="url(#60c790d3b8)"><g clip-path="url(#f536b72da1)"><g transform="matrix(1, 0, 0, 1, 258, 610)"><g clip-path="url(#84b3862723)"><g clip-path="url(#ac96efe5f9)"><g clip-path="url(#2175ec37ab)"><path fill="#caa63e" d="M 0.113281 0.8125 L 21.722656 0.8125 L 21.722656 22.425781 L 0.113281 22.425781 Z M 0.113281 0.8125 " fill-opacity="1" fill-rule="nonzero"/></g></g></g></g></g></g><g clip-path="url(#db5cd38afa)"><g clip-path="url(#5c1fffb3f9)"><g transform="matrix(1, 0, 0, 1, 299, 609)"><g clip-path="url(#6ad5d363e4)"><g clip-path="url(#6fa85fe023)"><g clip-path="url(#f4b4eb8c74)"><path fill="#caa63e" d="M 0.00390625 0.84375 L 23.558594 0.84375 L 23.558594 24.394531 L 0.00390625 24.394531 Z M 0.00390625 0.84375 " fill-opacity="1" fill-rule="nonzero"/></g></g></g></g></g></g><g clip-path="url(#1a79632807)"><g clip-path="url(#3081ba0d99)"><g transform="matrix(1, 0, 0, 1, 1201, 614)"><g clip-path="url(#c7394cbfe9)"><g clip-path="url(#958427c4ce)"><g clip-path="url(#e779a9ed64)"><path fill="#caa63e" d="M 0.246094 0.175781 L 15.136719 0.175781 L 15.136719 15.0625 L 0.246094 15.0625 Z M 0.246094 0.175781 " fill-opacity="1" fill-rule="nonzero"/></g></g></g></g></g></g><g clip-path="url(#326f76f966)"><g clip-path="url(#e871e50031)"><g transform="matrix(1, 0, 0, 1, 1055, 606)"><g clip-path="url(#10a79c3bb3)"><g clip-path="url(#1c9410e6d3)"><g clip-path="url(#e26f4cbdd9)"><path fill="#caa63e" d="M 0.375 0.480469 L 30.65625 0.480469 L 30.65625 30.761719 L 0.375 30.761719 Z M 0.375 0.480469 " fill-opacity="1" fill-rule="nonzero"/></g></g></g></g></g></g><g clip-path="url(#ee0a28c91d)"><g clip-path="url(#612d83c84f)"><g transform="matrix(1, 0, 0, 1, 1108, 609)"><g clip-path="url(#b5ebe2d1b7)"><g clip-path="url(#25990758c2)"><g clip-path="url(#80b47e8d6e)"><path fill="#caa63e" d="M 0.808594 0.359375 L 25.332031 0.359375 L 25.332031 24.882812 L 0.808594 24.882812 Z M 0.808594 0.359375 " fill-opacity="1" fill-rule="nonzero"/></g></g></g></g></g></g><g clip-path="url(#748a2c4fbb)"><g clip-path="url(#8ae25e59c0)"><g transform="matrix(1, 0, 0, 1, 1156, 610)"><g clip-path="url(#0ca124c7f3)"><g clip-path="url(#b17cd95f60)"><g clip-path="url(#a51bf2cfa6)"><path fill="#caa63e" d="M 0.484375 0.8125 L 22.09375 0.8125 L 22.09375 22.425781 L 0.484375 22.425781 Z M 0.484375 0.8125 " fill-opacity="1" fill-rule="nonzero"/></g></g></g></g></g></g></g></g></g></g></g></svg>