<svg xmlns="http://www.w3.org/2000/svg" xmlns:xlink="http://www.w3.org/1999/xlink" width="2380" zoomAndPan="magnify" viewBox="0 0 1784.88 1784.99993" height="2380" preserveAspectRatio="xMidYMid meet" version="1.0"><defs><g/><clipPath id="e5e96bc14e"><path d="M 0 0.0585938 L 1784.761719 0.0585938 L 1784.761719 1784.9375 L 0 1784.9375 Z M 0 0.0585938 " clip-rule="nonzero"/></clipPath><clipPath id="a9c4283e4f"><path d="M 0 0.0585938 L 1784.761719 0.0585938 L 1784.761719 1784.9375 L 0 1784.9375 Z M 0 0.0585938 " clip-rule="nonzero"/></clipPath><clipPath id="7d70a68317"><path d="M 555.980469 630.769531 L 580.855469 630.769531 L 580.855469 655.644531 L 555.980469 655.644531 Z M 555.980469 630.769531 " clip-rule="nonzero"/></clipPath><clipPath id="5b1afbb912"><path d="M 568.417969 630.769531 C 561.550781 630.769531 555.980469 636.339844 555.980469 643.207031 C 555.980469 650.074219 561.550781 655.644531 568.417969 655.644531 C 575.285156 655.644531 580.855469 650.074219 580.855469 643.207031 C 580.855469 636.339844 575.285156 630.769531 568.417969 630.769531 Z M 568.417969 630.769531 " clip-rule="nonzero"/></clipPath><clipPath id="229fada92e"><path d="M 0.980469 0.769531 L 25.855469 0.769531 L 25.855469 25.644531 L 0.980469 25.644531 Z M 0.980469 0.769531 " clip-rule="nonzero"/></clipPath><clipPath id="25a8d36659"><path d="M 13.417969 0.769531 C 6.550781 0.769531 0.980469 6.339844 0.980469 13.207031 C 0.980469 20.074219 6.550781 25.644531 13.417969 25.644531 C 20.285156 25.644531 25.855469 20.074219 25.855469 13.207031 C 25.855469 6.339844 20.285156 0.769531 13.417969 0.769531 Z M 13.417969 0.769531 " clip-rule="nonzero"/></clipPath><clipPath id="e7fac43886"><rect x="0" width="26" y="0" height="26"/></clipPath><clipPath id="69fc2b1329"><path d="M 487.203125 634.332031 L 504.957031 634.332031 L 504.957031 652.082031 L 487.203125 652.082031 Z M 487.203125 634.332031 " clip-rule="nonzero"/></clipPath><clipPath id="4a9aa71116"><path d="M 496.082031 634.332031 C 491.179688 634.332031 487.203125 638.304688 487.203125 643.207031 C 487.203125 648.109375 491.179688 652.082031 496.082031 652.082031 C 500.984375 652.082031 504.957031 648.109375 504.957031 643.207031 C 504.957031 638.304688 500.984375 634.332031 496.082031 634.332031 Z M 496.082031 634.332031 " clip-rule="nonzero"/></clipPath><clipPath id="8910c1ef73"><path d="M 0.203125 0.332031 L 17.957031 0.332031 L 17.957031 18.082031 L 0.203125 18.082031 Z M 0.203125 0.332031 " clip-rule="nonzero"/></clipPath><clipPath id="fc4b0796b1"><path d="M 9.082031 0.332031 C 4.179688 0.332031 0.203125 4.304688 0.203125 9.207031 C 0.203125 14.109375 4.179688 18.082031 9.082031 18.082031 C 13.984375 18.082031 17.957031 14.109375 17.957031 9.207031 C 17.957031 4.304688 13.984375 0.332031 9.082031 0.332031 Z M 9.082031 0.332031 " clip-rule="nonzero"/></clipPath><clipPath id="a972faf304"><rect x="0" width="18" y="0" height="19"/></clipPath><clipPath id="364152a07d"><path d="M 520.796875 633.535156 L 540.140625 633.535156 L 540.140625 652.878906 L 520.796875 652.878906 Z M 520.796875 633.535156 " clip-rule="nonzero"/></clipPath><clipPath id="c6b2a09449"><path d="M 530.46875 633.535156 C 525.125 633.535156 520.796875 637.863281 520.796875 643.207031 C 520.796875 648.550781 525.125 652.878906 530.46875 652.878906 C 535.8125 652.878906 540.140625 648.550781 540.140625 643.207031 C 540.140625 637.863281 535.8125 633.535156 530.46875 633.535156 Z M 530.46875 633.535156 " clip-rule="nonzero"/></clipPath><clipPath id="da22231180"><path d="M 0.796875 0.535156 L 20.140625 0.535156 L 20.140625 19.878906 L 0.796875 19.878906 Z M 0.796875 0.535156 " clip-rule="nonzero"/></clipPath><clipPath id="5575d22d65"><path d="M 10.46875 0.535156 C 5.125 0.535156 0.796875 4.863281 0.796875 10.207031 C 0.796875 15.550781 5.125 19.878906 10.46875 19.878906 C 15.8125 19.878906 20.140625 15.550781 20.140625 10.207031 C 20.140625 4.863281 15.8125 0.535156 10.46875 0.535156 Z M 10.46875 0.535156 " clip-rule="nonzero"/></clipPath><clipPath id="7b3ffb7410"><rect x="0" width="21" y="0" height="20"/></clipPath><clipPath id="e80587637c"><path d="M 1261.925781 637.089844 L 1274.15625 637.089844 L 1274.15625 649.320312 L 1261.925781 649.320312 Z M 1261.925781 637.089844 " clip-rule="nonzero"/></clipPath><clipPath id="500a05f8e9"><path d="M 1268.039062 637.089844 C 1264.664062 637.089844 1261.925781 639.828125 1261.925781 643.207031 C 1261.925781 646.582031 1264.664062 649.320312 1268.039062 649.320312 C 1271.417969 649.320312 1274.15625 646.582031 1274.15625 643.207031 C 1274.15625 639.828125 1271.417969 637.089844 1268.039062 637.089844 Z M 1268.039062 637.089844 " clip-rule="nonzero"/></clipPath><clipPath id="5ad53b3df7"><path d="M 0.925781 0.0898438 L 13.15625 0.0898438 L 13.15625 12.320312 L 0.925781 12.320312 Z M 0.925781 0.0898438 " clip-rule="nonzero"/></clipPath><clipPath id="3ccc0fc255"><path d="M 7.039062 0.0898438 C 3.664062 0.0898438 0.925781 2.828125 0.925781 6.207031 C 0.925781 9.582031 3.664062 12.320312 7.039062 12.320312 C 10.417969 12.320312 13.15625 9.582031 13.15625 6.207031 C 13.15625 2.828125 10.417969 0.0898438 7.039062 0.0898438 Z M 7.039062 0.0898438 " clip-rule="nonzero"/></clipPath><clipPath id="1094d63151"><rect x="0" width="14" y="0" height="13"/></clipPath><clipPath id="57bfc45fe7"><path d="M 1142.101562 630.769531 L 1166.976562 630.769531 L 1166.976562 655.644531 L 1142.101562 655.644531 Z M 1142.101562 630.769531 " clip-rule="nonzero"/></clipPath><clipPath id="7087647f97"><path d="M 1154.539062 630.769531 C 1147.671875 630.769531 1142.101562 636.339844 1142.101562 643.207031 C 1142.101562 650.074219 1147.671875 655.644531 1154.539062 655.644531 C 1161.40625 655.644531 1166.976562 650.074219 1166.976562 643.207031 C 1166.976562 636.339844 1161.40625 630.769531 1154.539062 630.769531 Z M 1154.539062 630.769531 " clip-rule="nonzero"/></clipPath><clipPath id="c2c63e79c3"><path d="M 0.101562 0.769531 L 24.976562 0.769531 L 24.976562 25.644531 L 0.101562 25.644531 Z M 0.101562 0.769531 " clip-rule="nonzero"/></clipPath><clipPath id="c508a9436c"><path d="M 12.539062 0.769531 C 5.671875 0.769531 0.101562 6.339844 0.101562 13.207031 C 0.101562 20.074219 5.671875 25.644531 12.539062 25.644531 C 19.40625 25.644531 24.976562 20.074219 24.976562 13.207031 C 24.976562 6.339844 19.40625 0.769531 12.539062 0.769531 Z M 12.539062 0.769531 " clip-rule="nonzero"/></clipPath><clipPath id="44d453974b"><rect x="0" width="25" y="0" height="26"/></clipPath><clipPath id="cafda53e79"><path d="M 1185.992188 633.132812 L 1206.136719 633.132812 L 1206.136719 653.277344 L 1185.992188 653.277344 Z M 1185.992188 633.132812 " clip-rule="nonzero"/></clipPath><clipPath id="46258f0131"><path d="M 1196.066406 633.132812 C 1190.503906 633.132812 1185.992188 637.644531 1185.992188 643.207031 C 1185.992188 648.769531 1190.503906 653.277344 1196.066406 653.277344 C 1201.628906 653.277344 1206.136719 648.769531 1206.136719 643.207031 C 1206.136719 637.644531 1201.628906 633.132812 1196.066406 633.132812 Z M 1196.066406 633.132812 " clip-rule="nonzero"/></clipPath><clipPath id="e4934c7231"><path d="M 0.992188 0.132812 L 21.136719 0.132812 L 21.136719 20.277344 L 0.992188 20.277344 Z M 0.992188 0.132812 " clip-rule="nonzero"/></clipPath><clipPath id="4e5e62323f"><path d="M 11.066406 0.132812 C 5.503906 0.132812 0.992188 4.644531 0.992188 10.207031 C 0.992188 15.769531 5.503906 20.277344 11.066406 20.277344 C 16.628906 20.277344 21.136719 15.769531 21.136719 10.207031 C 21.136719 4.644531 16.628906 0.132812 11.066406 0.132812 Z M 11.066406 0.132812 " clip-rule="nonzero"/></clipPath><clipPath id="56bc284446"><rect x="0" width="22" y="0" height="21"/></clipPath><clipPath id="6d201e3301"><path d="M 1225.15625 634.332031 L 1242.90625 634.332031 L 1242.90625 652.082031 L 1225.15625 652.082031 Z M 1225.15625 634.332031 " clip-rule="nonzero"/></clipPath><clipPath id="92b5cc403e"><path d="M 1234.03125 634.332031 C 1229.128906 634.332031 1225.15625 638.304688 1225.15625 643.207031 C 1225.15625 648.109375 1229.128906 652.082031 1234.03125 652.082031 C 1238.933594 652.082031 1242.90625 648.109375 1242.90625 643.207031 C 1242.90625 638.304688 1238.933594 634.332031 1234.03125 634.332031 Z M 1234.03125 634.332031 " clip-rule="nonzero"/></clipPath><clipPath id="fb4d438112"><path d="M 0.15625 0.332031 L 17.90625 0.332031 L 17.90625 18.082031 L 0.15625 18.082031 Z M 0.15625 0.332031 " clip-rule="nonzero"/></clipPath><clipPath id="2dfc779a0d"><path d="M 9.03125 0.332031 C 4.128906 0.332031 0.15625 4.304688 0.15625 9.207031 C 0.15625 14.109375 4.128906 18.082031 9.03125 18.082031 C 13.933594 18.082031 17.90625 14.109375 17.90625 9.207031 C 17.90625 4.304688 13.933594 0.332031 9.03125 0.332031 Z M 9.03125 0.332031 " clip-rule="nonzero"/></clipPath><clipPath id="84ded8a1cd"><rect x="0" width="18" y="0" height="19"/></clipPath><clipPath id="d285b30623"><rect x="0" width="1785" y="0" height="1785"/></clipPath></defs><g clip-path="url(#e5e96bc14e)"><path fill="#ffffff" d="M 0 0.0585938 L 1784.878906 0.0585938 L 1784.878906 1784.941406 L 0 1784.941406 Z M 0 0.0585938 " fill-opacity="1" fill-rule="nonzero"/><g transform="matrix(1, 0, 0, 1, 0, -0.000000000000097387)"><g clip-path="url(#d285b30623)"><g clip-path="url(#a9c4283e4f)"><path fill="#0c0c0c" d="M 0 0.0585938 L 1785 0.0585938 L 1785 1785.058594 L 0 1785.058594 Z M 0 0.0585938 " fill-opacity="1" fill-rule="nonzero"/></g><path fill="#caa63e" d="M 859.9375 168.011719 C 897.550781 165.957031 935.277344 168.003906 972.445312 174.109375 C 1095.066406 193.707031 1204.847656 261.304688 1277.574219 361.984375 C 1350.128906 463.222656 1381.800781 587.226562 1361.234375 710.5625 C 1349.539062 780.695312 1321.246094 850.285156 1278.582031 907.316406 C 1272.730469 915.136719 1264.703125 927.621094 1256.558594 932.960938 C 1252.753906 935.457031 1249.460938 936.472656 1245.050781 935.644531 C 1244.191406 932.804688 1244.347656 931.929688 1245.882812 929.285156 C 1250.089844 922.023438 1257.085938 914.867188 1262.328125 908.171875 C 1270.886719 897.175781 1278.882812 885.746094 1286.289062 873.9375 C 1300.085938 851.773438 1312.042969 828.515625 1322.03125 804.398438 C 1367.316406 693.226562 1365.90625 568.488281 1318.09375 458.375 C 1270.558594 346.566406 1180.457031 258.304688 1067.714844 213.089844 C 950.285156 166.464844 819.195312 168.136719 702.988281 217.738281 C 589.90625 266.285156 501.269531 358.527344 457.246094 473.476562 C 414.394531 584.152344 417.0625 707.289062 464.667969 816.003906 C 512.328125 924.792969 600.898438 1010.429688 711.210938 1054.378906 C 705.414062 1042.289062 699.3125 1030.585938 695.324219 1017.726562 C 680.800781 970.910156 699.90625 931.378906 729.210938 895.871094 C 744.976562 876.769531 758.941406 858.664062 761.714844 832.996094 C 765.84375 794.804688 745.585938 741.84375 721.3125 712.089844 C 713.269531 742.410156 702.792969 772.035156 695.574219 802.585938 C 689.949219 826.378906 688.695312 852.175781 680.066406 875.121094 C 669.476562 903.273438 652.628906 928.933594 638.71875 955.523438 C 633.125 966.210938 626.304688 985.472656 616.371094 992.476562 L 613.660156 991.820312 C 609.757812 981.847656 633.441406 942.867188 639.210938 932.675781 C 650.230469 913.214844 662.472656 894.144531 669.945312 872.9375 C 678.472656 848.738281 679.628906 821.660156 685.410156 796.628906 C 694.214844 758.53125 709.242188 721.171875 713.195312 682.136719 C 752.828125 727.039062 791.246094 809.714844 761.957031 867.925781 C 755.269531 881.210938 745.929688 891.300781 736.503906 902.554688 C 715.769531 927.304688 700.734375 954.535156 699.695312 987.527344 C 703.640625 1016.480469 712.964844 1036.945312 727.835938 1061.660156 C 803.78125 1087.714844 880.550781 1095.785156 960.203125 1084.226562 C 976.765625 1081.824219 996.292969 1079.453125 1011.753906 1072.871094 C 967.683594 1069.152344 923.699219 1064.484375 879.832031 1058.863281 C 855.300781 1055.734375 830.097656 1050.429688 805.433594 1049.753906 C 796.34375 1055.78125 786.488281 1062.019531 775.019531 1059.589844 C 769.488281 1058.417969 764.933594 1054.996094 762.085938 1050.132812 C 758.554688 1044.097656 757.945312 1036.664062 759.917969 1030.015625 C 761.59375 1024.355469 765.300781 1019.230469 770.621094 1016.519531 C 786.777344 1008.269531 802.964844 1029.789062 819.917969 1035.308594 C 832.171875 1039.378906 844.695312 1042.605469 857.386719 1044.96875 C 887.394531 1050.285156 1016.214844 1066.058594 1042.425781 1061.433594 C 1071.773438 1056.253906 1101.191406 1038.691406 1127.574219 1025.414062 C 1123.761719 1023.484375 1119.902344 1021.65625 1115.996094 1019.925781 C 1058.269531 994.734375 943.914062 979.039062 883.390625 997.648438 C 864.179688 1003.554688 849.246094 1018.28125 830.703125 1025.261719 L 829.4375 1025.722656 C 823.132812 1023.8125 816.460938 1021.71875 811.542969 1017.105469 C 793.109375 999.816406 823.511719 976.835938 821.621094 957.800781 C 820.617188 947.703125 811.980469 936.222656 803.894531 930.546875 C 800.851562 928.410156 799.792969 928.417969 796.292969 929.203125 C 794.410156 935.722656 801.699219 945.957031 804.710938 951.789062 C 807.910156 957.980469 809.238281 964.984375 806.914062 971.753906 C 804.023438 980.179688 793.132812 1008.695312 785.574219 1012.351562 C 785.324219 1012.082031 785.03125 1011.847656 784.820312 1011.546875 C 780.835938 1005.8125 784.738281 991.886719 785.675781 985.289062 C 785.296875 984.363281 784.890625 983.472656 784.484375 982.558594 C 775.660156 962.742188 749.472656 944.257812 753.535156 920.128906 C 754.480469 914.519531 757.722656 908.542969 762.585938 905.417969 C 773.296875 898.523438 797.953125 911.140625 811.0625 913.609375 C 814.390625 916.511719 817.394531 919.8125 820.230469 923.191406 C 829.289062 934.003906 836.085938 948.9375 834.582031 963.320312 C 833.242188 976.144531 826.199219 982.40625 816.613281 990.097656 C 821.640625 988.527344 826.644531 986.882812 831.621094 985.160156 C 841.441406 981.695312 850.347656 974.441406 854.757812 964.894531 C 857.957031 957.96875 858.304688 950.902344 855.53125 943.722656 C 851.71875 933.867188 847.382812 932.582031 838.800781 928.183594 C 835.429688 926.457031 835.007812 925.34375 833.875 922.003906 C 834.664062 919.980469 834.894531 918.960938 836.523438 917.535156 C 839.269531 915.128906 843.96875 913.148438 847.6875 913.734375 C 856.683594 915.144531 867.875 926.140625 872.398438 933.640625 C 877.917969 942.800781 880.492188 955.148438 877.46875 965.574219 C 872.894531 981.363281 854.976562 991.394531 840.023438 995.117188 C 833.023438 996.855469 823.585938 997.175781 817.371094 1001.019531 C 814.949219 1002.515625 814.859375 1003.015625 814.195312 1005.726562 C 814.933594 1007.394531 815.550781 1008.414062 816.949219 1009.640625 C 820.761719 1012.976562 825.835938 1015.703125 831.0625 1014.605469 C 840.164062 1012.691406 852.429688 1001.523438 860.628906 996.796875 C 883.976562 983.332031 908.46875 981.261719 934.660156 979.398438 C 935.714844 939.707031 947.679688 892.445312 955.886719 853.480469 C 962.832031 820.515625 968.652344 787.359375 977.035156 754.707031 C 982.148438 734.777344 1003.386719 695.949219 1001.945312 678.417969 C 1000.269531 658.023438 981.90625 643.574219 977.558594 623.832031 C 976.011719 616.796875 976.832031 610.785156 980.757812 604.613281 L 982.089844 605.015625 C 988.277344 613.980469 988.675781 626.816406 993.207031 636.773438 C 997.757812 646.777344 1005.921875 655.011719 1010.695312 665.140625 C 1022.726562 690.65625 1004.953125 706.753906 996.570312 730.3125 C 1002.359375 752.960938 1014.0625 772.777344 1023.785156 793.789062 C 1032.273438 812.128906 1039.707031 831.554688 1050.351562 848.765625 C 1079.003906 895.09375 1130.753906 926.425781 1171.695312 960.949219 C 1179.222656 967.296875 1190.503906 977.171875 1190.816406 987.902344 C 1190.945312 992.359375 1188.386719 996.332031 1185.570312 999.574219 C 1175.121094 1011.601562 1157.84375 1021.03125 1144.269531 1029.167969 C 1077.082031 1070.160156 1001.0625 1094.472656 922.566406 1100.070312 C 796.164062 1109.269531 671.25 1068.09375 575.078125 985.527344 C 481.019531 904.90625 423.4375 789.753906 415.355469 666.117188 C 407.355469 544.078125 447.59375 423.78125 527.398438 331.125 C 612.554688 232.953125 731.015625 177.144531 859.9375 168.011719 Z M 946.484375 978.703125 C 1012.140625 978.246094 1079.097656 987.785156 1138.296875 1017.722656 C 1149.164062 1014.78125 1173.777344 995.367188 1182.15625 986.589844 C 1168.257812 965.082031 1135.679688 945.355469 1115.402344 929.5 C 1092.835938 911.851562 1069.539062 892.152344 1051.527344 869.734375 C 1036.671875 851.25 1029.441406 829.824219 1020 808.484375 C 1011.050781 788.25 1001.609375 767.246094 991.324219 747.667969 C 989.398438 750.90625 987.707031 754.15625 986.683594 757.800781 C 980.203125 780.878906 977.234375 806.308594 972.78125 829.90625 C 963.414062 879.503906 953.851562 928.734375 946.484375 978.703125 Z M 786.347656 1050.988281 C 793.378906 1047.871094 796.605469 1039.683594 793.589844 1032.609375 C 790.574219 1025.53125 782.4375 1022.1875 775.320312 1025.101562 C 770.625 1027.027344 767.328125 1031.328125 766.691406 1036.363281 C 766.054688 1041.398438 768.179688 1046.386719 772.253906 1049.414062 C 776.324219 1052.445312 781.710938 1053.046875 786.347656 1050.988281 Z M 774.539062 931.714844 C 776.972656 927.6875 778.664062 924.910156 778.679688 920.015625 C 777.328125 916.910156 776.652344 914.984375 773.300781 913.507812 C 771.136719 912.550781 768 912.277344 765.65625 912.117188 C 763.261719 916.410156 761.378906 920.285156 762.773438 925.355469 C 763.632812 928.480469 764.9375 929.308594 767.273438 931.410156 C 770.125 932.1875 771.625 932.207031 774.539062 931.714844 Z M 774.539062 931.714844 " fill-opacity="1" fill-rule="nonzero"/><path fill="#caa63e" d="M 878.089844 212.425781 C 896.441406 208.953125 920.019531 214.941406 936.816406 221.84375 C 973.246094 236.816406 1003.015625 276.433594 1000.269531 316.910156 C 999.417969 329.414062 993.300781 341.1875 994.871094 353.921875 C 996.167969 364.480469 1003.511719 373.277344 1007.34375 383.003906 C 1008.949219 387.078125 1010.503906 393.269531 1008.375 397.355469 C 1003.820312 406.117188 992.832031 400.25 985.582031 403.09375 C 985.425781 406.546875 989.773438 411.140625 990.679688 415.175781 C 989.574219 423.921875 984.425781 421.894531 978.910156 426.703125 L 981.523438 434.238281 C 979.558594 439.003906 974.59375 438.816406 972.441406 443.339844 C 969.113281 450.332031 972.191406 458.214844 964.929688 463.582031 C 948.847656 475.46875 931.347656 460.070312 915.175781 458.191406 C 912.738281 457.910156 908.972656 458.199219 906.976562 459.78125 C 902.171875 463.578125 900.078125 470.160156 899.519531 476.105469 C 894.320312 531.535156 984.277344 504.289062 1015.375 542.300781 C 1041.980469 574.835938 1053.003906 649.320312 1064.636719 691.101562 C 1072.191406 718.222656 1081.121094 744.117188 1094.175781 769.117188 C 1126.707031 831.425781 1195.839844 911.253906 1243.503906 965.449219 C 1257.476562 981.339844 1272.910156 996.550781 1286.113281 1013.011719 C 1296.84375 1026.402344 1306.328125 1044.789062 1304.21875 1062.480469 C 1303.589844 1067.832031 1302.511719 1072.316406 1298.136719 1075.8125 C 1295.085938 1076.382812 1294.578125 1077.003906 1291.921875 1075.191406 C 1290.773438 1070.785156 1294.578125 1053.398438 1294.597656 1045.964844 L 1290.585938 1044.132812 L 1290.945312 1043.230469 C 1287.675781 1050.238281 1288.253906 1063.5625 1283.035156 1068.042969 L 1280.085938 1067.0625 C 1277.507812 1054.925781 1285.289062 1041.765625 1280.730469 1029.484375 C 1274.496094 1034.945312 1277.355469 1051.460938 1270.871094 1057.0625 L 1268.773438 1056.367188 C 1264.847656 1046.742188 1269.019531 1035.109375 1266.550781 1024.984375 C 1264.835938 1017.941406 1262.050781 1017.289062 1256.691406 1013.644531 C 1248.886719 1008.335938 1250.265625 1003.804688 1248.410156 995.734375 C 1247.226562 990.578125 1243.320312 985.203125 1240.15625 981.089844 C 1231.46875 969.78125 1221.460938 959.191406 1212.367188 948.15625 C 1165.476562 891.253906 1115.261719 833.878906 1082.046875 767.554688 C 1070.144531 743.777344 1061.351562 718.878906 1053.988281 693.359375 C 1043.03125 655.40625 1030.796875 578.804688 1007.417969 550.566406 C 982.65625 520.660156 933.828125 535.535156 903.867188 515.289062 C 895.460938 509.605469 890.496094 500.992188 888.601562 491.109375 C 886.433594 479.789062 888.777344 464.71875 895.582031 455.214844 C 911.003906 433.6875 933.199219 461.125 951.273438 456.75 C 960.171875 454.601562 958.171875 447.214844 962.324219 440.976562 C 964.925781 437.074219 968.660156 434.273438 971.253906 430.113281 C 963.675781 415.851562 978.144531 420.730469 980.125 411.957031 C 977.90625 408.527344 975.488281 405.71875 975.792969 401.453125 C 981.910156 392.726562 990.039062 397.929688 997.855469 393.675781 C 999.789062 392.625 999.414062 392.023438 999.964844 390.023438 C 997.289062 377.140625 987.644531 366.589844 985.585938 353.5 C 979.871094 317.175781 1003.277344 314.203125 975.425781 272.328125 C 967.054688 287.003906 958.039062 300.527344 947.1875 313.492188 C 938.996094 322.621094 928.746094 330.824219 918.464844 337.441406 C 885.660156 358.5625 837.339844 364.878906 799.300781 356.148438 C 794.191406 354.976562 788.242188 353.578125 785.296875 348.890625 C 785.710938 347.160156 785.828125 345.546875 787.984375 345.132812 C 797.296875 343.332031 816.402344 347.859375 826.640625 348.429688 C 858.796875 350.214844 890.824219 344.460938 917.445312 325.351562 C 940.578125 308.746094 961.066406 282.910156 965.890625 254.222656 C 958.660156 247.292969 950.773438 241.902344 941.71875 237.585938 C 914.0625 224.410156 879.5625 222.9375 850.835938 233.511719 C 813.527344 247.246094 795.304688 277.410156 779.710938 311.792969 C 770.410156 310.878906 758.027344 306.425781 749.699219 312.117188 C 742.660156 316.929688 739.097656 325.71875 737.421875 333.78125 C 734.257812 349.011719 735.84375 368.660156 744.699219 381.878906 C 748.753906 387.929688 754.542969 392.597656 761.890625 393.851562 C 773.148438 395.777344 781.765625 390.347656 790.675781 384.386719 C 789.355469 379.121094 787.117188 371.878906 789.019531 366.65625 C 790.933594 367.09375 791.269531 367.367188 792.679688 368.636719 C 808.820312 383.207031 817.910156 389.445312 840.726562 390.925781 C 845.984375 391.269531 851.101562 390.507812 856.359375 391.191406 C 856.738281 394.101562 856.671875 396.382812 856.230469 399.277344 C 848.234375 404.148438 811.769531 396.097656 800.769531 394.113281 C 803.222656 409.160156 802.515625 423.898438 798.523438 438.640625 C 786.941406 481.441406 759.359375 509.742188 718.394531 525.144531 C 702.128906 531.265625 684.832031 536.199219 669.820312 545.082031 C 653.363281 554.820312 645.082031 567.433594 639.863281 585.632812 C 624.109375 640.585938 630.738281 715.175781 619.800781 773.507812 C 613.796875 805.5 599.855469 833.601562 588.78125 863.890625 C 579.792969 888.472656 573.246094 914.015625 566.902344 939.371094 C 564.644531 941.398438 563.09375 940.828125 560.128906 940.878906 C 558.65625 939.402344 558.464844 939.355469 558.335938 937.234375 C 556.371094 905.039062 597.078125 822.542969 606.300781 784.980469 C 620.597656 726.773438 606.597656 599.105469 639.136719 555.730469 C 666.996094 518.601562 726.019531 522.613281 760.378906 484.125 C 780.285156 461.824219 788.667969 432.355469 787.171875 402.863281 C 777.105469 406.117188 767.058594 407.953125 756.621094 405.222656 C 745.230469 402.246094 736.648438 394.355469 730.890625 384.296875 C 721.039062 367.09375 718.636719 344.730469 724.078125 325.726562 C 727.113281 315.121094 732.96875 304.269531 743.132812 299.03125 C 753.789062 293.539062 762.917969 296.484375 773.585938 300.003906 C 780.113281 283.292969 789.238281 267.722656 800.625 253.863281 C 820.660156 229.597656 846.839844 215.472656 878.089844 212.425781 Z M 878.089844 212.425781 " fill-opacity="1" fill-rule="nonzero"/><path fill="#caa63e" d="M 853.730469 545.949219 C 857.183594 546.03125 860.628906 546.285156 864.050781 546.710938 C 877.253906 548.464844 888.269531 559.058594 895.941406 569.238281 C 915.246094 594.859375 937.726562 637.773438 941.859375 669.835938 C 943.941406 686 942.847656 702.257812 944.410156 718.414062 C 946.109375 736.015625 950.472656 753.734375 947.765625 771.433594 C 946.722656 778.242188 944.980469 788.738281 939.097656 792.980469 C 931.539062 792.796875 921.949219 781.277344 916.492188 776.125 L 907.589844 785.355469 C 912.566406 789.738281 924.546875 798.3125 925.03125 805.039062 C 924.660156 805.046875 924.285156 805.105469 923.910156 805.0625 C 916.6875 804.246094 908.9375 794.808594 904.007812 789.847656 C 899.652344 791.992188 895.203125 794.289062 890.585938 795.808594 C 873.789062 801.339844 856.277344 799.328125 840.761719 791.144531 C 813.082031 776.542969 781.902344 744.101562 772.734375 714.105469 C 780.96875 725.183594 790.394531 735.605469 799.820312 745.671875 C 817.09375 764.113281 839.867188 788.382812 866.917969 789.027344 C 880.289062 789.347656 895.96875 783.011719 905.441406 773.558594 C 908.386719 770.621094 911.109375 766.953125 911.148438 762.667969 C 905.445312 762.015625 895.925781 768.214844 888.980469 769.070312 C 860.371094 772.59375 832.597656 754.417969 811.140625 737.414062 C 789.699219 720.417969 773.675781 704.90625 770.453125 676.613281 C 773.398438 682.109375 776.179688 687.699219 779.554688 692.949219 C 798.140625 721.851562 836.625 752.808594 870.804688 760.027344 C 881.792969 762.351562 892.683594 761.679688 902.148438 755.160156 C 909.351562 750.199219 923.933594 735.210938 925.457031 726.621094 C 922.125 726.46875 916.976562 730.332031 913.660156 731.625 C 889.097656 741.183594 859.328125 732.914062 836.445312 722.285156 C 810.328125 710.15625 784.394531 690.382812 774.296875 662.632812 L 795.082031 683.78125 C 810.976562 698.253906 828.339844 709.351562 848.320312 717.316406 C 867.644531 725.023438 891.445312 731.261719 911.425781 722.320312 C 919.183594 718.847656 926.695312 712.410156 929.746094 704.296875 C 931.492188 699.65625 933.84375 692.113281 931.699219 687.40625 C 926.78125 688.117188 915.152344 699.800781 906.773438 702.554688 C 882.707031 710.460938 855.292969 699.070312 833.890625 688.128906 C 819.429688 680.738281 779.582031 655.550781 775.886719 639.636719 C 775.109375 636.289062 775.71875 634.984375 777.472656 632.203125 C 785.257812 636.765625 792.722656 647.582031 799.140625 654.339844 C 813.691406 669.664062 833.484375 679.671875 853.027344 687.265625 C 871.191406 694.324219 892.335938 700.351562 911.039062 691.796875 C 918.191406 688.527344 927.625 681.445312 930.148438 673.710938 C 931.253906 670.3125 930.585938 667.804688 929.113281 664.679688 C 924.675781 664.085938 915.859375 669.253906 911.03125 670.460938 C 894.050781 674.699219 873.675781 672.949219 857.003906 668.160156 C 826.117188 659.285156 796.925781 637.070312 781.257812 608.914062 L 785.03125 596.207031 C 786.296875 600.964844 787.730469 605.585938 790.25 609.851562 C 805.289062 635.328125 832.769531 653.25 861.074219 660.417969 C 886.433594 666.839844 905.519531 663.238281 927.613281 650.230469 C 925.628906 644.597656 922.949219 639.222656 920.441406 633.808594 C 912.054688 639.375 905.15625 642.460938 895.082031 643.664062 C 866.996094 647.019531 841.820312 636.777344 820.179688 619.535156 C 807.460938 609.402344 786.355469 589.175781 784.394531 572.1875 L 785.773438 571.226562 C 788.09375 572.425781 790.429688 573.589844 792.78125 574.726562 C 794.203125 571.382812 794.359375 569.558594 793.570312 566.015625 C 791.089844 562.980469 790.042969 562.359375 785.972656 561.605469 C 765.375 557.785156 727.582031 568.550781 703.734375 563.21875 C 700.460938 562.488281 695.601562 561.25 693.792969 558.316406 L 695.117188 556.542969 C 711.65625 549.453125 826.445312 547.410156 853.730469 545.949219 Z M 797.285156 581.328125 C 810.410156 605.914062 834.875 625.488281 861.613281 633.496094 C 875.660156 637.703125 894 639.140625 907.390625 631.917969 C 907.609375 631.800781 907.824219 631.671875 908.042969 631.546875 C 911.585938 629.671875 913.738281 629.289062 915.386719 625.402344 C 914.4375 619.957031 909.335938 614.777344 905.960938 610.453125 C 896.203125 617.1875 886.570312 619.648438 874.769531 617.5 C 847.503906 612.539062 822.757812 587.488281 807.84375 565.410156 L 807.25 564.527344 C 804.980469 570.984375 801.351562 575.878906 797.285156 581.328125 Z M 902.332031 603.09375 C 900.875 593.25 894.46875 586.621094 888.347656 579.226562 C 877.960938 583.523438 868.945312 585.148438 858.230469 580.601562 C 847.367188 575.988281 837.640625 566.117188 828.605469 558.523438 C 823.285156 558.523438 817.9375 558.417969 812.617188 558.570312 C 825.125 580.796875 847 600.9375 872.082031 607.78125 C 880.691406 610.132812 889.757812 610.433594 897.785156 606.042969 C 899.375 605.175781 900.867188 604.148438 902.332031 603.09375 Z M 871.238281 577.328125 C 875.230469 575.472656 877.695312 574.859375 880.195312 571.121094 C 879.9375 567.476562 879.867188 566.15625 876.96875 563.53125 C 870.59375 557.757812 861.179688 556.890625 853.027344 557.753906 L 844.746094 557.898438 L 843.136719 559.574219 C 845.527344 566.46875 855.464844 571.5625 861.636719 574.621094 C 864.609375 576.09375 867.964844 576.90625 871.238281 577.328125 Z M 938.199219 757.101562 L 939.847656 756.5 C 940.929688 749.492188 938.96875 738.308594 935.542969 732.070312 C 933.222656 737.605469 929.328125 744.519531 929.9375 750.589844 C 932.105469 754.820312 934.042969 755.117188 938.199219 757.101562 Z M 938.199219 757.101562 " fill-opacity="1" fill-rule="nonzero"/><path fill="#caa63e" d="M 689.074219 567.636719 C 690.957031 567.628906 692.84375 567.644531 694.71875 567.828125 C 700.855469 568.429688 707.445312 571.746094 711.117188 576.773438 C 716.644531 584.347656 716.210938 591.691406 714.796875 600.4375 C 709.988281 604.832031 703.300781 608.613281 699.40625 613.820312 C 688.777344 628.039062 664.464844 764.535156 663.671875 786.457031 C 663.253906 798.050781 667.644531 808.828125 669.109375 820.234375 L 667.992188 820.515625 C 664.160156 816.429688 660.226562 812.433594 656.199219 808.542969 C 653.40625 807.132812 650.300781 805.359375 647.226562 804.714844 C 638.304688 802.839844 627.445312 811.863281 620.371094 816.421875 C 628.019531 804.429688 637.988281 792.316406 643.28125 779.148438 C 652.675781 755.777344 674.550781 641.734375 675.089844 615.640625 C 675.316406 604.792969 664.617188 589.828125 669.882812 579.929688 C 673.820312 572.53125 681.5 569.703125 689.074219 567.636719 Z M 689.074219 567.636719 " fill-opacity="1" fill-rule="nonzero"/><path fill="#caa63e" d="M 728.929688 570.582031 C 734.433594 570.3125 739.941406 570.113281 745.449219 569.988281 C 751.757812 569.902344 760.328125 570.453125 764.824219 575.480469 C 767.953125 578.976562 768.46875 587.78125 768.6875 592.320312 C 769.347656 606.023438 766.847656 620.035156 766.363281 633.746094 C 765.957031 645.332031 768.113281 660.003906 765.785156 671.230469 C 765.007812 674.980469 761.710938 676.589844 758.871094 678.707031 C 757.722656 678.484375 757.300781 678.449219 756.269531 678.109375 C 751.402344 676.5 746.78125 671.359375 743.535156 667.535156 C 715.394531 634.371094 730.429688 591.519531 721.09375 574.921875 C 720.832031 574.457031 720.554688 574.003906 720.289062 573.546875 C 722.65625 571.363281 725.816406 571.246094 728.929688 570.582031 Z M 756.625 599.972656 C 758.71875 595.816406 760.855469 592.457031 760.46875 587.648438 C 758.675781 584.390625 758.007812 583.140625 754.167969 582.027344 C 748.796875 580.46875 741.53125 581.757812 736.03125 582.265625 C 736.359375 590.363281 735.839844 597.355469 741.734375 603.613281 C 745.367188 604.816406 747.1875 605.308594 750.988281 603.808594 C 752.914062 603.046875 755.007812 601.210938 756.625 599.972656 Z M 756.625 599.972656 " fill-opacity="1" fill-rule="nonzero"/><path fill="#caa63e" d="M 635.425781 817.277344 C 637.304688 817.316406 639.171875 817.519531 641.015625 817.875 C 645.425781 818.726562 649.433594 821.238281 651.777344 825.136719 C 654.121094 829.03125 654.726562 834.496094 653.4375 838.839844 C 650.277344 849.492188 640.117188 858.488281 635.925781 869.046875 C 621.910156 904.316406 613.148438 942.542969 603.765625 979.21875 L 600.980469 981.457031 C 597.308594 981.847656 595.28125 982.117188 592.03125 980.214844 C 589.089844 974.203125 593.488281 960.097656 595.203125 953.414062 C 603.054688 922.761719 617.507812 893.453125 624.015625 862.621094 C 626.324219 851.703125 622.804688 840.066406 625.011719 829.234375 C 626.238281 823.230469 630.742188 820.5 635.425781 817.277344 Z M 635.425781 817.277344 " fill-opacity="1" fill-rule="nonzero"/><path fill="#caa63e" d="M 831.882812 859.046875 C 836.550781 859.042969 840.242188 859.210938 844.488281 861.324219 C 848.371094 863.253906 849.527344 865.28125 850.796875 869.117188 C 850.527344 872.367188 849.804688 874.601562 847.742188 877.1875 C 841.167969 885.429688 832.910156 885.632812 823.230469 886.703125 C 827.949219 888.636719 833.726562 891.1875 836.871094 895.390625 C 840.300781 899.972656 839.703125 904.398438 838.730469 909.625 C 834.601562 911.640625 828.398438 913.164062 823.8125 912.972656 C 819.496094 912.789062 815.984375 911.351562 813.199219 908.039062 C 811.445312 905.953125 811.226562 902.316406 811.546875 899.746094 C 812.355469 893.339844 814.195312 890.554688 819.125 886.6875 C 820.917969 885.277344 820.9375 884.003906 821.621094 881.894531 C 820.824219 879.125 819.140625 874.726562 819.742188 871.875 C 820.859375 866.597656 827.800781 862.050781 831.882812 859.046875 Z M 831.882812 859.046875 " fill-opacity="1" fill-rule="nonzero"/><path fill="#caa63e" d="M 780.15625 748.476562 C 804.621094 774.800781 829.1875 811.988281 868.972656 813.425781 C 874.128906 813.613281 890.441406 809.300781 892.699219 810.644531 C 891.835938 814.316406 890.570312 816.546875 887.078125 818.449219 C 875.96875 824.5 856.375 819.808594 845.273438 815.835938 C 841.136719 814.351562 837.105469 812.5625 833.109375 810.746094 L 826.9375 807.503906 C 806.886719 792.84375 788.910156 771.78125 780.15625 748.476562 Z M 780.15625 748.476562 " fill-opacity="1" fill-rule="nonzero"/><path fill="#caa63e" d="M 753.042969 981.015625 C 757.054688 980.523438 759.882812 980.09375 763.722656 981.847656 C 766.976562 985.035156 768.839844 989.078125 769.574219 993.5625 C 772.003906 1008.363281 752.675781 1009.84375 745.945312 1019.457031 C 734.488281 1035.835938 757.003906 1040.621094 759.007812 1052.570312 C 751.277344 1051.988281 744.824219 1049.042969 739.835938 1043.070312 C 735.410156 1037.769531 733.308594 1031.058594 734.277344 1024.1875 C 736.546875 1008.089844 749.484375 1008.902344 759.140625 1000.128906 C 761.753906 997.757812 761.90625 995.816406 762.3125 992.566406 C 760.882812 987.707031 756.585938 984.457031 753.042969 981.015625 Z M 753.042969 981.015625 " fill-opacity="1" fill-rule="nonzero"/><path fill="#caa63e" d="M 1198.535156 969.457031 C 1199.847656 969.726562 1201.046875 969.972656 1202.285156 970.492188 C 1212.324219 974.703125 1238.582031 1022.328125 1243.789062 1034 C 1240.691406 1033.734375 1236.988281 1033.613281 1234.09375 1032.417969 C 1221.210938 1027.09375 1203.925781 982.839844 1198.535156 969.457031 Z M 1198.535156 969.457031 " fill-opacity="1" fill-rule="nonzero"/><path fill="#caa63e" d="M 829.804688 833.199219 C 833.132812 832.855469 836.980469 832.4375 840.234375 833.402344 C 842.640625 834.117188 844.105469 835.613281 845.292969 837.761719 C 846.546875 840.035156 846.707031 842.644531 845.902344 845.152344 C 843.839844 851.578125 838.972656 854.414062 833.273438 857.039062 C 831.753906 856.976562 830.238281 856.902344 828.726562 856.730469 C 824.140625 856.203125 821.429688 854.707031 818.597656 851.113281 C 818.234375 849.527344 817.472656 847.652344 817.847656 846.070312 C 819.511719 839.078125 824.070312 836.621094 829.804688 833.199219 Z M 829.804688 833.199219 " fill-opacity="1" fill-rule="nonzero"/><path fill="#caa63e" d="M 822.605469 809.683594 C 825.5625 810.464844 828.105469 812.339844 829.730469 814.933594 C 832.804688 819.832031 831.960938 826.222656 827.71875 830.160156 C 823.484375 834.09375 817.046875 834.460938 812.390625 831.03125 C 807.734375 827.601562 806.171875 821.347656 808.667969 816.128906 C 811.164062 810.910156 817.015625 808.207031 822.605469 809.683594 Z M 822.605469 809.683594 " fill-opacity="1" fill-rule="nonzero"/><path fill="#caa63e" d="M 813.289062 485.261719 C 820.066406 484.914062 826.269531 485.671875 831.609375 490.394531 C 834.199219 492.6875 834.496094 494.304688 834.894531 497.601562 C 833.578125 501.339844 831.914062 502.667969 828.65625 504.8125 C 823.433594 503.609375 818.117188 502.332031 813.246094 500.042969 C 809.589844 498.320312 808.515625 496.785156 807.199219 493.136719 C 808.566406 489.035156 810.117188 488.027344 813.289062 485.261719 Z M 813.289062 485.261719 " fill-opacity="1" fill-rule="nonzero"/><path fill="#caa63e" d="M 808.257812 506.023438 C 814.101562 506.726562 819.902344 508.074219 825.324219 510.378906 C 829.417969 512.117188 831.667969 513.667969 833.347656 517.84375 C 831.476562 521.269531 830.167969 521.546875 826.804688 523.363281 C 820.207031 522.84375 811.066406 521.4375 805.273438 518.058594 C 802.207031 516.269531 801.585938 515.574219 800.710938 512.210938 C 802.726562 508.628906 804.824219 507.953125 808.257812 506.023438 Z M 808.257812 506.023438 " fill-opacity="1" fill-rule="nonzero"/><path fill="#caa63e" d="M 814.910156 464.078125 C 821.183594 463.679688 826.667969 465.269531 832.367188 467.808594 C 835.800781 469.339844 840.382812 471.941406 841.566406 475.789062 C 842.246094 478.007812 840.941406 479.40625 839.976562 481.40625 C 835.375 482.117188 831.121094 482.226562 826.550781 481.328125 C 820.953125 480.226562 817.246094 478.671875 813.941406 473.828125 C 812.757812 469.953125 813.496094 467.785156 814.910156 464.078125 Z M 814.910156 464.078125 " fill-opacity="1" fill-rule="nonzero"/><path fill="#caa63e" d="M 799.355469 525.585938 C 807.121094 526.664062 819 529.3125 824.039062 535.910156 C 825.445312 537.746094 825.003906 538.261719 824.71875 540.539062 L 821.675781 542.476562 C 816.4375 542.335938 811.246094 542.226562 806.136719 540.9375 C 800.914062 539.617188 798.054688 538.199219 795.257812 533.539062 C 795.820312 529.484375 796.835938 528.695312 799.355469 525.585938 Z M 799.355469 525.585938 " fill-opacity="1" fill-rule="nonzero"/><path fill="#caa63e" d="M 827.199219 446.007812 C 832.902344 445.882812 838.398438 446.847656 843.054688 450.398438 C 845.898438 452.566406 846.382812 453.4375 846.84375 456.90625 C 844.644531 459.929688 843.144531 460.203125 839.761719 461.648438 C 835.472656 461.503906 831.222656 460.722656 827.160156 459.328125 C 823.390625 458.050781 821.976562 456.742188 820.308594 453.289062 C 821.960938 449.261719 823.742188 448.460938 827.199219 446.007812 Z M 827.199219 446.007812 " fill-opacity="1" fill-rule="nonzero"/><path fill="#caa63e" d="M 834.078125 425.617188 C 835.453125 425.644531 836.808594 425.640625 838.148438 426.011719 C 843.707031 427.554688 849.707031 432.136719 852.644531 437.003906 C 853.050781 440.925781 852.476562 440.90625 850.152344 443.882812 C 842.671875 441.945312 833.90625 441.152344 829.628906 434.152344 C 830.226562 429.910156 831.320312 428.992188 834.078125 425.617188 Z M 834.078125 425.617188 " fill-opacity="1" fill-rule="nonzero"/><path fill="#caa63e" d="M 566.640625 636.28125 C 570.847656 633.554688 576.457031 634.636719 579.347656 638.730469 C 582.242188 642.828125 581.390625 648.476562 577.417969 651.535156 C 574.699219 653.625 571.054688 654.058594 567.921875 652.664062 C 564.789062 651.273438 562.671875 648.273438 562.402344 644.855469 C 562.136719 641.433594 563.761719 638.144531 566.640625 636.28125 Z M 566.640625 636.28125 " fill-opacity="1" fill-rule="nonzero"/><path fill="#caa63e" d="M 798.855469 888.890625 C 803.488281 887.398438 808.464844 889.886719 810.050781 894.488281 C 811.640625 899.089844 809.261719 904.121094 804.699219 905.808594 C 801.65625 906.933594 798.242188 906.324219 795.777344 904.214844 C 793.3125 902.109375 792.183594 898.832031 792.820312 895.652344 C 793.457031 892.472656 795.765625 889.882812 798.855469 888.890625 Z M 798.855469 888.890625 " fill-opacity="1" fill-rule="nonzero"/><path fill="#caa63e" d="M 1149.617188 636.132812 C 1153.738281 633.5 1159.214844 634.710938 1161.847656 638.835938 C 1164.476562 642.957031 1163.269531 648.433594 1159.148438 651.070312 C 1155.027344 653.703125 1149.546875 652.496094 1146.914062 648.371094 C 1144.28125 644.246094 1145.492188 638.765625 1149.617188 636.132812 Z M 1149.617188 636.132812 " fill-opacity="1" fill-rule="nonzero"/><path fill="#caa63e" d="M 1191.285156 636.167969 C 1195.269531 633.644531 1200.535156 634.777344 1203.140625 638.707031 C 1205.742188 642.636719 1204.722656 647.929688 1200.847656 650.613281 C 1198.269531 652.398438 1194.925781 652.648438 1192.105469 651.269531 C 1189.289062 649.890625 1187.441406 647.09375 1187.269531 643.957031 C 1187.101562 640.828125 1188.636719 637.84375 1191.285156 636.167969 Z M 1191.285156 636.167969 " fill-opacity="1" fill-rule="nonzero"/><path fill="#caa63e" d="M 527.109375 637.609375 C 529.453125 635.957031 532.503906 635.691406 535.09375 636.917969 C 537.683594 638.140625 539.414062 640.664062 539.625 643.523438 C 539.835938 646.378906 538.492188 649.128906 536.113281 650.722656 C 532.492188 653.140625 527.601562 652.199219 525.136719 648.609375 C 522.675781 645.019531 523.554688 640.117188 527.109375 637.609375 Z M 527.109375 637.609375 " fill-opacity="1" fill-rule="nonzero"/><path fill="#caa63e" d="M 808.171875 866.542969 L 813.972656 867.503906 C 816.695312 869.792969 816.769531 869.898438 817.386719 873.394531 C 816.164062 877.695312 814.097656 880.230469 811.285156 883.542969 C 811.03125 883.441406 810.769531 883.363281 810.527344 883.242188 C 807.039062 881.5 804.71875 878.941406 803.460938 875.3125 C 804.140625 870.699219 805.003906 870.074219 808.171875 866.542969 Z M 808.171875 866.542969 " fill-opacity="1" fill-rule="nonzero"/><path fill="#caa63e" d="M 1230.832031 637.769531 C 1233.910156 635.28125 1238.417969 635.730469 1240.9375 638.78125 C 1243.457031 641.835938 1243.050781 646.351562 1240.023438 648.898438 C 1236.953125 651.484375 1232.367188 651.070312 1229.8125 647.976562 C 1227.257812 644.878906 1227.714844 640.296875 1230.832031 637.769531 Z M 1230.832031 637.769531 " fill-opacity="1" fill-rule="nonzero"/><path fill="#caa63e" d="M 492.238281 638.917969 C 495.457031 637.707031 499.058594 639.210938 500.464844 642.351562 C 501.867188 645.492188 500.582031 649.179688 497.535156 650.769531 C 495.394531 651.890625 492.804688 651.726562 490.820312 650.347656 C 488.835938 648.96875 487.777344 646.601562 488.074219 644.203125 C 488.375 641.804688 489.976562 639.769531 492.238281 638.917969 Z M 492.238281 638.917969 " fill-opacity="1" fill-rule="nonzero"/><path fill="#caa63e" d="M 799.441406 792.292969 C 801.820312 790.300781 805.34375 790.542969 807.425781 792.84375 C 809.503906 795.140625 809.398438 798.671875 807.183594 800.839844 C 805.671875 802.320312 803.472656 802.851562 801.449219 802.230469 C 799.429688 801.609375 797.914062 799.933594 797.492188 797.859375 C 797.074219 795.785156 797.820312 793.648438 799.441406 792.292969 Z M 799.441406 792.292969 " fill-opacity="1" fill-rule="nonzero"/><path fill="#caa63e" d="M 1266.191406 637.515625 C 1268.6875 636.535156 1271.527344 637.566406 1272.808594 639.925781 C 1274.089844 642.285156 1273.414062 645.230469 1271.230469 646.792969 C 1269.558594 647.992188 1267.34375 648.117188 1265.546875 647.117188 C 1263.75 646.113281 1262.691406 644.164062 1262.828125 642.109375 C 1262.964844 640.058594 1264.273438 638.265625 1266.191406 637.515625 Z M 1266.191406 637.515625 " fill-opacity="1" fill-rule="nonzero"/><path fill="#fdfaf9" d="M 826.9375 807.503906 L 833.109375 810.746094 L 829.730469 814.933594 C 828.105469 812.339844 825.5625 810.464844 822.605469 809.683594 Z M 826.9375 807.503906 " fill-opacity="0.024" fill-rule="nonzero"/><g clip-path="url(#7d70a68317)"><g clip-path="url(#5b1afbb912)"><g transform="matrix(1, 0, 0, 1, 555, 630)"><g clip-path="url(#e7fac43886)"><g clip-path="url(#229fada92e)"><g clip-path="url(#25a8d36659)"><path fill="#caa63e" d="M 0.980469 0.769531 L 25.855469 0.769531 L 25.855469 25.644531 L 0.980469 25.644531 Z M 0.980469 0.769531 " fill-opacity="1" fill-rule="nonzero"/></g></g></g></g></g></g><g fill="#caa63e" fill-opacity="1"><g transform="translate(276.29779, 1493.633201)"><g><path d="M 9.5 0 L 9.5 -51.484375 L 35.78125 -51.484375 L 35.78125 -48.453125 L 12.953125 -48.453125 L 12.953125 -29.515625 L 33.84375 -29.515625 L 33.84375 -26.5625 L 12.953125 -26.5625 L 12.953125 0 Z M 9.5 0 "/></g></g></g><g fill="#caa63e" fill-opacity="1"><g transform="translate(323.745758, 1493.633201)"><g><path d="M 13.640625 -6.84375 C 8.867188 -11.976562 6.484375 -18.289062 6.484375 -25.78125 C 6.484375 -33.269531 8.867188 -39.566406 13.640625 -44.671875 C 18.421875 -49.785156 24.457031 -52.34375 31.75 -52.34375 C 39.050781 -52.34375 45.097656 -49.785156 49.890625 -44.671875 C 54.691406 -39.566406 57.09375 -33.269531 57.09375 -25.78125 C 57.09375 -18.289062 54.691406 -11.976562 49.890625 -6.84375 C 45.097656 -1.707031 39.050781 0.859375 31.75 0.859375 C 24.457031 0.859375 18.421875 -1.707031 13.640625 -6.84375 Z M 16.1875 -42.4375 C 12.207031 -37.957031 10.21875 -32.40625 10.21875 -25.78125 C 10.21875 -19.15625 12.222656 -13.582031 16.234375 -9.0625 C 20.242188 -4.550781 25.425781 -2.296875 31.78125 -2.296875 C 38.144531 -2.296875 43.332031 -4.550781 47.34375 -9.0625 C 51.351562 -13.582031 53.359375 -19.15625 53.359375 -25.78125 C 53.359375 -32.40625 51.351562 -37.957031 47.34375 -42.4375 C 43.332031 -46.925781 38.132812 -49.171875 31.75 -49.171875 C 25.363281 -49.171875 20.175781 -46.925781 16.1875 -42.4375 Z M 16.1875 -42.4375 "/></g></g></g><g fill="#caa63e" fill-opacity="1"><g transform="translate(395.673712, 1493.633201)"><g><path d="M 9.5 0 L 9.5 -51.265625 C 14.0625 -51.597656 17.878906 -51.765625 20.953125 -51.765625 C 25.847656 -51.765625 29.878906 -50.503906 33.046875 -47.984375 C 36.210938 -45.460938 37.796875 -41.898438 37.796875 -37.296875 C 37.796875 -34.171875 36.882812 -31.265625 35.0625 -28.578125 C 33.238281 -25.890625 31.195312 -23.753906 28.9375 -22.171875 C 30.71875 -19.722656 32.914062 -16.804688 35.53125 -13.421875 C 38.144531 -10.046875 39.835938 -7.925781 40.609375 -7.0625 C 43.535156 -3.9375 46.847656 -2.160156 50.546875 -1.734375 L 50.46875 0.578125 C 47.539062 0.523438 45.164062 0.0820312 43.34375 -0.75 C 41.519531 -1.59375 39.78125 -2.878906 38.125 -4.609375 C 36.46875 -6.335938 32.351562 -11.710938 25.78125 -20.734375 C 21.070312 -20.734375 16.796875 -20.878906 12.953125 -21.171875 L 12.953125 0 Z M 23.6875 -23.609375 C 25.800781 -23.609375 28.054688 -25 30.453125 -27.78125 C 32.859375 -30.570312 34.0625 -33.800781 34.0625 -37.46875 C 34.0625 -41.144531 32.820312 -43.929688 30.34375 -45.828125 C 27.875 -47.722656 24.597656 -48.671875 20.515625 -48.671875 C 18.359375 -48.671875 15.835938 -48.578125 12.953125 -48.390625 L 12.953125 -23.96875 C 16.796875 -23.726562 20.375 -23.609375 23.6875 -23.609375 Z M 23.6875 -23.609375 "/></g></g></g><g fill="#caa63e" fill-opacity="1"><g transform="translate(451.401675, 1493.633201)"><g><path d="M 33.84375 -2.65625 L 31.890625 -2.65625 L 16.84375 -39.09375 C 15.976562 -41.113281 15.285156 -42.890625 14.765625 -44.421875 L 14.046875 -38.953125 L 8.140625 0 L 4.609375 0 L 13.109375 -51.90625 L 15.125 -51.90625 L 31.171875 -13.75 C 31.992188 -11.976562 32.644531 -10.300781 33.125 -8.71875 C 33.269531 -9.238281 34.015625 -10.894531 35.359375 -13.6875 L 53.28125 -51.90625 L 55.21875 -51.90625 L 63.078125 0 L 59.46875 0 L 53.859375 -39.09375 C 53.472656 -41.539062 53.28125 -43.390625 53.28125 -44.640625 C 53.226562 -44.585938 53.117188 -44.359375 52.953125 -43.953125 C 52.785156 -43.546875 52.5 -42.875 52.09375 -41.9375 C 51.6875 -41 51.265625 -40.03125 50.828125 -39.03125 Z M 33.84375 -2.65625 "/></g></g></g><g fill="#caa63e" fill-opacity="1"><g transform="translate(527.433629, 1493.633201)"><g><path d="M 12.234375 -17.859375 L 4.828125 0 L 1.15625 0 L 22.828125 -51.84375 L 24.84375 -51.84375 L 46.578125 0 L 42.703125 0 L 35.28125 -17.859375 Z M 23.609375 -46.078125 C 23.566406 -46.035156 23.472656 -45.75 23.328125 -45.21875 C 22.648438 -43.15625 22.003906 -41.398438 21.390625 -39.953125 L 13.46875 -20.8125 L 34.0625 -20.8125 L 26.140625 -39.890625 C 24.453125 -43.535156 23.609375 -45.597656 23.609375 -46.078125 Z M 23.609375 -46.078125 "/></g></g></g><g fill="#caa63e" fill-opacity="1"><g transform="translate(582.801583, 1493.633201)"><g><path d="M 33.84375 0.859375 C 26.351562 0.859375 19.921875 -1.691406 14.546875 -6.796875 C 9.171875 -11.910156 6.484375 -18.222656 6.484375 -25.734375 C 6.484375 -33.253906 8.832031 -39.566406 13.53125 -44.671875 C 18.238281 -49.785156 24.265625 -52.34375 31.609375 -52.34375 C 37.367188 -52.34375 43.203125 -51.382812 49.109375 -49.46875 L 48.171875 -46.578125 C 42.410156 -48.304688 36.890625 -49.171875 31.609375 -49.171875 C 25.316406 -49.171875 20.175781 -46.914062 16.1875 -42.40625 C 12.207031 -37.894531 10.21875 -32.375 10.21875 -25.84375 C 10.21875 -19.320312 12.535156 -13.765625 17.171875 -9.171875 C 21.804688 -4.585938 27.363281 -2.296875 33.84375 -2.296875 C 39.507812 -2.296875 44.40625 -3.160156 48.53125 -4.890625 L 49.609375 -2.453125 C 47.785156 -1.390625 45.394531 -0.570312 42.4375 0 C 39.488281 0.570312 36.625 0.859375 33.84375 0.859375 Z M 33.84375 0.859375 "/></g></g></g><g fill="#caa63e" fill-opacity="1"><g transform="translate(644.793537, 1493.633201)"><g><path d="M 9.5 0 L 9.5 -51.484375 L 12.953125 -51.484375 L 12.953125 0 Z M 9.5 0 "/></g></g></g><g fill="#caa63e" fill-opacity="1"><g transform="translate(675.609499, 1493.633201)"><g><path d="M 13.640625 -6.84375 C 8.867188 -11.976562 6.484375 -18.289062 6.484375 -25.78125 C 6.484375 -33.269531 8.867188 -39.566406 13.640625 -44.671875 C 18.421875 -49.785156 24.457031 -52.34375 31.75 -52.34375 C 39.050781 -52.34375 45.097656 -49.785156 49.890625 -44.671875 C 54.691406 -39.566406 57.09375 -33.269531 57.09375 -25.78125 C 57.09375 -18.289062 54.691406 -11.976562 49.890625 -6.84375 C 45.097656 -1.707031 39.050781 0.859375 31.75 0.859375 C 24.457031 0.859375 18.421875 -1.707031 13.640625 -6.84375 Z M 16.1875 -42.4375 C 12.207031 -37.957031 10.21875 -32.40625 10.21875 -25.78125 C 10.21875 -19.15625 12.222656 -13.582031 16.234375 -9.0625 C 20.242188 -4.550781 25.425781 -2.296875 31.78125 -2.296875 C 38.144531 -2.296875 43.332031 -4.550781 47.34375 -9.0625 C 51.351562 -13.582031 53.359375 -19.15625 53.359375 -25.78125 C 53.359375 -32.40625 51.351562 -37.957031 47.34375 -42.4375 C 43.332031 -46.925781 38.132812 -49.171875 31.75 -49.171875 C 25.363281 -49.171875 20.175781 -46.925781 16.1875 -42.4375 Z M 40.96875 -58.3125 L 30.453125 -54.5 L 28.015625 -55.21875 L 40.53125 -62.140625 Z M 40.96875 -58.3125 "/></g></g></g><g fill="#caa63e" fill-opacity="1"><g transform="translate(747.537487, 1493.633201)"><g><path d="M 12.8125 -43.265625 L 12.953125 -37.15625 L 12.953125 0 L 9.5 0 L 9.5 -51.90625 L 11.09375 -51.90625 L 45 -12.8125 C 47.300781 -10.082031 49.078125 -7.898438 50.328125 -6.265625 C 50.140625 -8.566406 50.046875 -11.207031 50.046875 -14.1875 L 50.046875 -51.484375 L 53.5 -51.484375 L 53.5 0.4375 L 51.90625 0.4375 L 17.359375 -39.390625 C 14.953125 -42.117188 13.414062 -43.941406 12.75 -44.859375 Z M 12.8125 -43.265625 "/></g></g></g><g fill="#caa63e" fill-opacity="1"><g transform="translate(818.889426, 1493.633201)"><g/></g></g><g fill="#caa63e" fill-opacity="1"><g transform="translate(853.161411, 1493.633201)"><g><path d="M 9.5 0 L 9.5 -51.1875 C 13.488281 -51.570312 17.351562 -51.765625 21.09375 -51.765625 C 26.132812 -51.765625 30.175781 -50.585938 33.21875 -48.234375 C 36.269531 -45.890625 37.796875 -42.351562 37.796875 -37.625 C 37.796875 -32.894531 35.71875 -29.003906 31.5625 -25.953125 C 27.414062 -22.910156 22.460938 -21.390625 16.703125 -21.390625 C 16.460938 -21.390625 16.195312 -21.390625 15.90625 -21.390625 L 15.90625 -23.765625 C 16.101562 -23.765625 16.273438 -23.765625 16.421875 -23.765625 C 21.171875 -23.765625 25.296875 -25.007812 28.796875 -27.5 C 32.304688 -30 34.0625 -33.25 34.0625 -37.25 C 34.0625 -41.257812 32.835938 -44.164062 30.390625 -45.96875 C 27.941406 -47.769531 24.648438 -48.671875 20.515625 -48.671875 C 18.359375 -48.671875 15.835938 -48.578125 12.953125 -48.390625 L 12.953125 0 Z M 9.5 0 "/></g></g></g><g fill="#caa63e" fill-opacity="1"><g transform="translate(899.96138, 1493.633201)"><g><path d="M 12.234375 -17.859375 L 4.828125 0 L 1.15625 0 L 22.828125 -51.84375 L 24.84375 -51.84375 L 46.578125 0 L 42.703125 0 L 35.28125 -17.859375 Z M 23.609375 -46.078125 C 23.566406 -46.035156 23.472656 -45.75 23.328125 -45.21875 C 22.648438 -43.15625 22.003906 -41.398438 21.390625 -39.953125 L 13.46875 -20.8125 L 34.0625 -20.8125 L 26.140625 -39.890625 C 24.453125 -43.535156 23.609375 -45.597656 23.609375 -46.078125 Z M 23.609375 -46.078125 "/></g></g></g><g fill="#caa63e" fill-opacity="1"><g transform="translate(956.049328, 1493.633201)"><g><path d="M 9.5 0 L 9.5 -51.265625 C 14.0625 -51.597656 17.878906 -51.765625 20.953125 -51.765625 C 25.847656 -51.765625 29.878906 -50.503906 33.046875 -47.984375 C 36.210938 -45.460938 37.796875 -41.898438 37.796875 -37.296875 C 37.796875 -34.171875 36.882812 -31.265625 35.0625 -28.578125 C 33.238281 -25.890625 31.195312 -23.753906 28.9375 -22.171875 C 30.71875 -19.722656 32.914062 -16.804688 35.53125 -13.421875 C 38.144531 -10.046875 39.835938 -7.925781 40.609375 -7.0625 C 43.535156 -3.9375 46.847656 -2.160156 50.546875 -1.734375 L 50.46875 0.578125 C 47.539062 0.523438 45.164062 0.0820312 43.34375 -0.75 C 41.519531 -1.59375 39.78125 -2.878906 38.125 -4.609375 C 36.46875 -6.335938 32.351562 -11.710938 25.78125 -20.734375 C 21.070312 -20.734375 16.796875 -20.878906 12.953125 -21.171875 L 12.953125 0 Z M 23.6875 -23.609375 C 25.800781 -23.609375 28.054688 -25 30.453125 -27.78125 C 32.859375 -30.570312 34.0625 -33.800781 34.0625 -37.46875 C 34.0625 -41.144531 32.820312 -43.929688 30.34375 -45.828125 C 27.875 -47.722656 24.597656 -48.671875 20.515625 -48.671875 C 18.359375 -48.671875 15.835938 -48.578125 12.953125 -48.390625 L 12.953125 -23.96875 C 16.796875 -23.726562 20.375 -23.609375 23.6875 -23.609375 Z M 23.6875 -23.609375 "/></g></g></g><g fill="#caa63e" fill-opacity="1"><g transform="translate(1011.77729, 1493.633201)"><g><path d="M 12.234375 -17.859375 L 4.828125 0 L 1.15625 0 L 22.828125 -51.84375 L 24.84375 -51.84375 L 46.578125 0 L 42.703125 0 L 35.28125 -17.859375 Z M 23.609375 -46.078125 C 23.566406 -46.035156 23.472656 -45.75 23.328125 -45.21875 C 22.648438 -43.15625 22.003906 -41.398438 21.390625 -39.953125 L 13.46875 -20.8125 L 34.0625 -20.8125 L 26.140625 -39.890625 C 24.453125 -43.535156 23.609375 -45.597656 23.609375 -46.078125 Z M 23.609375 -46.078125 "/></g></g></g><g fill="#caa63e" fill-opacity="1"><g transform="translate(1067.865238, 1493.633201)"><g><path d="M 31.75 -46.9375 C 28.25 -48.425781 24.769531 -49.171875 21.3125 -49.171875 C 14.300781 -49.171875 10.796875 -46.582031 10.796875 -41.40625 C 10.796875 -39.144531 11.585938 -37.039062 13.171875 -35.09375 C 14.753906 -33.15625 16.671875 -31.425781 18.921875 -29.90625 C 21.179688 -28.394531 23.441406 -26.847656 25.703125 -25.265625 C 27.960938 -23.679688 29.882812 -21.785156 31.46875 -19.578125 C 33.050781 -17.367188 33.84375 -14.972656 33.84375 -12.390625 C 33.84375 -8.015625 32.378906 -4.710938 29.453125 -2.484375 C 26.523438 -0.253906 22.476562 0.859375 17.3125 0.859375 C 12.15625 0.859375 7.753906 -0.457031 4.109375 -3.09375 L 5.828125 -5.6875 C 9.285156 -3.425781 13.078125 -2.296875 17.203125 -2.296875 C 21.335938 -2.296875 24.507812 -3.125 26.71875 -4.78125 C 28.925781 -6.4375 30.03125 -8.828125 30.03125 -11.953125 C 30.03125 -14.109375 29.234375 -16.160156 27.640625 -18.109375 C 26.054688 -20.054688 24.132812 -21.804688 21.875 -23.359375 C 19.625 -24.921875 17.367188 -26.515625 15.109375 -28.140625 C 12.859375 -29.773438 10.941406 -31.722656 9.359375 -33.984375 C 7.773438 -36.242188 6.984375 -38.664062 6.984375 -41.25 C 6.984375 -44.664062 8.242188 -47.367188 10.765625 -49.359375 C 13.285156 -51.347656 16.691406 -52.34375 20.984375 -52.34375 C 25.285156 -52.34375 29.28125 -51.476562 32.96875 -49.75 Z M 31.75 -46.9375 "/></g></g></g><g fill="#caa63e" fill-opacity="1"><g transform="translate(1115.601196, 1493.633201)"><g><path d="M 12.234375 -17.859375 L 4.828125 0 L 1.15625 0 L 22.828125 -51.84375 L 24.84375 -51.84375 L 46.578125 0 L 42.703125 0 L 35.28125 -17.859375 Z M 23.609375 -46.078125 C 23.566406 -46.035156 23.472656 -45.75 23.328125 -45.21875 C 22.648438 -43.15625 22.003906 -41.398438 21.390625 -39.953125 L 13.46875 -20.8125 L 34.0625 -20.8125 L 26.140625 -39.890625 C 24.453125 -43.535156 23.609375 -45.597656 23.609375 -46.078125 Z M 23.609375 -46.078125 "/></g></g></g><g fill="#caa63e" fill-opacity="1"><g transform="translate(1171.689144, 1493.633201)"><g><path d="M 12.8125 -43.265625 L 12.953125 -37.15625 L 12.953125 0 L 9.5 0 L 9.5 -51.90625 L 11.09375 -51.90625 L 45 -12.8125 C 47.300781 -10.082031 49.078125 -7.898438 50.328125 -6.265625 C 50.140625 -8.566406 50.046875 -11.207031 50.046875 -14.1875 L 50.046875 -51.484375 L 53.5 -51.484375 L 53.5 0.4375 L 51.90625 0.4375 L 17.359375 -39.390625 C 14.953125 -42.117188 13.414062 -43.941406 12.75 -44.859375 Z M 12.8125 -43.265625 "/></g></g></g><g fill="#caa63e" fill-opacity="1"><g transform="translate(1243.041129, 1493.633201)"><g><path d="M 9.5 0 L 9.5 -51.484375 L 12.953125 -51.484375 L 12.953125 0 Z M 9.5 0 "/></g></g></g><g fill="#caa63e" fill-opacity="1"><g transform="translate(1273.857136, 1493.633201)"><g><path d="M 19.015625 -48.453125 L 1.578125 -48.453125 L 1.578125 -51.484375 L 39.890625 -51.484375 L 39.890625 -48.453125 L 22.46875 -48.453125 L 22.46875 0 L 19.015625 0 Z M 19.015625 -48.453125 "/></g></g></g><g fill="#caa63e" fill-opacity="1"><g transform="translate(1318.209031, 1493.633201)"><g><path d="M 12.234375 -17.859375 L 4.828125 0 L 1.15625 0 L 22.828125 -51.84375 L 24.84375 -51.84375 L 46.578125 0 L 42.703125 0 L 35.28125 -17.859375 Z M 23.609375 -46.078125 C 23.566406 -46.035156 23.472656 -45.75 23.328125 -45.21875 C 22.648438 -43.15625 22.003906 -41.398438 21.390625 -39.953125 L 13.46875 -20.8125 L 34.0625 -20.8125 L 26.140625 -39.890625 C 24.453125 -43.535156 23.609375 -45.597656 23.609375 -46.078125 Z M 23.609375 -46.078125 "/></g></g></g><g fill="#caa63e" fill-opacity="1"><g transform="translate(1374.296979, 1493.633201)"><g><path d="M 9.5 0 L 9.5 -51.265625 C 14.0625 -51.597656 17.878906 -51.765625 20.953125 -51.765625 C 25.847656 -51.765625 29.878906 -50.503906 33.046875 -47.984375 C 36.210938 -45.460938 37.796875 -41.898438 37.796875 -37.296875 C 37.796875 -34.171875 36.882812 -31.265625 35.0625 -28.578125 C 33.238281 -25.890625 31.195312 -23.753906 28.9375 -22.171875 C 30.71875 -19.722656 32.914062 -16.804688 35.53125 -13.421875 C 38.144531 -10.046875 39.835938 -7.925781 40.609375 -7.0625 C 43.535156 -3.9375 46.847656 -2.160156 50.546875 -1.734375 L 50.46875 0.578125 C 47.539062 0.523438 45.164062 0.0820312 43.34375 -0.75 C 41.519531 -1.59375 39.78125 -2.878906 38.125 -4.609375 C 36.46875 -6.335938 32.351562 -11.710938 25.78125 -20.734375 C 21.070312 -20.734375 16.796875 -20.878906 12.953125 -21.171875 L 12.953125 0 Z M 23.6875 -23.609375 C 25.800781 -23.609375 28.054688 -25 30.453125 -27.78125 C 32.859375 -30.570312 34.0625 -33.800781 34.0625 -37.46875 C 34.0625 -41.144531 32.820312 -43.929688 30.34375 -45.828125 C 27.875 -47.722656 24.597656 -48.671875 20.515625 -48.671875 C 18.359375 -48.671875 15.835938 -48.578125 12.953125 -48.390625 L 12.953125 -23.96875 C 16.796875 -23.726562 20.375 -23.609375 23.6875 -23.609375 Z M 23.6875 -23.609375 "/></g></g></g><g fill="#caa63e" fill-opacity="1"><g transform="translate(1430.024941, 1493.633201)"><g><path d="M 9.5 0 L 9.5 -51.484375 L 12.953125 -51.484375 L 12.953125 0 Z M 9.5 0 "/></g></g></g><g fill="#caa63e" fill-opacity="1"><g transform="translate(1460.840948, 1493.633201)"><g><path d="M 12.234375 -17.859375 L 4.828125 0 L 1.15625 0 L 22.828125 -51.84375 L 24.84375 -51.84375 L 46.578125 0 L 42.703125 0 L 35.28125 -17.859375 Z M 23.609375 -46.078125 C 23.566406 -46.035156 23.472656 -45.75 23.328125 -45.21875 C 22.648438 -43.15625 22.003906 -41.398438 21.390625 -39.953125 L 13.46875 -20.8125 L 34.0625 -20.8125 L 26.140625 -39.890625 C 24.453125 -43.535156 23.609375 -45.597656 23.609375 -46.078125 Z M 23.609375 -46.078125 "/></g></g></g><g fill="#caa63e" fill-opacity="1"><g transform="translate(275.329299, 1392.10953)"><g><path d="M 9 0 L 9 -2.375 L 12.078125 -2.375 C 25.023438 -2.375 31.5 -8.054688 31.5 -19.421875 L 31.5 -150.625 C 31.5 -161.363281 25.023438 -166.734375 12.078125 -166.734375 L 9 -166.734375 L 9 -169.109375 L 128.125 -169.109375 L 129.546875 -127.65625 L 127.1875 -127.65625 L 126.71875 -135.46875 C 125.925781 -147.3125 123.160156 -155.484375 118.421875 -159.984375 C 113.679688 -164.484375 105.3125 -166.734375 93.3125 -166.734375 L 55.421875 -166.734375 L 55.421875 -89.765625 L 114.875 -89.765625 L 114.875 -87.390625 L 55.421875 -87.390625 L 55.421875 -2.375 L 99.234375 -2.375 C 107.765625 -2.375 114.515625 -3.316406 119.484375 -5.203125 C 124.460938 -7.097656 128.132812 -10.335938 130.5 -14.921875 C 132.863281 -19.503906 134.285156 -25.738281 134.765625 -33.625 L 135.234375 -41.453125 L 137.609375 -41.453125 L 135.953125 0 Z M 9 0 "/></g></g></g><g fill="#caa63e" fill-opacity="1"><g transform="translate(527.101611, 1392.10953)"><g><path d="M 74.375 0 L 20.125 -153.953125 C 18.394531 -158.847656 16.34375 -162.203125 13.96875 -164.015625 C 11.601562 -165.828125 7.972656 -166.734375 3.078125 -166.734375 L 0 -166.734375 L 0 -169.109375 L 65.125 -169.109375 L 65.125 -166.734375 L 59.453125 -166.734375 C 54.398438 -166.734375 50.6875 -166.0625 48.3125 -164.71875 C 45.945312 -163.382812 44.765625 -161.054688 44.765625 -157.734375 C 44.765625 -154.578125 45.550781 -150.867188 47.125 -146.609375 L 76.5 -62.046875 C 82.03125 -46.421875 86.296875 -32.6875 89.296875 -20.84375 C 91.023438 -26.84375 93.070312 -33.515625 95.4375 -40.859375 C 97.8125 -48.203125 100.101562 -55.265625 102.3125 -62.046875 L 129.3125 -144.71875 C 130.101562 -147.238281 130.734375 -149.445312 131.203125 -151.34375 C 131.679688 -153.238281 131.921875 -154.972656 131.921875 -156.546875 C 131.921875 -160.335938 130.617188 -162.984375 128.015625 -164.484375 C 125.410156 -165.984375 121.421875 -166.734375 116.046875 -166.734375 L 102.078125 -166.734375 L 102.078125 -169.109375 L 159.875 -169.109375 L 159.875 -166.734375 L 151.34375 -166.734375 C 146.757812 -166.734375 143.203125 -165.390625 140.671875 -162.703125 C 138.148438 -160.023438 135.785156 -155.289062 133.578125 -148.5 L 84.546875 0 Z M 74.375 0 "/></g></g></g><g fill="#caa63e" fill-opacity="1"><g transform="translate(776.9791, 1392.10953)"><g><path d="M 0 0 L 0 -2.375 L 6.875 -2.375 C 11.925781 -2.375 15.910156 -3.710938 18.828125 -6.390625 C 21.742188 -9.078125 24.390625 -13.894531 26.765625 -20.84375 L 78.390625 -169.109375 L 90.46875 -169.109375 L 149.921875 -14.921875 C 151.660156 -10.179688 153.554688 -6.90625 155.609375 -5.09375 C 157.660156 -3.28125 160.421875 -2.375 163.890625 -2.375 L 166.96875 -2.375 L 166.96875 0 L 101.84375 0 L 101.84375 -2.375 L 107.296875 -2.375 C 113.296875 -2.375 117.632812 -3.082031 120.3125 -4.5 C 123 -5.914062 124.34375 -8.441406 124.34375 -12.078125 C 124.34375 -13.335938 124.179688 -14.875 123.859375 -16.6875 C 123.546875 -18.507812 123 -20.445312 122.21875 -22.5 L 107.765625 -61.34375 L 43.578125 -61.34375 L 30.546875 -24.15625 C 29.128906 -20.050781 28.421875 -16.65625 28.421875 -13.96875 C 28.421875 -9.707031 30.316406 -6.707031 34.109375 -4.96875 C 37.898438 -3.238281 43.976562 -2.375 52.34375 -2.375 L 57.796875 -2.375 L 57.796875 0 Z M 44.296875 -63.71875 L 106.8125 -63.71875 L 89.53125 -109.890625 C 83.375 -125.835938 78.476562 -140.050781 74.84375 -152.53125 C 73.257812 -147.789062 71.875 -143.601562 70.6875 -139.96875 C 69.507812 -136.34375 68.25 -132.515625 66.90625 -128.484375 C 65.5625 -124.460938 63.863281 -119.609375 61.8125 -113.921875 Z M 44.296875 -63.71875 "/></g></g></g><g fill="#caa63e" fill-opacity="1"><g transform="translate(1052.91005, 1392.10953)"><g><path d="M 9 0 L 9 -2.375 L 15.875 -2.375 C 28.820312 -2.375 35.296875 -8.054688 35.296875 -19.421875 L 35.296875 -150.625 C 35.296875 -161.363281 28.820312 -166.734375 15.875 -166.734375 L 9 -166.734375 L 9 -169.109375 L 55.1875 -169.109375 L 145.421875 -33.875 L 145.421875 -149.6875 C 145.421875 -161.050781 138.945312 -166.734375 126 -166.734375 L 119.375 -166.734375 L 119.375 -169.109375 L 174.078125 -169.109375 L 174.078125 -166.734375 L 167.21875 -166.734375 C 154.269531 -166.734375 147.796875 -161.050781 147.796875 -149.6875 L 147.796875 0 L 140.6875 0 L 37.65625 -154.421875 L 37.65625 -19.421875 C 37.65625 -8.054688 44.128906 -2.375 57.078125 -2.375 L 63.71875 -2.375 L 63.71875 0 Z M 9 0 "/></g></g></g><g fill="#caa63e" fill-opacity="1"><g transform="translate(1342.578306, 1392.10953)"><g><path d="M 0 0 L 0 -2.375 L 6.875 -2.375 C 11.925781 -2.375 15.910156 -3.710938 18.828125 -6.390625 C 21.742188 -9.078125 24.390625 -13.894531 26.765625 -20.84375 L 78.390625 -169.109375 L 90.46875 -169.109375 L 149.921875 -14.921875 C 151.660156 -10.179688 153.554688 -6.90625 155.609375 -5.09375 C 157.660156 -3.28125 160.421875 -2.375 163.890625 -2.375 L 166.96875 -2.375 L 166.96875 0 L 101.84375 0 L 101.84375 -2.375 L 107.296875 -2.375 C 113.296875 -2.375 117.632812 -3.082031 120.3125 -4.5 C 123 -5.914062 124.34375 -8.441406 124.34375 -12.078125 C 124.34375 -13.335938 124.179688 -14.875 123.859375 -16.6875 C 123.546875 -18.507812 123 -20.445312 122.21875 -22.5 L 107.765625 -61.34375 L 43.578125 -61.34375 L 30.546875 -24.15625 C 29.128906 -20.050781 28.421875 -16.65625 28.421875 -13.96875 C 28.421875 -9.707031 30.316406 -6.707031 34.109375 -4.96875 C 37.898438 -3.238281 43.976562 -2.375 52.34375 -2.375 L 57.796875 -2.375 L 57.796875 0 Z M 44.296875 -63.71875 L 106.8125 -63.71875 L 89.53125 -109.890625 C 83.375 -125.835938 78.476562 -140.050781 74.84375 -152.53125 C 73.257812 -147.789062 71.875 -143.601562 70.6875 -139.96875 C 69.507812 -136.34375 68.25 -132.515625 66.90625 -128.484375 C 65.5625 -124.460938 63.863281 -119.609375 61.8125 -113.921875 Z M 44.296875 -63.71875 "/></g></g></g><g clip-path="url(#69fc2b1329)"><g clip-path="url(#4a9aa71116)"><g transform="matrix(1, 0, 0, 1, 487, 634)"><g clip-path="url(#a972faf304)"><g clip-path="url(#8910c1ef73)"><g clip-path="url(#fc4b0796b1)"><path fill="#caa63e" d="M 0.203125 0.332031 L 17.957031 0.332031 L 17.957031 18.082031 L 0.203125 18.082031 Z M 0.203125 0.332031 " fill-opacity="1" fill-rule="nonzero"/></g></g></g></g></g></g><g clip-path="url(#364152a07d)"><g clip-path="url(#c6b2a09449)"><g transform="matrix(1, 0, 0, 1, 520, 633)"><g clip-path="url(#7b3ffb7410)"><g clip-path="url(#da22231180)"><g clip-path="url(#5575d22d65)"><path fill="#caa63e" d="M 0.796875 0.535156 L 20.140625 0.535156 L 20.140625 19.878906 L 0.796875 19.878906 Z M 0.796875 0.535156 " fill-opacity="1" fill-rule="nonzero"/></g></g></g></g></g></g><g clip-path="url(#e80587637c)"><g clip-path="url(#500a05f8e9)"><g transform="matrix(1, 0, 0, 1, 1261, 637)"><g clip-path="url(#1094d63151)"><g clip-path="url(#5ad53b3df7)"><g clip-path="url(#3ccc0fc255)"><path fill="#caa63e" d="M 0.925781 0.0898438 L 13.15625 0.0898438 L 13.15625 12.320312 L 0.925781 12.320312 Z M 0.925781 0.0898438 " fill-opacity="1" fill-rule="nonzero"/></g></g></g></g></g></g><g clip-path="url(#57bfc45fe7)"><g clip-path="url(#7087647f97)"><g transform="matrix(1, 0, 0, 1, 1142, 630)"><g clip-path="url(#44d453974b)"><g clip-path="url(#c2c63e79c3)"><g clip-path="url(#c508a9436c)"><path fill="#caa63e" d="M 0.101562 0.769531 L 24.976562 0.769531 L 24.976562 25.644531 L 0.101562 25.644531 Z M 0.101562 0.769531 " fill-opacity="1" fill-rule="nonzero"/></g></g></g></g></g></g><g clip-path="url(#cafda53e79)"><g clip-path="url(#46258f0131)"><g transform="matrix(1, 0, 0, 1, 1185, 633)"><g clip-path="url(#56bc284446)"><g clip-path="url(#e4934c7231)"><g clip-path="url(#4e5e62323f)"><path fill="#caa63e" d="M 0.992188 0.132812 L 21.136719 0.132812 L 21.136719 20.277344 L 0.992188 20.277344 Z M 0.992188 0.132812 " fill-opacity="1" fill-rule="nonzero"/></g></g></g></g></g></g><g clip-path="url(#6d201e3301)"><g clip-path="url(#92b5cc403e)"><g transform="matrix(1, 0, 0, 1, 1225, 634)"><g clip-path="url(#84ded8a1cd)"><g clip-path="url(#fb4d438112)"><g clip-path="url(#2dfc779a0d)"><path fill="#caa63e" d="M 0.15625 0.332031 L 17.90625 0.332031 L 17.90625 18.082031 L 0.15625 18.082031 Z M 0.15625 0.332031 " fill-opacity="1" fill-rule="nonzero"/></g></g></g></g></g></g></g></g></g></svg>