<svg xmlns="http://www.w3.org/2000/svg" xmlns:xlink="http://www.w3.org/1999/xlink" width="2380" zoomAndPan="magnify" viewBox="0 0 1784.88 1784.99993" height="2380" preserveAspectRatio="xMidYMid meet" version="1.0"><defs><clipPath id="109975a44b"><path d="M 0.199219 0.332031 L 1759.519531 0.332031 L 1759.519531 1559.746094 L 0.199219 1559.746094 Z M 0.199219 0.332031 " clip-rule="nonzero"/></clipPath><clipPath id="ae718cafbf"><path d="M 351.183594 797.15625 L 390.390625 797.15625 L 390.390625 836.363281 L 351.183594 836.363281 Z M 351.183594 797.15625 " clip-rule="nonzero"/></clipPath><clipPath id="02cae63519"><path d="M 370.789062 797.15625 C 359.960938 797.15625 351.183594 805.929688 351.183594 816.757812 C 351.183594 827.585938 359.960938 836.363281 370.789062 836.363281 C 381.617188 836.363281 390.390625 827.585938 390.390625 816.757812 C 390.390625 805.929688 381.617188 797.15625 370.789062 797.15625 Z M 370.789062 797.15625 " clip-rule="nonzero"/></clipPath><clipPath id="7b2950ee05"><path d="M 0.183594 0.15625 L 39.390625 0.15625 L 39.390625 39.363281 L 0.183594 39.363281 Z M 0.183594 0.15625 " clip-rule="nonzero"/></clipPath><clipPath id="2b8e904820"><path d="M 19.789062 0.15625 C 8.960938 0.15625 0.183594 8.929688 0.183594 19.757812 C 0.183594 30.585938 8.960938 39.363281 19.789062 39.363281 C 30.617188 39.363281 39.390625 30.585938 39.390625 19.757812 C 39.390625 8.929688 30.617188 0.15625 19.789062 0.15625 Z M 19.789062 0.15625 " clip-rule="nonzero"/></clipPath><clipPath id="359332f189"><rect x="0" width="40" y="0" height="40"/></clipPath><clipPath id="9bddc33683"><path d="M 242.773438 802.765625 L 270.757812 802.765625 L 270.757812 830.75 L 242.773438 830.75 Z M 242.773438 802.765625 " clip-rule="nonzero"/></clipPath><clipPath id="7e3f316f98"><path d="M 256.765625 802.765625 C 249.039062 802.765625 242.773438 809.03125 242.773438 816.757812 C 242.773438 824.484375 249.039062 830.75 256.765625 830.75 C 264.492188 830.75 270.757812 824.484375 270.757812 816.757812 C 270.757812 809.03125 264.492188 802.765625 256.765625 802.765625 Z M 256.765625 802.765625 " clip-rule="nonzero"/></clipPath><clipPath id="1475402edf"><path d="M 0.773438 0.765625 L 28.757812 0.765625 L 28.757812 28.75 L 0.773438 28.75 Z M 0.773438 0.765625 " clip-rule="nonzero"/></clipPath><clipPath id="8614d95bb2"><path d="M 14.765625 0.765625 C 7.039062 0.765625 0.773438 7.03125 0.773438 14.757812 C 0.773438 22.484375 7.039062 28.75 14.765625 28.75 C 22.492188 28.75 28.757812 22.484375 28.757812 14.757812 C 28.757812 7.03125 22.492188 0.765625 14.765625 0.765625 Z M 14.765625 0.765625 " clip-rule="nonzero"/></clipPath><clipPath id="22720812e3"><rect x="0" width="29" y="0" height="29"/></clipPath><clipPath id="139d02e96d"><path d="M 295.722656 801.511719 L 326.21875 801.511719 L 326.21875 832.007812 L 295.722656 832.007812 Z M 295.722656 801.511719 " clip-rule="nonzero"/></clipPath><clipPath id="bf2ae6711e"><path d="M 310.96875 801.511719 C 302.550781 801.511719 295.722656 808.335938 295.722656 816.757812 C 295.722656 825.179688 302.550781 832.007812 310.96875 832.007812 C 319.390625 832.007812 326.21875 825.179688 326.21875 816.757812 C 326.21875 808.335938 319.390625 801.511719 310.96875 801.511719 Z M 310.96875 801.511719 " clip-rule="nonzero"/></clipPath><clipPath id="d172d58021"><path d="M 0.722656 0.511719 L 31.21875 0.511719 L 31.21875 31.007812 L 0.722656 31.007812 Z M 0.722656 0.511719 " clip-rule="nonzero"/></clipPath><clipPath id="95388ea00e"><path d="M 15.96875 0.511719 C 7.550781 0.511719 0.722656 7.335938 0.722656 15.757812 C 0.722656 24.179688 7.550781 31.007812 15.96875 31.007812 C 24.390625 31.007812 31.21875 24.179688 31.21875 15.757812 C 31.21875 7.335938 24.390625 0.511719 15.96875 0.511719 Z M 15.96875 0.511719 " clip-rule="nonzero"/></clipPath><clipPath id="581e9a09d8"><rect x="0" width="32" y="0" height="32"/></clipPath><clipPath id="2ebcc2707f"><path d="M 1463.949219 807.117188 L 1483.226562 807.117188 L 1483.226562 826.398438 L 1463.949219 826.398438 Z M 1463.949219 807.117188 " clip-rule="nonzero"/></clipPath><clipPath id="ad22ebc2a9"><path d="M 1473.585938 807.117188 C 1468.261719 807.117188 1463.949219 811.433594 1463.949219 816.757812 C 1463.949219 822.082031 1468.261719 826.398438 1473.585938 826.398438 C 1478.910156 826.398438 1483.226562 822.082031 1483.226562 816.757812 C 1483.226562 811.433594 1478.910156 807.117188 1473.585938 807.117188 Z M 1473.585938 807.117188 " clip-rule="nonzero"/></clipPath><clipPath id="eb3b235e65"><path d="M 0.949219 0.117188 L 20.226562 0.117188 L 20.226562 19.398438 L 0.949219 19.398438 Z M 0.949219 0.117188 " clip-rule="nonzero"/></clipPath><clipPath id="fb651f5ea2"><path d="M 10.585938 0.117188 C 5.261719 0.117188 0.949219 4.433594 0.949219 9.757812 C 0.949219 15.082031 5.261719 19.398438 10.585938 19.398438 C 15.910156 19.398438 20.226562 15.082031 20.226562 9.757812 C 20.226562 4.433594 15.910156 0.117188 10.585938 0.117188 Z M 10.585938 0.117188 " clip-rule="nonzero"/></clipPath><clipPath id="8d4eb7f42a"><rect x="0" width="21" y="0" height="20"/></clipPath><clipPath id="13922805d3"><path d="M 1275.074219 797.15625 L 1314.28125 797.15625 L 1314.28125 836.363281 L 1275.074219 836.363281 Z M 1275.074219 797.15625 " clip-rule="nonzero"/></clipPath><clipPath id="36cf163bb3"><path d="M 1294.679688 797.15625 C 1283.851562 797.15625 1275.074219 805.929688 1275.074219 816.757812 C 1275.074219 827.585938 1283.851562 836.363281 1294.679688 836.363281 C 1305.503906 836.363281 1314.28125 827.585938 1314.28125 816.757812 C 1314.28125 805.929688 1305.503906 797.15625 1294.679688 797.15625 Z M 1294.679688 797.15625 " clip-rule="nonzero"/></clipPath><clipPath id="20a39ac424"><path d="M 0.0742188 0.15625 L 39.28125 0.15625 L 39.28125 39.363281 L 0.0742188 39.363281 Z M 0.0742188 0.15625 " clip-rule="nonzero"/></clipPath><clipPath id="14525d9bd7"><path d="M 19.679688 0.15625 C 8.851562 0.15625 0.0742188 8.929688 0.0742188 19.757812 C 0.0742188 30.585938 8.851562 39.363281 19.679688 39.363281 C 30.503906 39.363281 39.28125 30.585938 39.28125 19.757812 C 39.28125 8.929688 30.503906 0.15625 19.679688 0.15625 Z M 19.679688 0.15625 " clip-rule="nonzero"/></clipPath><clipPath id="ff7334a883"><rect x="0" width="40" y="0" height="40"/></clipPath><clipPath id="fb1049e699"><path d="M 1344.257812 800.882812 L 1376.011719 800.882812 L 1376.011719 832.632812 L 1344.257812 832.632812 Z M 1344.257812 800.882812 " clip-rule="nonzero"/></clipPath><clipPath id="496d237ecc"><path d="M 1360.136719 800.882812 C 1351.367188 800.882812 1344.257812 807.988281 1344.257812 816.757812 C 1344.257812 825.527344 1351.367188 832.632812 1360.136719 832.632812 C 1368.902344 832.632812 1376.011719 825.527344 1376.011719 816.757812 C 1376.011719 807.988281 1368.902344 800.882812 1360.136719 800.882812 Z M 1360.136719 800.882812 " clip-rule="nonzero"/></clipPath><clipPath id="1896f6c553"><path d="M 0.257812 0.882812 L 32.011719 0.882812 L 32.011719 32.632812 L 0.257812 32.632812 Z M 0.257812 0.882812 " clip-rule="nonzero"/></clipPath><clipPath id="8cc361f460"><path d="M 16.136719 0.882812 C 7.367188 0.882812 0.257812 7.988281 0.257812 16.757812 C 0.257812 25.527344 7.367188 32.632812 16.136719 32.632812 C 24.902344 32.632812 32.011719 25.527344 32.011719 16.757812 C 32.011719 7.988281 24.902344 0.882812 16.136719 0.882812 Z M 16.136719 0.882812 " clip-rule="nonzero"/></clipPath><clipPath id="f58130ef2f"><rect x="0" width="33" y="0" height="33"/></clipPath><clipPath id="c870c0cd18"><path d="M 1405.988281 802.765625 L 1433.96875 802.765625 L 1433.96875 830.75 L 1405.988281 830.75 Z M 1405.988281 802.765625 " clip-rule="nonzero"/></clipPath><clipPath id="adbe88c949"><path d="M 1419.980469 802.765625 C 1412.253906 802.765625 1405.988281 809.03125 1405.988281 816.757812 C 1405.988281 824.484375 1412.253906 830.75 1419.980469 830.75 C 1427.707031 830.75 1433.96875 824.484375 1433.96875 816.757812 C 1433.96875 809.03125 1427.707031 802.765625 1419.980469 802.765625 Z M 1419.980469 802.765625 " clip-rule="nonzero"/></clipPath><clipPath id="bd186e4c59"><path d="M 0.988281 0.765625 L 28.96875 0.765625 L 28.96875 28.75 L 0.988281 28.75 Z M 0.988281 0.765625 " clip-rule="nonzero"/></clipPath><clipPath id="f33b97ea66"><path d="M 14.980469 0.765625 C 7.253906 0.765625 0.988281 7.03125 0.988281 14.757812 C 0.988281 22.484375 7.253906 28.75 14.980469 28.75 C 22.707031 28.75 28.96875 22.484375 28.96875 14.757812 C 28.96875 7.03125 22.707031 0.765625 14.980469 0.765625 Z M 14.980469 0.765625 " clip-rule="nonzero"/></clipPath><clipPath id="121fa8348c"><rect x="0" width="29" y="0" height="29"/></clipPath><clipPath id="79e6d84839"><rect x="0" width="1760" y="0" height="1560"/></clipPath><clipPath id="5cb1f99372"><rect x="0" width="1760" y="0" height="1560"/></clipPath></defs><g transform="matrix(1, 0, 0, 1, 13, 113)"><g clip-path="url(#5cb1f99372)"><g clip-path="url(#109975a44b)"><g transform="matrix(1, 0, 0, 1, 0, -0.000000000000099476)"><g clip-path="url(#79e6d84839)"><path fill="#caa63e" d="M 830.304688 67.730469 C 889.59375 64.492188 949.0625 67.71875 1007.652344 77.347656 C 1200.933594 108.234375 1373.984375 214.785156 1488.617188 373.484375 C 1602.984375 533.070312 1652.910156 728.53125 1620.488281 922.945312 C 1602.050781 1033.492188 1557.460938 1143.1875 1490.207031 1233.085938 C 1480.984375 1245.410156 1468.332031 1265.089844 1455.492188 1273.507812 C 1449.492188 1277.441406 1444.304688 1279.042969 1437.355469 1277.734375 C 1436 1273.261719 1436.246094 1271.882812 1438.664062 1267.707031 C 1445.296875 1256.265625 1456.320312 1244.988281 1464.585938 1234.433594 C 1478.074219 1217.097656 1490.679688 1199.082031 1502.351562 1180.46875 C 1524.105469 1145.53125 1542.953125 1108.871094 1558.695312 1070.855469 C 1630.078125 895.617188 1627.851562 699 1552.488281 525.429688 C 1477.558594 349.1875 1335.535156 210.058594 1157.824219 138.789062 C 972.71875 65.296875 766.085938 67.929688 582.914062 146.117188 C 404.664062 222.640625 264.945312 368.039062 195.554688 549.230469 C 128.007812 723.683594 132.210938 917.785156 207.253906 1089.148438 C 282.378906 1260.628906 421.992188 1395.617188 595.875 1464.894531 C 586.730469 1445.835938 577.117188 1427.390625 570.828125 1407.121094 C 547.933594 1333.320312 578.054688 1271.015625 624.246094 1215.042969 C 649.09375 1184.929688 671.105469 1156.390625 675.480469 1115.9375 C 681.988281 1055.734375 650.054688 972.25 611.796875 925.351562 C 599.117188 973.144531 582.601562 1019.839844 571.222656 1067.996094 C 562.355469 1105.503906 560.378906 1146.167969 546.777344 1182.332031 C 530.089844 1226.707031 503.53125 1267.160156 481.605469 1309.070312 C 472.785156 1325.917969 462.039062 1356.28125 446.378906 1367.320312 L 442.109375 1366.28125 C 435.957031 1350.566406 473.285156 1289.121094 482.382812 1273.054688 C 499.75 1242.382812 519.046875 1212.316406 530.824219 1178.890625 C 544.269531 1140.746094 546.089844 1098.066406 555.203125 1058.609375 C 569.078125 998.554688 592.769531 939.667969 598.996094 878.136719 C 661.46875 948.917969 722.03125 1079.238281 675.859375 1170.992188 C 665.324219 1191.933594 650.601562 1207.835938 635.738281 1225.578125 C 603.0625 1264.589844 579.359375 1307.511719 577.71875 1359.519531 C 583.9375 1405.15625 598.632812 1437.414062 622.078125 1476.371094 C 741.785156 1517.441406 862.796875 1530.160156 988.351562 1511.941406 C 1014.457031 1508.152344 1045.242188 1504.414062 1069.609375 1494.042969 C 1000.144531 1488.183594 930.816406 1480.820312 861.667969 1471.960938 C 822.996094 1467.03125 783.269531 1458.667969 744.394531 1457.601562 C 730.066406 1467.101562 714.535156 1476.9375 696.453125 1473.109375 C 687.734375 1471.261719 680.554688 1465.867188 676.066406 1458.203125 C 670.5 1448.6875 669.539062 1436.972656 672.648438 1426.488281 C 675.289062 1417.570312 681.132812 1409.492188 689.515625 1405.214844 C 714.988281 1392.214844 740.503906 1426.128906 767.226562 1434.832031 C 786.542969 1441.25 806.277344 1446.335938 826.289062 1450.058594 C 873.585938 1458.4375 1076.640625 1483.304688 1117.957031 1476.015625 C 1164.21875 1467.851562 1210.589844 1440.164062 1252.175781 1419.238281 C 1246.167969 1416.199219 1240.085938 1413.3125 1233.929688 1410.585938 C 1142.933594 1370.878906 962.675781 1346.136719 867.277344 1375.46875 C 836.996094 1384.78125 813.457031 1407.996094 784.222656 1418.996094 L 782.230469 1419.722656 C 772.292969 1416.714844 761.773438 1413.410156 754.019531 1406.140625 C 724.964844 1378.890625 772.890625 1342.664062 769.910156 1312.660156 C 768.328125 1296.742188 754.714844 1278.644531 741.96875 1269.699219 C 737.171875 1266.332031 735.503906 1266.34375 729.984375 1267.582031 C 727.019531 1277.859375 738.503906 1293.992188 743.253906 1303.183594 C 748.296875 1312.941406 750.386719 1323.984375 746.730469 1334.652344 C 742.171875 1347.9375 725.003906 1392.886719 713.089844 1398.644531 C 712.691406 1398.222656 712.230469 1397.851562 711.902344 1397.378906 C 705.621094 1388.339844 711.773438 1366.390625 713.25 1355.988281 C 712.652344 1354.527344 712.015625 1353.125 711.375 1351.683594 C 697.464844 1320.449219 656.183594 1291.3125 662.585938 1253.277344 C 664.074219 1244.4375 669.1875 1235.019531 676.851562 1230.089844 C 693.738281 1219.21875 732.605469 1239.113281 753.265625 1243 C 758.511719 1247.578125 763.25 1252.777344 767.71875 1258.109375 C 781.996094 1275.148438 792.710938 1298.691406 790.339844 1321.363281 C 788.226562 1341.574219 777.128906 1351.449219 762.011719 1363.570312 C 769.941406 1361.09375 777.828125 1358.5 785.675781 1355.785156 C 801.15625 1350.328125 815.191406 1338.890625 822.144531 1323.839844 C 827.1875 1312.925781 827.734375 1301.789062 823.359375 1290.472656 C 817.351562 1274.933594 810.515625 1272.90625 796.988281 1265.976562 C 791.671875 1263.253906 791.007812 1261.5 789.222656 1256.234375 C 790.464844 1253.042969 790.835938 1251.4375 793.402344 1249.1875 C 797.726562 1245.398438 805.136719 1242.277344 811 1243.195312 C 825.175781 1245.425781 842.816406 1262.757812 849.949219 1274.578125 C 858.652344 1289.015625 862.707031 1308.476562 857.941406 1324.910156 C 850.730469 1349.800781 822.488281 1365.613281 798.917969 1371.480469 C 787.882812 1374.222656 773.007812 1374.726562 763.207031 1380.785156 C 759.394531 1383.144531 759.25 1383.929688 758.207031 1388.203125 C 759.371094 1390.832031 760.34375 1392.445312 762.546875 1394.371094 C 768.554688 1399.632812 776.550781 1403.929688 784.789062 1402.199219 C 799.136719 1399.183594 818.46875 1381.582031 831.398438 1374.128906 C 868.195312 1352.90625 906.800781 1349.640625 948.089844 1346.703125 C 949.75 1284.140625 968.613281 1209.644531 981.546875 1148.222656 C 992.496094 1096.261719 1001.675781 1044 1014.882812 992.527344 C 1022.945312 961.109375 1056.421875 899.910156 1054.152344 872.273438 C 1051.511719 840.125 1022.5625 817.351562 1015.710938 786.234375 C 1013.269531 775.140625 1014.5625 765.667969 1020.753906 755.9375 L 1022.855469 756.570312 C 1032.609375 770.707031 1033.234375 790.941406 1040.375 806.632812 C 1047.550781 822.402344 1060.417969 835.378906 1067.945312 851.34375 C 1086.90625 891.566406 1058.890625 916.9375 1045.679688 954.074219 C 1054.800781 989.777344 1073.253906 1021.015625 1088.578125 1054.132812 C 1101.957031 1083.039062 1113.671875 1113.660156 1130.449219 1140.789062 C 1175.613281 1213.816406 1257.1875 1263.207031 1321.722656 1317.625 C 1333.585938 1327.628906 1351.375 1343.195312 1351.867188 1360.113281 C 1352.070312 1367.132812 1348.03125 1373.398438 1343.59375 1378.507812 C 1327.121094 1397.464844 1299.890625 1412.324219 1278.492188 1425.15625 C 1172.585938 1489.769531 1052.761719 1528.089844 929.03125 1536.917969 C 729.78125 1551.414062 532.882812 1486.511719 381.285156 1356.363281 C 233.027344 1229.285156 142.261719 1047.769531 129.519531 852.882812 C 116.914062 660.515625 180.339844 470.894531 306.128906 324.847656 C 440.359375 170.101562 627.089844 82.132812 830.304688 67.730469 Z M 966.730469 1345.605469 C 1070.222656 1344.886719 1175.761719 1359.925781 1269.078125 1407.117188 C 1286.210938 1402.476562 1325.003906 1371.878906 1338.214844 1358.039062 C 1316.304688 1324.136719 1264.949219 1293.039062 1232.988281 1268.050781 C 1197.417969 1240.230469 1160.699219 1209.175781 1132.304688 1173.839844 C 1108.890625 1144.703125 1097.488281 1110.933594 1082.609375 1077.296875 C 1068.503906 1045.402344 1053.621094 1012.292969 1037.410156 981.433594 C 1034.375 986.539062 1031.703125 991.660156 1030.09375 997.40625 C 1019.875 1033.785156 1015.199219 1073.867188 1008.179688 1111.0625 C 993.414062 1189.238281 978.34375 1266.84375 966.730469 1345.605469 Z M 714.3125 1459.550781 C 725.390625 1454.636719 730.476562 1441.730469 725.722656 1430.578125 C 720.972656 1419.421875 708.144531 1414.152344 696.925781 1418.746094 C 689.527344 1421.777344 684.328125 1428.558594 683.328125 1436.496094 C 682.324219 1444.433594 685.671875 1452.292969 692.089844 1457.070312 C 698.507812 1461.84375 706.996094 1462.792969 714.3125 1459.550781 Z M 695.695312 1271.542969 C 699.527344 1265.195312 702.195312 1260.816406 702.222656 1253.097656 C 700.09375 1248.207031 699.023438 1245.167969 693.746094 1242.839844 C 690.332031 1241.332031 685.390625 1240.90625 681.691406 1240.648438 C 677.917969 1247.417969 674.949219 1253.527344 677.152344 1261.519531 C 678.503906 1266.445312 680.558594 1267.75 684.246094 1271.058594 C 688.738281 1272.285156 691.101562 1272.316406 695.695312 1271.542969 Z M 695.695312 1271.542969 " fill-opacity="1" fill-rule="nonzero"/><path fill="#caa63e" d="M 858.921875 137.742188 C 887.847656 132.265625 925.011719 141.707031 951.492188 152.589844 C 1008.910156 176.191406 1055.835938 238.640625 1051.507812 302.441406 C 1050.167969 322.148438 1040.523438 340.707031 1042.996094 360.78125 C 1045.046875 377.425781 1056.617188 391.289062 1062.660156 406.625 C 1065.191406 413.042969 1067.640625 422.800781 1064.289062 429.246094 C 1057.105469 443.050781 1039.78125 433.804688 1028.355469 438.289062 C 1028.113281 443.734375 1034.964844 450.972656 1036.394531 457.332031 C 1034.648438 471.121094 1026.535156 467.925781 1017.839844 475.503906 L 1021.960938 487.382812 C 1018.863281 494.894531 1011.035156 494.597656 1007.640625 501.730469 C 1002.398438 512.746094 1007.25 525.175781 995.804688 533.632812 C 970.453125 552.371094 942.867188 528.097656 917.375 525.136719 C 913.535156 524.691406 907.597656 525.152344 904.453125 527.640625 C 896.878906 533.628906 893.578125 544.007812 892.699219 553.375 C 884.5 640.746094 1026.304688 597.800781 1075.316406 657.71875 C 1117.261719 709 1134.636719 826.410156 1152.972656 892.265625 C 1164.878906 935.023438 1178.957031 975.839844 1199.527344 1015.242188 C 1250.8125 1113.457031 1359.78125 1239.289062 1434.910156 1324.71875 C 1456.9375 1349.761719 1481.269531 1373.742188 1502.078125 1399.6875 C 1518.996094 1420.792969 1533.941406 1449.78125 1530.617188 1477.667969 C 1529.628906 1486.101562 1527.925781 1493.167969 1521.027344 1498.679688 C 1516.21875 1499.578125 1515.421875 1500.554688 1511.234375 1497.699219 C 1509.421875 1490.753906 1515.421875 1463.351562 1515.449219 1451.628906 L 1509.125 1448.742188 L 1509.695312 1447.320312 C 1504.539062 1458.371094 1505.453125 1479.371094 1497.226562 1486.433594 L 1492.578125 1484.886719 C 1488.511719 1465.753906 1500.777344 1445.011719 1493.589844 1425.65625 C 1483.761719 1434.265625 1488.273438 1460.296875 1478.050781 1469.121094 L 1474.742188 1468.03125 C 1468.558594 1452.855469 1475.132812 1434.523438 1471.242188 1418.558594 C 1468.539062 1407.460938 1464.144531 1406.433594 1455.699219 1400.683594 C 1443.398438 1392.316406 1445.574219 1385.175781 1442.648438 1372.457031 C 1440.78125 1364.328125 1434.625 1355.855469 1429.640625 1349.371094 C 1415.941406 1331.546875 1400.167969 1314.851562 1385.832031 1297.457031 C 1311.921875 1207.765625 1232.765625 1117.328125 1180.414062 1012.777344 C 1161.648438 975.304688 1147.792969 936.054688 1136.183594 895.824219 C 1118.914062 836.003906 1099.625 715.257812 1062.773438 670.746094 C 1023.742188 623.605469 946.777344 647.054688 899.550781 615.136719 C 886.304688 606.179688 878.476562 592.605469 875.492188 577.027344 C 872.070312 559.179688 875.761719 535.425781 886.492188 520.445312 C 910.800781 486.511719 945.785156 529.757812 974.277344 522.867188 C 988.300781 519.476562 985.152344 507.832031 991.699219 498.003906 C 995.792969 491.851562 1001.683594 487.4375 1005.769531 480.878906 C 993.828125 458.398438 1016.632812 466.085938 1019.757812 452.257812 C 1016.257812 446.851562 1012.449219 442.425781 1012.929688 435.699219 C 1022.570312 421.945312 1035.382812 430.148438 1047.707031 423.441406 C 1050.75 421.785156 1050.160156 420.839844 1051.03125 417.683594 C 1046.808594 397.378906 1031.605469 380.746094 1028.359375 360.113281 C 1019.355469 302.855469 1056.25 298.171875 1012.347656 232.164062 C 999.15625 255.300781 984.945312 276.613281 967.835938 297.050781 C 954.925781 311.441406 938.769531 324.371094 922.566406 334.804688 C 870.851562 368.097656 794.683594 378.050781 734.726562 364.289062 C 726.675781 362.441406 717.292969 360.238281 712.652344 352.851562 C 713.300781 350.121094 713.492188 347.582031 716.890625 346.921875 C 731.570312 344.089844 761.683594 351.222656 777.820312 352.121094 C 828.507812 354.9375 878.996094 345.867188 920.957031 315.742188 C 957.417969 289.570312 989.710938 248.84375 997.316406 203.625 C 985.921875 192.703125 973.488281 184.203125 959.21875 177.402344 C 915.621094 156.632812 861.242188 154.308594 815.957031 170.980469 C 757.148438 192.628906 728.429688 240.175781 703.84375 294.375 C 689.1875 292.933594 669.667969 285.910156 656.539062 294.882812 C 645.445312 302.46875 639.832031 316.324219 637.191406 329.03125 C 632.199219 353.039062 634.699219 384.007812 648.660156 404.84375 C 655.050781 414.382812 664.175781 421.742188 675.753906 423.722656 C 693.503906 426.753906 707.085938 418.195312 721.128906 408.800781 C 719.046875 400.5 715.519531 389.085938 718.523438 380.851562 C 721.539062 381.542969 722.066406 381.96875 724.285156 383.972656 C 749.730469 406.9375 764.058594 416.773438 800.023438 419.109375 C 808.3125 419.648438 816.382812 418.453125 824.667969 419.527344 C 825.265625 424.113281 825.15625 427.710938 824.460938 432.269531 C 811.863281 439.949219 754.378906 427.261719 737.042969 424.132812 C 740.90625 447.851562 739.792969 471.082031 733.503906 494.320312 C 715.242188 561.785156 671.765625 606.394531 607.195312 630.675781 C 581.558594 640.320312 554.289062 648.097656 530.628906 662.101562 C 504.691406 677.453125 491.632812 697.335938 483.410156 726.019531 C 458.578125 812.640625 469.027344 930.214844 451.78125 1022.164062 C 442.324219 1072.59375 420.347656 1116.890625 402.890625 1164.632812 C 388.722656 1203.378906 378.402344 1243.640625 368.402344 1283.609375 C 364.84375 1286.804688 362.398438 1285.910156 357.726562 1285.988281 C 355.40625 1283.65625 355.101562 1283.585938 354.894531 1280.242188 C 351.800781 1229.492188 415.964844 1099.457031 430.503906 1040.25 C 453.039062 948.496094 430.96875 747.253906 482.265625 678.886719 C 526.175781 620.363281 619.214844 626.683594 673.375 566.015625 C 704.753906 530.867188 717.964844 484.410156 715.605469 437.929688 C 699.742188 443.054688 683.90625 445.949219 667.453125 441.644531 C 649.492188 436.949219 635.972656 424.511719 626.894531 408.660156 C 611.367188 381.542969 607.582031 346.292969 616.152344 316.339844 C 620.9375 299.621094 630.171875 282.511719 646.191406 274.257812 C 662.988281 265.601562 677.378906 270.242188 694.195312 275.789062 C 704.480469 249.453125 718.867188 224.90625 736.816406 203.058594 C 768.394531 164.808594 809.664062 142.542969 858.921875 137.742188 Z M 858.921875 137.742188 " fill-opacity="1" fill-rule="nonzero"/><path fill="#caa63e" d="M 820.523438 663.464844 C 825.964844 663.601562 831.394531 664 836.792969 664.667969 C 857.601562 667.4375 874.96875 684.132812 887.058594 700.175781 C 917.492188 740.5625 952.925781 808.207031 959.441406 858.746094 C 962.722656 884.222656 960.996094 909.851562 963.457031 935.320312 C 966.136719 963.066406 973.019531 990.996094 968.746094 1018.894531 C 967.101562 1029.628906 964.359375 1046.167969 955.085938 1052.855469 C 943.167969 1052.570312 928.054688 1034.410156 919.453125 1026.289062 L 905.421875 1040.835938 C 913.265625 1047.75 932.148438 1061.265625 932.914062 1071.867188 C 932.328125 1071.878906 931.734375 1071.96875 931.148438 1071.902344 C 919.757812 1070.617188 907.542969 1055.742188 899.773438 1047.917969 C 892.90625 1051.300781 885.894531 1054.921875 878.617188 1057.316406 C 852.144531 1066.03125 824.539062 1062.863281 800.082031 1049.960938 C 756.453125 1026.949219 707.300781 975.8125 692.851562 928.53125 C 705.828125 945.992188 720.6875 962.421875 735.542969 978.285156 C 762.773438 1007.355469 798.667969 1045.609375 841.308594 1046.628906 C 862.386719 1047.128906 887.101562 1037.144531 902.035156 1022.242188 C 906.675781 1017.613281 910.96875 1011.832031 911.027344 1005.078125 C 902.039062 1004.046875 887.035156 1013.820312 876.085938 1015.167969 C 830.988281 1020.722656 787.210938 992.070312 753.390625 965.269531 C 719.589844 938.480469 694.335938 914.027344 689.253906 869.429688 C 693.894531 878.089844 698.28125 886.90625 703.605469 895.183594 C 732.902344 940.738281 793.558594 989.535156 847.4375 1000.917969 C 864.757812 1004.578125 881.921875 1003.515625 896.84375 993.238281 C 908.199219 985.421875 931.179688 961.796875 933.585938 948.261719 C 928.332031 948.015625 920.214844 954.105469 914.988281 956.144531 C 876.273438 971.210938 829.347656 958.171875 793.273438 941.421875 C 752.105469 922.304688 711.230469 891.136719 695.316406 847.394531 L 728.078125 880.730469 C 753.128906 903.539062 780.5 921.035156 811.992188 933.59375 C 842.457031 945.742188 879.972656 955.570312 911.464844 941.480469 C 923.695312 936.003906 935.535156 925.859375 940.347656 913.066406 C 943.097656 905.753906 946.804688 893.859375 943.425781 886.441406 C 935.671875 887.566406 917.34375 905.984375 904.132812 910.324219 C 866.195312 922.78125 822.984375 904.828125 789.246094 887.585938 C 766.453125 875.933594 703.644531 836.226562 697.816406 811.144531 C 696.59375 805.867188 697.554688 803.808594 700.320312 799.425781 C 712.589844 806.617188 724.359375 823.671875 734.472656 834.320312 C 757.410156 858.476562 788.613281 874.253906 819.410156 886.222656 C 848.046875 897.347656 881.375 906.847656 910.855469 893.363281 C 922.128906 888.207031 937.003906 877.046875 940.976562 864.859375 C 942.722656 859.5 941.667969 855.546875 939.34375 850.621094 C 932.355469 849.6875 918.453125 857.828125 910.84375 859.730469 C 884.078125 866.417969 851.964844 863.65625 825.683594 856.105469 C 777 842.117188 730.980469 807.097656 706.285156 762.71875 L 712.234375 742.691406 C 714.230469 750.1875 716.488281 757.472656 720.457031 764.195312 C 744.167969 804.355469 787.484375 832.601562 832.097656 843.902344 C 872.070312 854.027344 902.160156 848.347656 936.980469 827.839844 C 933.855469 818.964844 929.632812 810.488281 925.675781 801.957031 C 912.460938 810.734375 901.582031 815.597656 885.703125 817.492188 C 841.4375 822.78125 801.746094 806.640625 767.636719 779.460938 C 747.585938 763.488281 714.320312 731.605469 711.226562 704.824219 L 713.402344 703.3125 C 717.058594 705.199219 720.738281 707.039062 724.449219 708.828125 C 726.691406 703.558594 726.9375 700.683594 725.691406 695.097656 C 721.785156 690.3125 720.132812 689.335938 713.714844 688.144531 C 681.25 682.128906 621.679688 699.09375 584.089844 690.691406 C 578.929688 689.539062 571.269531 687.585938 568.417969 682.964844 L 570.503906 680.164062 C 596.578125 668.988281 777.515625 665.773438 820.523438 663.464844 Z M 731.550781 719.234375 C 752.242188 757.988281 790.800781 788.839844 832.945312 801.464844 C 855.089844 808.097656 884 810.359375 905.105469 798.980469 C 905.449219 798.792969 905.789062 798.589844 906.132812 798.394531 C 911.71875 795.441406 915.113281 794.835938 917.710938 788.707031 C 916.210938 780.121094 908.171875 771.957031 902.855469 765.148438 C 887.472656 775.761719 872.289062 779.636719 853.6875 776.25 C 810.707031 768.429688 771.699219 728.941406 748.191406 694.144531 L 747.253906 692.75 C 743.675781 702.929688 737.957031 710.644531 731.550781 719.234375 Z M 897.132812 753.539062 C 894.835938 738.027344 884.738281 727.578125 875.089844 715.921875 C 858.714844 722.695312 844.503906 725.253906 827.617188 718.089844 C 810.492188 710.820312 795.164062 695.257812 780.917969 683.289062 C 772.53125 683.289062 764.101562 683.121094 755.71875 683.363281 C 775.429688 718.398438 809.914062 750.140625 849.449219 760.933594 C 863.023438 764.640625 877.3125 765.113281 889.964844 758.195312 C 892.46875 756.828125 894.820312 755.207031 897.132812 753.539062 Z M 848.121094 712.925781 C 854.410156 710.007812 858.296875 709.039062 862.242188 703.148438 C 861.832031 697.398438 861.722656 695.320312 857.15625 691.179688 C 847.101562 682.082031 832.265625 680.710938 819.410156 682.078125 L 806.359375 682.304688 L 803.824219 684.945312 C 807.59375 695.8125 823.253906 703.839844 832.984375 708.664062 C 837.667969 710.988281 842.957031 712.265625 848.121094 712.925781 Z M 953.667969 996.300781 L 956.269531 995.355469 C 957.972656 984.308594 954.882812 966.679688 949.480469 956.847656 C 945.824219 965.570312 939.683594 976.472656 940.648438 986.035156 C 944.0625 992.703125 947.117188 993.175781 953.667969 996.300781 Z M 953.667969 996.300781 " fill-opacity="1" fill-rule="nonzero"/><path fill="#caa63e" d="M 560.980469 697.652344 C 563.945312 697.644531 566.921875 697.664062 569.875 697.953125 C 579.550781 698.90625 589.9375 704.128906 595.722656 712.054688 C 604.441406 723.996094 603.757812 735.570312 601.527344 749.359375 C 593.945312 756.28125 583.402344 762.242188 577.265625 770.453125 C 560.511719 792.863281 522.1875 1008.023438 520.941406 1042.574219 C 520.277344 1060.851562 527.199219 1077.839844 529.507812 1095.816406 L 527.75 1096.261719 C 521.707031 1089.820312 515.507812 1083.523438 509.15625 1077.386719 C 504.757812 1075.164062 499.859375 1072.367188 495.015625 1071.351562 C 480.949219 1068.402344 463.832031 1082.621094 452.679688 1089.804688 C 464.738281 1070.902344 480.457031 1051.8125 488.796875 1031.054688 C 503.601562 994.214844 538.085938 814.449219 538.9375 773.320312 C 539.289062 756.21875 522.429688 732.636719 530.730469 717.03125 C 536.933594 705.367188 549.039062 700.910156 560.980469 697.652344 Z M 560.980469 697.652344 " fill-opacity="1" fill-rule="nonzero"/><path fill="#caa63e" d="M 623.800781 702.296875 C 632.480469 701.871094 641.15625 701.558594 649.839844 701.363281 C 659.785156 701.226562 673.292969 702.09375 680.378906 710.015625 C 685.3125 715.527344 686.125 729.40625 686.472656 736.558594 C 687.515625 758.160156 683.570312 780.246094 682.808594 801.859375 C 682.171875 820.125 685.5625 843.25 681.894531 860.949219 C 680.671875 866.855469 675.476562 869.390625 671 872.730469 C 669.1875 872.382812 668.519531 872.328125 666.898438 871.792969 C 659.222656 869.25 651.941406 861.148438 646.828125 855.117188 C 602.46875 802.84375 626.164062 735.300781 611.449219 709.136719 C 611.035156 708.40625 610.601562 707.691406 610.179688 706.96875 C 613.914062 703.527344 618.898438 703.34375 623.800781 702.296875 Z M 667.460938 748.625 C 670.757812 742.074219 674.125 736.773438 673.515625 729.199219 C 670.691406 724.0625 669.640625 722.09375 663.585938 720.335938 C 655.121094 717.878906 643.667969 719.910156 634.996094 720.710938 C 635.515625 733.472656 634.691406 744.496094 643.984375 754.359375 C 649.710938 756.257812 652.578125 757.035156 658.570312 754.671875 C 661.609375 753.472656 664.90625 750.574219 667.460938 748.625 Z M 667.460938 748.625 " fill-opacity="1" fill-rule="nonzero"/><path fill="#caa63e" d="M 476.414062 1091.15625 C 479.371094 1091.21875 482.320312 1091.535156 485.226562 1092.101562 C 492.179688 1093.445312 498.492188 1097.398438 502.1875 1103.546875 C 505.882812 1109.683594 506.835938 1118.300781 504.808594 1125.144531 C 499.824219 1141.9375 483.808594 1156.117188 477.199219 1172.761719 C 455.109375 1228.351562 441.296875 1288.609375 426.511719 1346.421875 L 422.117188 1349.949219 C 416.328125 1350.5625 413.132812 1350.992188 408.015625 1347.988281 C 403.375 1338.515625 410.3125 1316.28125 413.011719 1305.742188 C 425.390625 1257.425781 448.167969 1211.230469 458.429688 1162.628906 C 462.066406 1145.421875 456.523438 1127.074219 460 1110.003906 C 461.929688 1100.539062 469.03125 1096.234375 476.414062 1091.15625 Z M 476.414062 1091.15625 " fill-opacity="1" fill-rule="nonzero"/><path fill="#caa63e" d="M 786.085938 1156.996094 C 793.441406 1156.992188 799.265625 1157.253906 805.953125 1160.582031 C 812.074219 1163.632812 813.902344 1166.820312 815.898438 1172.871094 C 815.472656 1177.996094 814.335938 1181.515625 811.085938 1185.59375 C 800.71875 1198.585938 787.707031 1198.902344 772.445312 1200.59375 C 779.886719 1203.636719 788.988281 1207.65625 793.949219 1214.28125 C 799.355469 1221.507812 798.414062 1228.484375 796.878906 1236.71875 C 790.371094 1239.894531 780.589844 1242.304688 773.363281 1242 C 766.5625 1241.710938 761.027344 1239.441406 756.636719 1234.21875 C 753.871094 1230.933594 753.523438 1225.203125 754.03125 1221.148438 C 755.304688 1211.054688 758.203125 1206.660156 765.976562 1200.5625 C 768.800781 1198.34375 768.828125 1196.335938 769.910156 1193.011719 C 768.652344 1188.644531 766 1181.714844 766.949219 1177.214844 C 768.710938 1168.902344 779.652344 1161.730469 786.085938 1156.996094 Z M 786.085938 1156.996094 " fill-opacity="1" fill-rule="nonzero"/><path fill="#caa63e" d="M 704.550781 982.707031 C 743.113281 1024.203125 781.835938 1082.816406 844.546875 1085.085938 C 852.675781 1085.378906 878.386719 1078.582031 881.949219 1080.699219 C 880.585938 1086.484375 878.589844 1090.007812 873.089844 1093.003906 C 855.578125 1102.542969 824.691406 1095.148438 807.195312 1088.882812 C 800.671875 1086.546875 794.320312 1083.722656 788.015625 1080.859375 L 778.285156 1075.75 C 746.683594 1052.640625 718.347656 1019.441406 704.550781 982.707031 Z M 704.550781 982.707031 " fill-opacity="1" fill-rule="nonzero"/><path fill="#caa63e" d="M 661.808594 1349.253906 C 668.132812 1348.476562 672.59375 1347.800781 678.644531 1350.566406 C 683.773438 1355.589844 686.710938 1361.964844 687.867188 1369.035156 C 691.695312 1392.359375 661.234375 1394.691406 650.625 1409.851562 C 632.5625 1435.664062 668.054688 1443.210938 671.214844 1462.042969 C 659.03125 1461.128906 648.855469 1456.484375 640.992188 1447.066406 C 634.015625 1438.710938 630.707031 1428.136719 632.230469 1417.300781 C 635.804688 1391.925781 656.203125 1393.214844 671.425781 1379.382812 C 675.539062 1375.640625 675.78125 1372.582031 676.421875 1367.460938 C 674.167969 1359.800781 667.398438 1354.675781 661.808594 1349.253906 Z M 661.808594 1349.253906 " fill-opacity="1" fill-rule="nonzero"/><path fill="#caa63e" d="M 1364.03125 1331.035156 C 1366.101562 1331.457031 1367.988281 1331.847656 1369.941406 1332.667969 C 1385.765625 1339.304688 1427.15625 1414.375 1435.363281 1432.773438 C 1430.476562 1432.351562 1424.644531 1432.164062 1420.082031 1430.28125 C 1399.777344 1421.882812 1372.527344 1352.128906 1364.03125 1331.035156 Z M 1364.03125 1331.035156 " fill-opacity="1" fill-rule="nonzero"/><path fill="#caa63e" d="M 782.808594 1116.253906 C 788.054688 1115.710938 794.117188 1115.050781 799.25 1116.578125 C 803.046875 1117.703125 805.351562 1120.058594 807.222656 1123.441406 C 809.203125 1127.03125 809.449219 1131.144531 808.183594 1135.09375 C 804.933594 1145.222656 797.257812 1149.695312 788.277344 1153.832031 C 785.882812 1153.730469 783.492188 1153.617188 781.113281 1153.34375 C 773.882812 1152.515625 769.609375 1150.15625 765.144531 1144.492188 C 764.574219 1141.992188 763.375 1139.035156 763.964844 1136.542969 C 766.582031 1125.523438 773.769531 1121.644531 782.808594 1116.253906 Z M 782.808594 1116.253906 " fill-opacity="1" fill-rule="nonzero"/><path fill="#caa63e" d="M 771.460938 1079.1875 C 776.121094 1080.417969 780.132812 1083.375 782.691406 1087.457031 C 787.535156 1095.183594 786.207031 1105.257812 779.523438 1111.464844 C 772.84375 1117.664062 762.699219 1118.242188 755.359375 1112.835938 C 748.015625 1107.433594 745.554688 1097.570312 749.488281 1089.347656 C 753.425781 1081.121094 762.652344 1076.859375 771.460938 1079.1875 Z M 771.460938 1079.1875 " fill-opacity="1" fill-rule="nonzero"/><path fill="#caa63e" d="M 756.777344 567.804688 C 767.460938 567.257812 777.234375 568.453125 785.652344 575.902344 C 789.738281 579.515625 790.203125 582.0625 790.828125 587.257812 C 788.757812 593.152344 786.132812 595.242188 781 598.628906 C 772.765625 596.730469 764.386719 594.71875 756.710938 591.105469 C 750.945312 588.390625 749.25 585.96875 747.179688 580.21875 C 749.332031 573.753906 751.773438 572.171875 756.777344 567.804688 Z M 756.777344 567.804688 " fill-opacity="1" fill-rule="nonzero"/><path fill="#caa63e" d="M 748.84375 600.535156 C 758.054688 601.640625 767.199219 603.765625 775.746094 607.398438 C 782.199219 610.140625 785.742188 612.582031 788.394531 619.164062 C 785.445312 624.566406 783.378906 625.003906 778.082031 627.863281 C 767.679688 627.046875 753.273438 624.828125 744.136719 619.503906 C 739.304688 616.683594 738.328125 615.589844 736.949219 610.285156 C 740.125 604.640625 743.433594 603.578125 748.84375 600.535156 Z M 748.84375 600.535156 " fill-opacity="1" fill-rule="nonzero"/><path fill="#caa63e" d="M 759.328125 534.414062 C 769.21875 533.785156 777.863281 536.292969 786.84375 540.296875 C 792.261719 542.710938 799.484375 546.808594 801.347656 552.875 C 802.421875 556.375 800.367188 558.578125 798.84375 561.730469 C 791.585938 562.851562 784.886719 563.027344 777.683594 561.609375 C 768.855469 559.871094 763.011719 557.421875 757.800781 549.785156 C 755.941406 543.675781 757.101562 540.257812 759.328125 534.414062 Z M 759.328125 534.414062 " fill-opacity="1" fill-rule="nonzero"/><path fill="#caa63e" d="M 734.808594 631.371094 C 747.054688 633.070312 765.777344 637.242188 773.722656 647.640625 C 775.9375 650.539062 775.238281 651.347656 774.792969 654.9375 L 769.996094 657.992188 C 761.738281 657.773438 753.554688 657.597656 745.5 655.566406 C 737.273438 653.484375 732.761719 651.25 728.355469 643.90625 C 729.242188 637.515625 730.839844 636.269531 734.808594 631.371094 Z M 734.808594 631.371094 " fill-opacity="1" fill-rule="nonzero"/><path fill="#caa63e" d="M 778.699219 505.933594 C 787.6875 505.738281 796.355469 507.253906 803.695312 512.855469 C 808.179688 516.273438 808.9375 517.640625 809.667969 523.109375 C 806.199219 527.878906 803.835938 528.304688 798.507812 530.589844 C 791.742188 530.359375 785.046875 529.125 778.640625 526.929688 C 772.699219 524.914062 770.46875 522.855469 767.839844 517.40625 C 770.445312 511.0625 773.25 509.796875 778.699219 505.933594 Z M 778.699219 505.933594 " fill-opacity="1" fill-rule="nonzero"/><path fill="#caa63e" d="M 789.542969 473.789062 C 791.714844 473.835938 793.847656 473.828125 795.960938 474.410156 C 804.722656 476.847656 814.183594 484.070312 818.8125 491.738281 C 819.449219 497.925781 818.542969 497.886719 814.882812 502.585938 C 803.089844 499.527344 789.273438 498.277344 782.527344 487.246094 C 783.472656 480.5625 785.199219 479.113281 789.542969 473.789062 Z M 789.542969 473.789062 " fill-opacity="1" fill-rule="nonzero"/><path fill="#caa63e" d="M 367.988281 805.855469 C 374.621094 801.558594 383.460938 803.261719 388.019531 809.71875 C 392.582031 816.175781 391.238281 825.078125 384.976562 829.898438 C 380.691406 833.195312 374.949219 833.882812 370.007812 831.683594 C 365.070312 829.488281 361.730469 824.761719 361.308594 819.371094 C 360.890625 813.980469 363.453125 808.792969 367.988281 805.855469 Z M 367.988281 805.855469 " fill-opacity="1" fill-rule="nonzero"/><path fill="#caa63e" d="M 734.023438 1204.039062 C 741.328125 1201.691406 749.167969 1205.609375 751.675781 1212.863281 C 754.179688 1220.117188 750.429688 1228.046875 743.234375 1230.707031 C 738.441406 1232.480469 733.058594 1231.519531 729.175781 1228.195312 C 725.289062 1224.875 723.507812 1219.710938 724.511719 1214.695312 C 725.519531 1209.683594 729.15625 1205.605469 734.023438 1204.039062 Z M 734.023438 1204.039062 " fill-opacity="1" fill-rule="nonzero"/><path fill="#caa63e" d="M 1286.921875 805.625 C 1293.421875 801.472656 1302.050781 803.382812 1306.199219 809.882812 C 1310.347656 816.382812 1308.445312 825.015625 1301.949219 829.164062 C 1295.449219 833.320312 1286.8125 831.414062 1282.664062 824.914062 C 1278.511719 818.410156 1280.417969 809.773438 1286.921875 805.625 Z M 1286.921875 805.625 " fill-opacity="1" fill-rule="nonzero"/><path fill="#caa63e" d="M 1352.605469 805.675781 C 1358.882812 801.703125 1367.1875 803.484375 1371.289062 809.679688 C 1375.390625 815.875 1373.785156 824.214844 1367.675781 828.445312 C 1363.609375 831.257812 1358.339844 831.65625 1353.898438 829.480469 C 1349.457031 827.304688 1346.539062 822.898438 1346.269531 817.957031 C 1346.003906 813.019531 1348.425781 808.320312 1352.605469 805.675781 Z M 1352.605469 805.675781 " fill-opacity="1" fill-rule="nonzero"/><path fill="#caa63e" d="M 305.679688 807.949219 C 309.371094 805.34375 314.179688 804.929688 318.261719 806.855469 C 322.34375 808.785156 325.070312 812.765625 325.40625 817.269531 C 325.738281 821.773438 323.621094 826.109375 319.867188 828.621094 C 314.160156 832.433594 306.453125 830.949219 302.570312 825.289062 C 298.6875 819.632812 300.074219 811.902344 305.679688 807.949219 Z M 305.679688 807.949219 " fill-opacity="1" fill-rule="nonzero"/><path fill="#caa63e" d="M 748.710938 1168.8125 L 757.855469 1170.328125 C 762.140625 1173.9375 762.261719 1174.101562 763.234375 1179.613281 C 761.308594 1186.390625 758.050781 1190.386719 753.613281 1195.613281 C 753.21875 1195.453125 752.804688 1195.324219 752.421875 1195.132812 C 746.925781 1192.390625 743.269531 1188.359375 741.285156 1182.636719 C 742.355469 1175.359375 743.71875 1174.378906 748.710938 1168.8125 Z M 748.710938 1168.8125 " fill-opacity="1" fill-rule="nonzero"/><path fill="#caa63e" d="M 1414.941406 808.203125 C 1419.789062 804.277344 1426.894531 804.988281 1430.867188 809.800781 C 1434.839844 814.609375 1434.199219 821.726562 1429.425781 825.746094 C 1424.585938 829.820312 1417.359375 829.164062 1413.332031 824.289062 C 1409.304688 819.410156 1410.027344 812.183594 1414.941406 808.203125 Z M 1414.941406 808.203125 " fill-opacity="1" fill-rule="nonzero"/><path fill="#caa63e" d="M 250.714844 810.011719 C 255.785156 808.105469 261.464844 810.476562 263.675781 815.425781 C 265.886719 820.375 263.867188 826.191406 259.058594 828.695312 C 255.683594 830.460938 251.605469 830.203125 248.476562 828.03125 C 245.347656 825.859375 243.679688 822.125 244.148438 818.34375 C 244.617188 814.5625 247.148438 811.351562 250.714844 810.011719 Z M 250.714844 810.011719 " fill-opacity="1" fill-rule="nonzero"/><path fill="#caa63e" d="M 734.949219 1051.773438 C 738.695312 1048.632812 744.25 1049.015625 747.53125 1052.640625 C 750.8125 1056.261719 750.640625 1061.828125 747.148438 1065.246094 C 744.765625 1067.578125 741.300781 1068.421875 738.117188 1067.4375 C 734.929688 1066.457031 732.539062 1063.816406 731.878906 1060.546875 C 731.214844 1057.28125 732.394531 1053.914062 734.949219 1051.773438 Z M 734.949219 1051.773438 " fill-opacity="1" fill-rule="nonzero"/><path fill="#caa63e" d="M 1470.675781 807.800781 C 1474.609375 806.253906 1479.082031 807.886719 1481.101562 811.601562 C 1483.125 815.320312 1482.058594 819.960938 1478.621094 822.425781 C 1475.980469 824.3125 1472.492188 824.511719 1469.660156 822.933594 C 1466.824219 821.355469 1465.15625 818.28125 1465.375 815.046875 C 1465.589844 811.808594 1467.65625 808.988281 1470.675781 807.800781 Z M 1470.675781 807.800781 " fill-opacity="1" fill-rule="nonzero"/><path fill="#fdfaf9" d="M 778.285156 1075.75 L 788.015625 1080.859375 L 782.691406 1087.457031 C 780.132812 1083.375 776.121094 1080.417969 771.460938 1079.1875 Z M 778.285156 1075.75 " fill-opacity="0.024" fill-rule="nonzero"/><g clip-path="url(#ae718cafbf)"><g clip-path="url(#02cae63519)"><g transform="matrix(1, 0, 0, 1, 351, 797)"><g clip-path="url(#359332f189)"><g clip-path="url(#7b2950ee05)"><g clip-path="url(#2b8e904820)"><path fill="#caa63e" d="M 0.183594 0.15625 L 39.390625 0.15625 L 39.390625 39.363281 L 0.183594 39.363281 Z M 0.183594 0.15625 " fill-opacity="1" fill-rule="nonzero"/></g></g></g></g></g></g><g clip-path="url(#9bddc33683)"><g clip-path="url(#7e3f316f98)"><g transform="matrix(1, 0, 0, 1, 242, 802)"><g clip-path="url(#22720812e3)"><g clip-path="url(#1475402edf)"><g clip-path="url(#8614d95bb2)"><path fill="#caa63e" d="M 0.773438 0.765625 L 28.757812 0.765625 L 28.757812 28.75 L 0.773438 28.75 Z M 0.773438 0.765625 " fill-opacity="1" fill-rule="nonzero"/></g></g></g></g></g></g><g clip-path="url(#139d02e96d)"><g clip-path="url(#bf2ae6711e)"><g transform="matrix(1, 0, 0, 1, 295, 801)"><g clip-path="url(#581e9a09d8)"><g clip-path="url(#d172d58021)"><g clip-path="url(#95388ea00e)"><path fill="#caa63e" d="M 0.722656 0.511719 L 31.21875 0.511719 L 31.21875 31.007812 L 0.722656 31.007812 Z M 0.722656 0.511719 " fill-opacity="1" fill-rule="nonzero"/></g></g></g></g></g></g><g clip-path="url(#2ebcc2707f)"><g clip-path="url(#ad22ebc2a9)"><g transform="matrix(1, 0, 0, 1, 1463, 807)"><g clip-path="url(#8d4eb7f42a)"><g clip-path="url(#eb3b235e65)"><g clip-path="url(#fb651f5ea2)"><path fill="#caa63e" d="M 0.949219 0.117188 L 20.226562 0.117188 L 20.226562 19.398438 L 0.949219 19.398438 Z M 0.949219 0.117188 " fill-opacity="1" fill-rule="nonzero"/></g></g></g></g></g></g><g clip-path="url(#13922805d3)"><g clip-path="url(#36cf163bb3)"><g transform="matrix(1, 0, 0, 1, 1275, 797)"><g clip-path="url(#ff7334a883)"><g clip-path="url(#20a39ac424)"><g clip-path="url(#14525d9bd7)"><path fill="#caa63e" d="M 0.0742188 0.15625 L 39.28125 0.15625 L 39.28125 39.363281 L 0.0742188 39.363281 Z M 0.0742188 0.15625 " fill-opacity="1" fill-rule="nonzero"/></g></g></g></g></g></g><g clip-path="url(#fb1049e699)"><g clip-path="url(#496d237ecc)"><g transform="matrix(1, 0, 0, 1, 1344, 800)"><g clip-path="url(#f58130ef2f)"><g clip-path="url(#1896f6c553)"><g clip-path="url(#8cc361f460)"><path fill="#caa63e" d="M 0.257812 0.882812 L 32.011719 0.882812 L 32.011719 32.632812 L 0.257812 32.632812 Z M 0.257812 0.882812 " fill-opacity="1" fill-rule="nonzero"/></g></g></g></g></g></g><g clip-path="url(#c870c0cd18)"><g clip-path="url(#adbe88c949)"><g transform="matrix(1, 0, 0, 1, 1405, 802)"><g clip-path="url(#121fa8348c)"><g clip-path="url(#bd186e4c59)"><g clip-path="url(#f33b97ea66)"><path fill="#caa63e" d="M 0.988281 0.765625 L 28.96875 0.765625 L 28.96875 28.75 L 0.988281 28.75 Z M 0.988281 0.765625 " fill-opacity="1" fill-rule="nonzero"/></g></g></g></g></g></g></g></g></g></g></g></svg>